<?xml version="1.0" standalone="no"?>
<!DOCTYPE svg PUBLIC "-//W3C//DTD SVG 1.1//EN" "http://www.w3.org/Graphics/SVG/1.1/DTD/svg11.dtd" >
<svg xmlns="http://www.w3.org/2000/svg" xmlns:xlink="http://www.w3.org/1999/xlink" version="1.1">
<metadata></metadata>
<defs>
<font id="seoulhangangjunglregular" horiz-adv-x="900" >
<font-face units-per-em="1000" ascent="800" descent="-200" />
<missing-glyph horiz-adv-x="330" />
<glyph unicode=" "  horiz-adv-x="330" />
<glyph unicode="&#x09;" horiz-adv-x="330" />
<glyph unicode="&#xa0;" horiz-adv-x="330" />
<glyph unicode="!" horiz-adv-x="320" d="M147 145q1 -11 9 -15t16.5 0.5t8.5 14.5l31 564h-95zM165 -80q27 1 42.5 16.5t15.5 39.5q0 27 -16.5 41.5t-41.5 14.5q-26 -1 -42.5 -17t-16.5 -39q0 -25 17 -40.5t42 -15.5z" />
<glyph unicode="&#x22;" horiz-adv-x="410" d="M107 543q2 -23 24 -22.5t24 22.5l16 215h-81zM257 543q2 -22 24 -22t24 22l17 215h-81z" />
<glyph unicode="#" horiz-adv-x="625" d="M154 217l-53 -221h54l53 221h141l-53 -221h53l53 221h135l8 38h-135l42 167h139l8 38h-139l55 219h-54l-54 -219h-141l54 219h-54l-54 -219h-130l-8 -38h130l-42 -167h-134l-8 -38h134zM258 422h141l-42 -167h-141z" />
<glyph unicode="$" horiz-adv-x="540" d="M480 146q0 -90 -57 -134.5t-138 -47.5v-75h-43v75q-82 3 -127.5 34t-55.5 81h70q4 -32 33.5 -53.5t79.5 -25.5v309q-25 7 -43.5 13.5t-45.5 21.5t-44 33t-30 47.5t-13 65.5q0 78 55.5 119t120.5 42v69h43v-67q63 0 109 -31t66 -81h-72q-6 39 -34.5 59t-68.5 20v-284 q24 -8 32.5 -10.5t34.5 -13t38.5 -18.5t33 -24t30.5 -32.5t18 -40.5t8 -51zM242 345v276q-58 -8 -85 -39.5t-27 -96.5q0 -103 112 -140zM415 139q0 62 -30.5 100t-99.5 64v-302q49 0 89.5 35.5t40.5 102.5z" />
<glyph unicode="%" horiz-adv-x="860" d="M514 627l-214 -636h50l215 636h-51zM192 195q43 0 75 20t49.5 53.5t25.5 70.5t8 78q0 102 -39.5 159t-118.5 57q-55 0 -91.5 -33t-51 -80t-14.5 -105q0 -100 38.5 -160t118.5 -60zM94 415q0 82 24.5 133.5t73.5 51.5q53 0 76 -53t23 -130q0 -81 -24.5 -134t-74.5 -53 q-28 0 -48.5 17.5t-30.5 46.5t-14.5 58.5t-4.5 62.5zM670 -18q58 0 95 36t50 83.5t13 103.5q0 100 -39.5 158t-118.5 58q-78 0 -117.5 -62.5t-39.5 -155.5q0 -94 38.5 -157.5t118.5 -63.5zM572 203q0 82 24.5 133.5t73.5 51.5q53 0 76 -53t23 -130q0 -81 -24.5 -135 t-74.5 -54q-28 0 -48.5 17.5t-30.5 47t-14.5 59.5t-4.5 63z" />
<glyph unicode="&#x26;" horiz-adv-x="835" d="M311 421q-5 11 -15 29t-13.5 25.5t-9 20.5t-7 25t-1.5 27q0 37 27 65t82 28q48 0 75 -24.5t27 -66.5q0 -18 -10.5 -35t-24 -28.5t-39.5 -25t-43 -21t-48 -19.5zM287 35q-68 0 -106 38.5t-38 95.5q0 36 8 64.5t39 63.5t86 64q25 -44 59.5 -91.5t57 -74t76.5 -88.5 q-34 -34 -85.5 -53t-96.5 -19zM258 396q-65 -37 -93.5 -59t-49.5 -51q-43 -56 -40 -123.5t48 -119.5q38 -43 101 -58t138 7.5t135 82.5q72 -78 147 -78q84 0 138 34v31q-13 -8 -51 -17.5t-62 -9.5q-36 0 -64.5 19t-62.5 60q55 54 106 176q16 37 29.5 46t51.5 9q12 0 17 6.5 t0 13.5t-17 7h-203q-11 0 -15 -7t0.5 -13.5t14.5 -6.5q63 0 63 -51q0 -33 -24 -76t-54 -71q-50 57 -68.5 79t-52.5 68.5t-61 93.5q109 47 150.5 80.5t41.5 88.5t-36 90.5t-108 35.5q-80 0 -127 -37t-47 -101q0 -34 12.5 -66t42.5 -83z" />
<glyph unicode="'" horiz-adv-x="320" d="M135 543q2 -23 26 -22.5t26 22.5l16 215h-85z" />
<glyph unicode="(" horiz-adv-x="330" d="M289 -121q-51 25 -76.5 122.5t-25.5 219.5v193q0 107 25.5 201t76.5 120v24q-79 -19 -126 -115.5t-47 -213.5v-176q0 -57 7 -113.5t24.5 -118.5t54 -107.5t87.5 -59.5v24z" />
<glyph unicode=")" horiz-adv-x="330" d="M212 431q-1 117 -47 213t-125 115v-24q51 -26 76.5 -120t25.5 -201v-193q0 -122 -25.5 -219.5t-76.5 -122.5v-24q51 14 87.5 59.5t54 107.5t24.5 118.5t7 113.5z" />
<glyph unicode="*" horiz-adv-x="350" d="M331 542v54l-144 -21l-1 3l92 105l-45 28l-52 -129h-4l-50 130l-50 -25l94 -109l-2 -3l-147 21v-53l147 25l2 -3l-95 -110l53 -29l47 136h4l49 -136l51 29l-95 110l2 3z" />
<glyph unicode="+" horiz-adv-x="575" d="M258 89h58v219h203v41h-203v203h-58v-203h-203v-41h203v-219z" />
<glyph unicode="," horiz-adv-x="300" d="M127 -193q22 15 51 63t30 99q2 77 -64 77q-27 0 -45.5 -14.5t-17.5 -41.5q1 -36 23.5 -49.5t42.5 -6.5q5 -4 5 -19q-17 -69 -56 -108h31z" />
<glyph unicode="-" horiz-adv-x="410" d="M56 301h296v54h-296v-54z" />
<glyph unicode="." horiz-adv-x="300" d="M150 -85q29 0 45.5 17t16.5 42q0 28 -16 44.5t-45 16.5q-27 0 -44.5 -17.5t-17.5 -43.5t17.5 -42.5t43.5 -16.5z" />
<glyph unicode="/" horiz-adv-x="405" d="M322 750l-287 -896h48l287 896h-48z" />
<glyph unicode="0" horiz-adv-x="500" d="M251 -15q61 0 105.5 29.5t68.5 82t34.5 111.5t10.5 129q0 69 -11 128t-35 110t-68.5 80.5t-105.5 29.5q-60 0 -104 -30t-68 -82t-34.5 -110.5t-10.5 -125.5q0 -156 55 -254t163 -98zM104 337q0 311 146 311q43 0 73.5 -27t46.5 -74t23 -98.5t7 -111.5q0 -313 -148 -313 t-148 313z" />
<glyph unicode="1" horiz-adv-x="500" d="M234 -4h67v689h-25l-155 -86q-8 -4 -9.5 -11.5t3.5 -12.5t13 -2l22 8q83 28 83 -49q0 -6 0.5 -15t0.5 -13v-508z" />
<glyph unicode="2" horiz-adv-x="500" d="M52 -4h389l10 132q0 4 -6 6.5t-12.5 0.5t-7.5 -8q-12 -58 -37 -74t-83 -16h-193q42 32 116 114t136 163q69 90 69 171q0 95 -53 147.5t-147 52.5q-47 0 -83.5 -16.5t-56.5 -42t-30 -48t-13 -42.5h44q-2 33 35 68.5t95 35.5q68 0 102 -35.5t34 -90.5q0 -58 -15.5 -99.5 t-47.5 -93.5q-40 -65 -100.5 -139t-104.5 -116q-26 -28 -40 -38v-32z" />
<glyph unicode="3" horiz-adv-x="500" d="M94 558q29 86 126 86q65 0 102 -33.5t37 -97.5q0 -68 -29 -101t-68 -39l-57 -3q-16 0 -16 -18.5t16 -18.5l69 -6q43 -7 67.5 -44.5t24.5 -93.5q0 -46 -18 -78.5t-48 -48.5t-61.5 -23t-66.5 -7q-27 0 -68 12.5t-62 24.5v-45q75 -39 149 -39q108 0 179 49.5t71 140.5 q0 143 -125 176v4q52 12 84 55t32 104q0 81 -60.5 126t-139.5 45q-89 -3 -131.5 -42t-49.5 -85h43z" />
<glyph unicode="4" horiz-adv-x="500" d="M305 -4h64v196h116v47h-116v445h-70l-283 -445v-47h289v-196zM299 591h6v-352h-232z" />
<glyph unicode="5" horiz-adv-x="500" d="M150 629h263v45h-319l-19 -364h52q23 35 80.5 48.5t100.5 -6.5q80 -38 80 -135q0 -82 -40 -124.5t-102 -54.5q-38 -7 -98.5 2.5t-90.5 26.5v-42q25 -14 57.5 -23.5t85 -14t103.5 11.5q70 18 114 75.5t44 137.5q0 64 -30 113t-78 67q-31 12 -66 14.5t-65 -4t-50.5 -13.5 t-34.5 -14z" />
<glyph unicode="6" horiz-adv-x="500" d="M429 652q-58 31 -122.5 31t-118.5 -27q-73 -38 -106.5 -132t-33.5 -207q0 -82 8 -141q31 -191 200 -191q101 0 159 56.5t58 152.5q-2 96 -50.5 151t-137.5 55q-97 0 -166 -82q0 231 109 298q73 46 201 -2v38zM118 265q74 90 158 90q62 0 93.5 -47.5t31.5 -117.5 q0 -71 -35.5 -117t-105.5 -45q-36 0 -62.5 15.5t-41.5 38t-23.5 57t-11 62.5t-3.5 64z" />
<glyph unicode="7" horiz-adv-x="500" d="M149 -4h71l239 646v32h-406l-5 -135q1 -14 14.5 -14t15.5 15l16 46q27 46 63 46h230z" />
<glyph unicode="8" horiz-adv-x="500" d="M250 -15q99 0 155.5 51t56.5 138q0 137 -133 180v3q50 13 82.5 54t32.5 102q0 83 -53.5 128t-141.5 45q-87 0 -140 -48t-53 -120q0 -69 32.5 -108t82.5 -53v-4q-57 -16 -93.5 -64t-36.5 -122q0 -83 55 -132.5t154 -49.5zM123 514q0 62 34 97.5t92 35.5q59 0 92.5 -37 t33.5 -96q0 -70 -32.5 -105t-93.5 -35q-60 0 -93 42t-33 98zM113 172q0 73 36.5 118t99.5 45q65 0 103.5 -43.5t38.5 -118.5q0 -72 -40 -109.5t-102 -37.5q-65 0 -100.5 39.5t-35.5 106.5z" />
<glyph unicode="9" horiz-adv-x="500" d="M449 346q0 54 -4 97.5t-17 90.5t-35 79t-61 52.5t-91 20.5q-96 0 -150 -55t-54 -152q0 -81 37.5 -133.5t88 -68.5t99.5 -4q64 11 118 70q-5 -110 -6 -118q-17 -125 -111 -176q-26 -14 -64.5 -15t-71 6t-57.5 18v-42q62 -31 126 -31t115 27q138 75 138 334zM379 394 q-18 -30 -60 -56t-88 -26q-60 0 -91.5 49t-31.5 122q0 72 35.5 117.5t96.5 44.5q131 -1 139 -251z" />
<glyph unicode=":" horiz-adv-x="300" d="M150 448q29 0 45.5 17t16.5 42q0 27 -18.5 44t-43.5 17q-26 0 -43.5 -17.5t-17.5 -43.5t17.5 -42.5t43.5 -16.5zM150 88q29 0 45.5 17.5t16.5 42.5q0 27 -18.5 44t-43.5 17q-26 0 -43.5 -17.5t-17.5 -43.5t17.5 -43t43.5 -17z" />
<glyph unicode=";" horiz-adv-x="300" d="M133 -33q26 20 55.5 68.5t27.5 94.5q-3 78 -65 78q-27 0 -45 -15t-17 -42q0 -24 14.5 -35.5t32 -15t19.5 -5.5q6 -5 6 -20q-1 -9 -2.5 -18t-4 -16.5t-6 -15t-6.5 -12.5t-7.5 -11.5t-7.5 -10t-8 -8.5l-6.5 -6.5t-6.5 -5.5l-4 -4h31zM150 448q29 0 45.5 17t16.5 42 q0 27 -18.5 44t-43.5 17q-26 0 -43.5 -17.5t-17.5 -43.5t17.5 -42.5t43.5 -16.5z" />
<glyph unicode="&#x3c;" horiz-adv-x="575" d="M517 41v57l-360 207l360 207v57l-412 -235v-58z" />
<glyph unicode="=" horiz-adv-x="575" d="M56 198h463v45h-463v-45zM56 403h463v45h-463v-45z" />
<glyph unicode="&#x3e;" horiz-adv-x="575" d="M470 334l-412 235v-57l360 -207l-360 -207v-57l412 235v58z" />
<glyph unicode="?" horiz-adv-x="465" d="M166 138q0 -26 17.5 -25.5t17.5 25.5v53q0 11 1 20.5t1.5 17t3.5 15.5t4 12.5t6 12t6.5 10t8.5 9.5t8.5 9t10 10t10.5 10l79 72q44 44 59 77t15 80q0 72 -50 118.5t-147 46.5q-92 0 -141 -46t-47 -89h78q-2 42 30.5 74t80.5 32q58 0 91.5 -38t33.5 -93q0 -42 -14 -69 t-44 -58l-61 -63q-32 -33 -45 -63.5t-13 -74.5v-85zM188 -82q26 0 42 16.5t16 41.5q0 26 -16.5 41.5t-41.5 15.5q-26 0 -42.5 -16.5t-16.5 -40.5q0 -26 17 -42t42 -16z" />
<glyph unicode="@" horiz-adv-x="1000" d="M835 13q6 7 3.5 16t-9 11.5t-14.5 -3.5q-25 -23 -57 -43.5t-101 -42.5t-146 -22q-126 2 -213 49.5t-124 127.5q-40 93 -16 203t100 195q52 55 118.5 89.5t144 44t157.5 -17.5q89 -30 140 -100.5t51 -167.5q-2 -93 -41.5 -161t-96.5 -99q-57 -32 -87.5 -16t-13.5 71 l133 339h-69l-26 -63q-17 32 -28.5 46.5t-34.5 26t-58 11.5q-51 0 -101.5 -32.5t-85.5 -83.5q-49 -71 -65.5 -137t-6 -110.5t39.5 -73.5q37 -37 93 -35q34 1 63 15.5t41.5 26.5t30.5 33q0 -27 5 -42q6 -17 9 -23.5t18 -13t41 -6.5q9 0 16 0.5t14 1.5t11.5 1.5t10.5 2.5 t8.5 2.5t9.5 3.5t8.5 3.5t10 4.5t10.5 5q85 44 133 125t48 177q-2 110 -62 192.5t-157 113.5q-137 40 -256.5 8.5t-211.5 -121.5q-92 -91 -121 -220.5t20 -232.5q48 -102 149 -153t237 -49q69 1 127.5 14.5t101.5 38.5t58.5 36.5t40.5 33.5zM382 83q-25 21 -28.5 63t11.5 92 t43 102q34 59 79 95t83 36q33 0 51 -22.5t18 -49.5q0 -60 -53 -183q-68 -147 -155 -147q-29 0 -49 14z" />
<glyph unicode="A" horiz-adv-x="600" d="M585 -11l-260 685h-155q-6 0 -10 -5t-3 -11q4 -12 15 -12q59 0 59 -53q-5 -33 -15 -59l-201 -545h53l84 227h274l85 -227h74zM411 261h-243l120 333z" />
<glyph unicode="B" horiz-adv-x="605" d="M565 175q0 153 -164 181v5q51 9 90 47.5t39 107.5q0 159 -224 159h-273q-10 0 -14.5 -7.5t0 -15t15.5 -7.5q24 0 46 -12q16 -12 21 -27t5 -52v-566h192q14 1 48 1q93 4 156 50.5t63 135.5zM460 507q0 -37 -14 -63.5t-31.5 -39.5t-46 -20t-46 -8t-42.5 -1h-112v210 q0 7 1 13t2.5 10t4.5 7.5t4.5 5.5t6 4t6 2.5t6.5 2t6 1.5q8 2 93 2q162 0 162 -126zM495 175q0 -45 -18 -75.5t-51 -44t-61.5 -18.5t-66.5 -6h-86q-26 1 -35 12.5t-9 34.5v255h112q32 0 53.5 -1.5t55 -10t54.5 -24t36.5 -47t15.5 -75.5z" />
<glyph unicode="C" horiz-adv-x="635" d="M596 555q-7 51 -70.5 93.5t-155.5 42.5q-84 0 -153 -33q-79 -38 -122 -123t-43 -189q4 -223 178 -324q53 -30 123 -35.5t130.5 7.5t107.5 37q14 8 9 24.5t-19 13.5q-62 -30 -144 -37.5t-123 11.5q-104 44 -146.5 120t-42.5 200q0 80 24.5 139.5t63.5 89t78 43t78 13.5 q65 0 105 -29t45 -64h77z" />
<glyph unicode="D" horiz-adv-x="660" d="M604 337q0 151 -59.5 231.5t-161.5 95.5q-64 12 -180 12h-170q-10 0 -14 -8t0.5 -15.5t14.5 -7.5q44 -1 58.5 -26t14.5 -71v-559h133q86 0 145 14t106 48q113 77 113 286zM533 337q3 -304 -261 -302h-21.5t-33.5 1t-21 5q-8 5 -13.5 11.5t-8 12t-4 14t-2 13t0 14.5 t0.5 13v428q0 46 7.5 61.5t32.5 21.5q14 3 67 3q142 -1 199 -76.5t58 -219.5z" />
<glyph unicode="E" horiz-adv-x="580" d="M519 124q0 5 -6 8t-13 1t-8 -9q-9 -50 -22 -66q-22 -26 -73 -26h-136q-54 0 -75 17q-17 14 -17 51v227h162q60 0 79 -22q9 -10 14.5 -23t5.5 -20l1 -8q1 -12 13.5 -12t12.5 12v187q0 5 -6 7t-12 -0.5t-6 -7.5q0 -27 -11.5 -41t-34.5 -23q-16 -6 -56 -6h-162v188 q0 48 18 63q19 13 53 13h133q63 0 81 -24q6 -8 11.5 -21t8.5 -22l2 -9q0 -5 6 -7.5t11.5 -0.5t5.5 7l-5 119h-458q-10 0 -14 -8t0.5 -15.5t14.5 -7.5q26 0 42 -14q16 -13 21.5 -29t5.5 -48v-565h406z" />
<glyph unicode="F" horiz-adv-x="540" d="M107 -13h62v338h163q36 0 52 -6t27 -19q10 -11 15.5 -24t5.5 -20l1 -8q1 -11 13.5 -11t12.5 11v194q0 5 -6 7t-12 -0.5t-6 -7.5q0 -31 -11 -44t-35 -22q-17 -6 -57 -6h-163v188q0 48 19 63q17 14 53 14h132q54 0 78 -28q6 -8 11.5 -21.5t7.5 -22.5l2 -9q0 -5 6 -7.5 t12 -0.5t6 7l-5 124h-456q-10 0 -14 -8t0.5 -15.5t14.5 -7.5q27 0 44 -15q27 -23 27 -77v-566z" />
<glyph unicode="G" horiz-adv-x="660" d="M591 30v268q0 39 -37 39h-120q-18 0 -18 -16.5t18 -16.5q50 0 64 -9q18 -11 23 -27t5 -45v-172q-45 -12 -109.5 -14.5t-102.5 9.5q-104 44 -147.5 119.5t-43.5 198.5q0 65 17 116.5t42.5 82t59 50.5t64.5 27.5t61 7.5q65 0 105.5 -29t45.5 -63h76q-6 52 -68 93t-159 42 q-154 0 -235.5 -96t-81.5 -247q0 -113 47 -195t131 -130q49 -27 112 -34.5t118 1.5t104 28z" />
<glyph unicode="H" horiz-adv-x="660" d="M572 -11v687h-63v-298h-339v262q0 36 -36 36h-101q-9 0 -12.5 -7t0 -14t12.5 -8q33 -4 43 -12q31 -22 31 -84v-562h63v341h339v-341h63z" />
<glyph unicode="I" horiz-adv-x="255" d="M107 -13h63v653q0 36 -36 36h-101q-9 0 -12.5 -7t0 -14t12.5 -8q33 -4 43 -12q31 -22 31 -84v-564z" />
<glyph unicode="J" horiz-adv-x="430" d="M342 640q0 36 -36 36h-101q-9 0 -12.5 -7t0 -14t12.5 -8q33 -4 43 -12q31 -22 31 -83v-372q0 -78 -23 -116t-94 -38q-32 0 -53.5 7t-30.5 20t-12 23t-4 24h-71q17 -117 163 -117q52 0 89.5 13.5t56 31.5t29 46t12 46t1.5 42v478z" />
<glyph unicode="K" horiz-adv-x="565" d="M170 640q0 36 -36 36h-101q-9 0 -12.5 -7t0 -14t12.5 -8q33 -4 43 -12q31 -22 31 -83v-564h63v351h4l305 -351h81l-322 370l272 290l2 2t2.5 4.5t1.5 6t-5 5t-14 3.5h-33l-294 -315v286z" />
<glyph unicode="L" horiz-adv-x="520" d="M171 640q0 36 -36 36h-102q-9 0 -12.5 -7t0 -14t12.5 -8q33 -4 43 -12q31 -22 31 -84v-559h395l5 160q0 6 -5.5 8.5t-11.5 0.5t-7 -9q-4 -29 -7 -43q-10 -39 -29.5 -54.5t-60.5 -15.5h-112q-56 0 -82 19q-12 8 -17 24.5t-5 28.5l1 12v517z" />
<glyph unicode="M" horiz-adv-x="840" d="M747 -11v687h-101l-218 -593h-4l-217 593h-163q-14 0 -14.5 -14.5t14.5 -14.5q18 0 37 -12q26 -21 26 -81v-565h49v626h6l235 -626h29q11 0 19 6.5t10 13.5l2 7l226 605h6v-632h58z" />
<glyph unicode="N" horiz-adv-x="660" d="M542 -12q12 0 19.5 6.5t8.5 13.5l2 6v662h-53v-575h-5l-330 575h-142q-14 0 -14 -14.5t14 -14.5q20 0 41 -13q24 -17 24 -79v-567h51v606h5l349 -606h30z" />
<glyph unicode="O" horiz-adv-x="730" d="M677 337q0 161 -85.5 256.5t-226.5 95.5q-140 0 -225.5 -97t-85.5 -256q0 -160 83 -256t229 -96q144 0 227.5 96t83.5 257zM605 337q0 -82 -22.5 -148t-78.5 -111t-138 -45q-83 0 -139.5 46t-79.5 112t-23 145q0 131 61.5 219t179.5 88q120 0 180 -88t60 -218z" />
<glyph unicode="P" horiz-adv-x="570" d="M540 489q-1 85 -55 134t-126 51q-33 2 -115 2h-206q-9 0 -12.5 -8t-0.5 -15.5t12 -7.5q29 0 46 -13q15 -15 19.5 -28.5t4.5 -49.5v-568h62v571q0 43 10.5 56t38.5 17q12 2 90 2q79 -2 120 -35t41 -108q-1 -41 -14.5 -69t-37.5 -42.5t-45 -20.5t-49 -9q-24 -2 -97 -2 q-19 0 -19 -22.5t18 -23.5q93 1 115 1q78 0 139.5 54t60.5 134z" />
<glyph unicode="Q" horiz-adv-x="730" d="M606 337q0 -82 -22.5 -149t-78.5 -113t-138 -46q-83 0 -139.5 47t-79.5 114t-23 146q0 132 61.5 221t179.5 89q82 0 137.5 -45.5t79 -113t23.5 -150.5zM321 -13q54 -116 225 -116q67 4 84 9v34q-118 -14 -158 14q-1 1 -19 11t-27.5 20.5t-14.5 27.5q125 15 196 108.5 t71 241.5q0 161 -85.5 256.5t-226.5 95.5q-140 0 -225.5 -97t-85.5 -256q0 -146 70.5 -240t195.5 -109z" />
<glyph unicode="R" horiz-adv-x="590" d="M453 -12h79l-237 315h44q78 0 139.5 54t60.5 133q-1 85 -54.5 133t-126.5 50q-49 3 -114 3h-206q-9 0 -12.5 -7t0.5 -14.5t13 -7.5q28 0 43 -13q15 -15 20 -29t5 -50v-567h61v566q0 42 10.5 56t38.5 18q18 3 90 3q79 -2 120.5 -34t41.5 -107q-3 -132 -149 -146 q-24 -2 -93 -2q-13 0 -15 -15t9 -24z" />
<glyph unicode="S" horiz-adv-x="500" d="M458 173q0 39 -16.5 71t-47.5 56.5t-59.5 41.5t-68 37t-57.5 31q-49 31 -67.5 60.5t-18.5 71.5q0 50 35.5 77t95.5 27q93 -5 158 -32v55q-80 20 -148 20q-98 0 -153.5 -42t-55.5 -124t88 -148q28 -19 69.5 -41.5t67.5 -37.5t52 -35t39 -45t13 -56q-1 -66 -46 -102 q-31 -25 -82.5 -29t-97.5 6.5t-79 28.5q-16 1 -24 -11.5t-4 -28.5t18 -22q42 -13 110 -18.5t134 6.5q70 16 107.5 64.5t37.5 118.5z" />
<glyph unicode="T" horiz-adv-x="555" d="M531 521l-5 155h-501l-5 -153q0 -9 6.5 -14t13.5 -1t7 14q1 15 1.5 19.5t3.5 21.5t8 26t14.5 20t22.5 17q17 9 53 9h94v-650h63v650h95q33 0 53 -9q13 -5 22.5 -16.5t15 -31t7.5 -28.5t5 -30q1 -10 7.5 -14t12.5 0.5t6 14.5z" />
<glyph unicode="U" horiz-adv-x="670" d="M170 640q0 36 -36 36h-101q-9 0 -12.5 -7t0 -14t12.5 -8q33 -4 43 -12q31 -22 31 -83v-320q-2 -250 235 -250q61 0 106 16t70 40t40 60.5t19 69t4 74.5v434h-54v-435q0 -107 -38 -160t-147 -53q-52 0 -87 16.5t-53 48.5t-25 67.5t-7 82.5v397z" />
<glyph unicode="V" horiz-adv-x="595" d="M557 676h-26l-212 -602l-224 602h-108q-9 0 -14 -7.5t-1 -15.5t16 -9q29 -2 45 -18q7 -7 19 -31l21 -48l213 -564h52l238 668q1 3 2 7t-3.5 11t-17.5 7z" />
<glyph unicode="W" horiz-adv-x="830" d="M786 676h-29l-125 -556h-5l-160 556h-76l-157 -560h-5l-127 560h-112q-12 0 -17 -8t0 -16t17 -8q32 -2 46 -19q8 -8 17 -30q8 -20 13 -48l129 -562h55l171 604h4l179 -604h48l151 670q5 19 -17 21z" />
<glyph unicode="X" horiz-adv-x="550" d="M530 -11l-215 366l195 321h-61l-166 -278l-157 278h-113q-11 0 -16.5 -8t-1 -16.5t18.5 -8.5q54 0 90 -60l136 -237l-215 -357h61l187 312l184 -312h73z" />
<glyph unicode="Y" horiz-adv-x="550" d="M539 676h-60l-197 -307l-192 307h-99q-10 0 -15 -7t-0.5 -14.5t17.5 -8.5q47 -3 74 -54l178 -273v-332h66v332z" />
<glyph unicode="Z" horiz-adv-x="570" d="M529 138q-2 11 -15 11.5t-15 -11.5q-3 -25 -6 -40q-8 -36 -30.5 -49.5t-68.5 -13.5h-270l389 605v36h-439l-7 -137q0 -8 7 -11.5t15 -0.5t9 12q4 22 6 34q8 37 30.5 49t66.5 12h240l-392 -607v-37h475z" />
<glyph unicode="[" horiz-adv-x="350" d="M300 -143q16 0 16 18t-16 18h-39q-46 1 -62.5 14t-16.5 54v666q0 52 18 68t60 16h40q16 0 16 18t-16 18h-165q-16 0 -16 -21v-849q0 -20 17 -20h164z" />
<glyph unicode="\" horiz-adv-x="405" d="M87 750l287 -896h-51l-287 896h51z" />
<glyph unicode="]" horiz-adv-x="350" d="M218 -123v849q0 21 -16 21h-165q-16 0 -16 -18t16 -18h40q42 0 60 -16t18 -68v-666q0 -41 -16.5 -54t-62.5 -14h-39q-17 0 -17 -18t17 -18h164q17 0 17 20z" />
<glyph unicode="^" horiz-adv-x="460" d="M410 470l-146 231h-64l-145 -231h55l123 193l121 -193h56z" />
<glyph unicode="_" horiz-adv-x="500" d="M500 -117v34h-500v-34h500z" />
<glyph unicode="`" horiz-adv-x="300" d="M194 528l-67 159q-14 20 -34.5 21t-28.5 -14t4 -41l97 -125h29z" />
<glyph unicode="a" horiz-adv-x="510" d="M427 -6v314q0 75 -47 118t-132 43q-86 0 -132.5 -38t-50.5 -85h67q3 38 33.5 59.5t80.5 21.5q121 0 121 -121v-34q-11 0 -35 -0.5t-32 -0.5q-55 -1 -107 -15t-93 -52t-41 -94q0 -53 31 -90.5t84 -36.5q112 -2 163 48q14 13 30 30v-67h60zM367 159q0 -27 -7 -43 q-18 -44 -63.5 -67t-86.5 -23q-26 1 -44.5 11.5t-26.5 26t-11 29t-3 27.5q0 19 11 39.5t25 31.5q10 8 23.5 14.5t26.5 11t30.5 7.5t29.5 4.5t29.5 2t26 0.5h23.5h17v-72z" />
<glyph unicode="b" horiz-adv-x="570" d="M456 220q0 -91 -39 -143t-110 -52q-67 0 -104.5 41t-40.5 92l-2 106q0 20 6 50q13 46 53 74t84 28q153 0 153 -196zM160 658q0 15 -9 25.5t-27 10.5h-96q-9 0 -12.5 -6.5t0 -13t12.5 -7.5q33 -4 43 -12q31 -22 31 -86v-578h15q12 1 23.5 13t17.5 24l6 11q56 -59 151 -59 q100 1 153 71.5t53 169.5q0 55 -11 92q-18 71 -67.5 111.5t-116.5 40.5q-111 0 -162 -80h-4v273z" />
<glyph unicode="c" horiz-adv-x="520" d="M474 349q-11 51 -62 84.5t-125 33.5q-104 0 -170 -61.5t-66 -171.5q0 -114 66.5 -181t169.5 -71q55 -2 105 9.5t76 31.5q11 6 5.5 23t-18.5 13q-31 -19 -79.5 -26.5t-72.5 -6.5q-89 7 -138 64t-49 144q0 96 47.5 143t115.5 47q57 0 89 -20t35 -55h71z" />
<glyph unicode="d" horiz-adv-x="560" d="M410 202q0 -68 -42.5 -122t-107.5 -54q-39 0 -69 20t-45 51t-22.5 63t-7.5 62q0 88 38.5 142t106.5 54q59 0 98 -32.5t46 -79.5q5 -37 5 -62v-42zM468 658q0 15 -9 25.5t-27 10.5h-96q-9 0 -12.5 -6.5t0 -13t12.5 -7.5q33 -4 43 -12q31 -22 31 -86v-178h-4 q-53 74 -158 74q-88 0 -142.5 -71.5t-54.5 -171.5q0 -110 56.5 -176t142.5 -66q108 0 155 80h5v-69h58v667z" />
<glyph unicode="e" horiz-adv-x="525" d="M480 223v44h-392v-44h392zM480 249q4 106 -53 162t-140 56q-104 0 -170 -61t-66 -171q0 -114 66.5 -181.5t169.5 -71.5q55 -2 104 9.5t75 31.5q11 6 6.5 22t-17.5 12q-31 -19 -79 -26t-74 -5q-90 7 -138.5 62.5t-48.5 146.5q0 97 46.5 142.5t115.5 45.5q149 0 145 -174 h58z" />
<glyph unicode="f" horiz-adv-x="360" d="M373 594q-6 43 -39.5 70.5t-93.5 27.5q-61 0 -93 -32.5t-39 -81.5q-4 -29 -4 -62v-65h-88v-43h88v-422h58v422h139v43h-139v65q0 36 1 52q1 50 20.5 67.5t55.5 17.5q65 0 72 -59h62z" />
<glyph unicode="g" horiz-adv-x="570" d="M534 458h-100q-9 0 -15 -6t-6 -15v-45h-5q-46 77 -149 77q-96 0 -151 -67.5t-55 -166.5q0 -106 57.5 -168t142.5 -62q103 0 155 77h5v-85q0 -8 -2 -46q-4 -53 -41 -82t-95 -29q-119 0 -132 75h-65q9 -52 55.5 -83t133.5 -31q86 0 135.5 33t60.5 84q8 29 8 66v367 q0 79 64 79q9 0 13 7t0 14t-14 7zM413 207q-3 -66 -45.5 -110.5t-98.5 -44.5q-80 0 -115 52t-35 131q0 86 35.5 138t111.5 52q53 0 88 -30.5t47 -67t12 -73.5v-47z" />
<glyph unicode="h" horiz-adv-x="570" d="M160 658q0 15 -9 25.5t-27 10.5h-97q-9 0 -13 -6.5t-0.5 -13.5t12.5 -8q36 -5 44 -11q31 -22 31 -85v-580h59v215q0 47 15 82q27 66 68 96t85 30q55 0 79 -35t24 -88v-300h57v297q0 76 -37 126.5t-105 50.5q-72 0 -115 -33t-68 -95h-3v322z" />
<glyph unicode="i" horiz-adv-x="250" d="M178 626q-1 22 -15 36t-34 14q-21 0 -36 -14.5t-15 -35.5q0 -20 15 -34.5t36 -14.5q22 0 35.5 14.5t13.5 34.5zM104 -12h58v430q0 15 -9 25.5t-27 10.5h-94q-9 0 -12.5 -6.5t0 -13t12.5 -7.5q32 -4 42 -12q30 -21 30 -85v-342z" />
<glyph unicode="j" horiz-adv-x="270" d="M199 631q0 20 -14.5 35t-34.5 15q-21 0 -36 -14.5t-15 -35.5t15 -35t36 -14q23 0 36 14t13 35zM126 -38q0 -63 -16.5 -94t-62.5 -31q-39 0 -54 18.5t-17 49.5h-67q3 -47 40 -75.5t100 -28.5q29 0 51.5 8t36.5 18t24 29t14.5 31.5t7 36t2.5 31.5v29v447q0 15 -9 25.5 t-27 10.5h-95q-9 0 -12.5 -6.5t0 -13t12.5 -7.5q32 -4 42 -12q30 -21 30 -85v-381z" />
<glyph unicode="k" horiz-adv-x="500" d="M160 658q0 15 -9 25.5t-27 10.5h-96q-9 0 -12.5 -6.5t0 -13t12.5 -7.5q33 -4 43 -12q31 -22 31 -86v-578h58v251h3l243 -251h78l-261 271l224 191h-64l-223 -190v395z" />
<glyph unicode="l" horiz-adv-x="250" d="M104 -13h59v671q0 15 -9 25.5t-27 10.5h-97q-9 0 -12.5 -6.5t0 -13t12.5 -7.5q33 -4 43 -12q31 -22 31 -86v-582z" />
<glyph unicode="m" horiz-adv-x="800" d="M97 -8h58v237q0 69 44.5 130t92.5 61t70 -30.5t22 -75.5v-322h57v241q1 33 12 68q20 57 53.5 87.5t70.5 30.5q94 0 94 -132v-295h58v318q0 72 -33 114t-94 42q-122 0 -161 -111h-3q0 50 -34.5 80.5t-89.5 30.5q-62 0 -103 -35t-53 -76h-3v76q0 15 -9 25.5t-27 10.5h-94 q-9 0 -12.5 -6.5t0 -13t12.5 -7.5q32 -4 42 -12q30 -21 30 -86v-350z" />
<glyph unicode="n" horiz-adv-x="570" d="M160 431q0 15 -9 25.5t-27 10.5h-95q-9 0 -12.5 -6.5t0 -13t12.5 -7.5q32 -4 42 -12q30 -21 30 -86v-350h58v234q0 64 56.5 124.5t112.5 60.5q106 0 106 -110v-309h57v358q0 40 -39.5 78.5t-98.5 37.5q-71 -1 -118.5 -40.5t-72.5 -96.5h-2v102z" />
<glyph unicode="o" horiz-adv-x="570" d="M516 226q0 112 -62.5 179t-170.5 67q-110 0 -169.5 -70.5t-59.5 -176.5q0 -114 63.5 -178t167.5 -64q108 0 169.5 66t61.5 177zM448 226q0 -85 -41.5 -142t-122.5 -57q-85 0 -124.5 55.5t-39.5 142.5q0 91 39.5 147.5t122.5 56.5q85 0 125.5 -58t40.5 -145z" />
<glyph unicode="p" horiz-adv-x="560" d="M448 227q0 -52 -11.5 -94t-46 -74t-87.5 -32q-49 0 -83 31t-46 67.5t-12 71.5v85q0 62 44.5 102.5t96.5 40.5q41 0 71 -18.5t45.5 -49t22 -62.5t6.5 -68zM161 431q0 15 -9 25.5t-27 10.5h-95q-9 0 -12.5 -6.5t0 -13t12.5 -7.5q32 -4 42 -12q30 -21 30 -86v-540h60v261h3 q40 -81 149 -81q102 0 150 70t48 177q0 112 -56 175t-148 63q-50 0 -87 -22.5t-57 -57.5h-3v44z" />
<glyph unicode="q" horiz-adv-x="550" d="M463 -198v666h-9q-18 -4 -32.5 -18.5t-19.5 -27.5l-5 -12q-63 58 -144 58q-93 0 -147 -69t-54 -173t52.5 -173.5t141.5 -69.5q65 0 102.5 25.5t52.5 55.5h3v-262h59zM404 199q0 -75 -39 -122t-103 -47q-40 0 -69.5 18.5t-45 48.5t-22.5 61.5t-7 65.5q0 89 36.5 145 t107.5 56q52 0 88 -27.5t46 -67.5q8 -29 8 -61v-70z" />
<glyph unicode="r" horiz-adv-x="390" d="M161 430q0 16 -9 26.5t-27 10.5h-95q-9 0 -12.5 -6.5t0 -13t12.5 -7.5q32 -4 42 -12q30 -21 30 -86v-352h59v238q0 26 4 51q10 71 61 101q53 29 138 18v65h-39q-56 0 -101.5 -32t-59.5 -73h-3v72z" />
<glyph unicode="s" horiz-adv-x="410" d="M364 115q0 43 -17 63q-38 45 -113.5 76.5t-108.5 62.5q-21 22 -19 52q1 32 29 48.5t61 15t61 -6.5q41 -11 74 -29v55q-4 1 -17 4t-22 5q-188 40 -235 -69q-11 -27 -8.5 -55.5t16.5 -47.5q19 -23 48.5 -40.5t69.5 -34.5t55 -25q64 -36 64 -84q0 -49 -33 -67t-91 -18 q-53 0 -113 29q-23 1 -25.5 -21t17.5 -30q35 -12 90 -16.5t111 8.5q106 27 106 125z" />
<glyph unicode="t" horiz-adv-x="350" d="M308 -15v40q-77 -11 -118 13q-29 17 -29 68v303h137v44h-138v147l-59 -54v-93h-79v-44h79v-292q0 -74 26 -105.5t110 -31.5q38 0 71 5z" />
<glyph unicode="u" horiz-adv-x="575" d="M433 229q0 -23 -10.5 -62t-28.5 -70q-19 -32 -53.5 -50t-68.5 -18q-36 0 -59.5 11t-34 31t-14 39t-3.5 44v277q0 15 -9 25.5t-27 10.5h-95q-9 0 -12.5 -6.5t0 -13t12.5 -7.5q32 -4 42 -12q30 -21 30 -86v-185q0 -86 39 -130.5t114 -44.5q55 2 97.5 27t57.5 55 q15 23 20 40h3v-111h61v438q0 15 -10 25.5t-28 10.5h-94q-9 0 -12.5 -6.5t0 -13t12.5 -7.5q30 -4 41 -12q30 -21 30 -86v-113z" />
<glyph unicode="v" horiz-adv-x="495" d="M455 454h-32l-144 -386l-169 386h-102q-14 0 -14 -15t14 -15q28 0 45 -15.5t24 -35.5l177 -393h41l176 455q5 19 -16 19z" />
<glyph unicode="w" horiz-adv-x="695" d="M648 455h-26l-105 -358h-6l-122 358h-47l-115 -360h-5l-104 360h-103q-8 0 -11.5 -7t0 -14.5t11.5 -7.5q51 -2 63 -44l122 -401h33l125 383h4l134 -383h34l135 455q4 19 -17 19z" />
<glyph unicode="x" horiz-adv-x="480" d="M452 -8l-169 252l143 193q8 17 -15 17l-29 1l-126 -174l-116 174h-106q-14 0 -15 -13q3 -13 19 -15q19 -2 28.5 -4.5t25.5 -14t31 -33.5l95 -141l-181 -242h58l153 205l136 -205h68z" />
<glyph unicode="y" horiz-adv-x="485" d="M440 459h-27l-138 -367l-159 367h-108q-12 0 -12 -14t12 -14q22 0 38.5 -9.5t22 -17t12.5 -20.5q4 -8 8.5 -18.5t7.5 -18.5l141 -332q-33 -106 -52 -138q-29 -48 -84 -33q-39 12 -42 50v19h-65q7 -70 56 -96q37 -22 92.5 -14.5t78.5 42.5q12 15 20.5 32t19.5 50.5 t17 48.5l180 461q6 22 -19 22z" />
<glyph unicode="z" horiz-adv-x="485" d="M430 105q1 7 -5 10t-13 0.5t-8 -9.5q-6 -39 -26 -55t-75 -16h-174l289 387v34h-346l-5 -108q0 -7 4.5 -10.5t10.5 -1t9 10.5q13 41 31 55t67 14h155l-294 -388v-35h374z" />
<glyph unicode="{" horiz-adv-x="450" d="M411 755q-114 -9 -169 -100q-18 -30 -17 -67.5t11.5 -69t14 -71t-8.5 -73.5q-12 -32 -37.5 -47.5t-64.5 -26.5v-12q112 -40 112 -124q0 -22 -7.5 -54.5t-14 -57.5t-5 -57.5t16.5 -61.5q25 -49 76.5 -75.5t92.5 -24.5q7 0 10 6t0 12t-11 6q-85 17 -108 95 q-10 38 -2.5 88.5t12.5 80.5t-18 77q-26 42 -49 60t-64 36q45 21 69.5 40.5t45.5 55.5q17 30 14 76.5t-11.5 84t3.5 85.5q22 74 108 95q8 0 11 6t0 12t-10 6z" />
<glyph unicode="|" horiz-adv-x="333" d="M192 -143v890h-50v-890h50z" />
<glyph unicode="}" horiz-adv-x="450" d="M306 288v12q-25 7 -41 13.5t-34.5 22.5t-26.5 38q-13 33 -9 73.5t14.5 71t11.5 69t-17 67.5q-55 91 -169 100q-7 0 -10.5 -6t-1 -12t10.5 -6q88 -22 110 -95q10 -34 4 -85.5t-10.5 -84t14.5 -76.5q21 -36 45.5 -56t68.5 -41q-40 -18 -64 -37t-50 -61q-21 -33 -18 -76.5 t12.5 -79t-2.5 -87.5q-9 -32 -37.5 -59t-73.5 -36q-8 0 -10 -6t1.5 -12t10.5 -6q41 -2 92.5 24.5t76.5 75.5q15 29 16.5 61.5t-5 57.5t-14 57.5t-7.5 54.5q0 84 112 124z" />
<glyph unicode="~" horiz-adv-x="585" d="M59 255h50v46q0 34 15.5 52.5t37.5 18.5q5 0 10 -0.5t10.5 -3t8.5 -3.5t8.5 -5t8 -5.5t9 -7t8.5 -6.5l110 -81q20 -15 29.5 -21t25.5 -12.5t32 -6.5q33 0 56 13t32 33.5t12.5 36.5t3.5 31v58h-50v-41q0 -81 -50 -81q-9 0 -16.5 1.5t-15.5 6t-12 7t-13.5 10t-12.5 9.5 l-107 79q-53 41 -92 40q-50 -1 -74 -34t-24 -81v-53z" />
<glyph unicode="&#xac00;" horiz-adv-x="910" d="M101 620q-29 0 -29 -25q0 -26 28 -26h283q-26 -103 -121 -209.5t-190 -163.5q-6 -4 -7.5 -13t2.5 -13q8 -12 27 -3q120 56 230 172t136 243q3 14 -6.5 26t-28.5 12h-324zM711 724q0 18 -9.5 29.5t-26.5 11.5h-90q-27 0 -27 -18q0 -13 34 -19q29 -5 43.5 -17t14.5 -39 v-771h15q46 0 46 90v395h166q23 0 23 24q0 26 -23 26h-166v288z" />
<glyph unicode="&#xac01;" horiz-adv-x="910" d="M101 665q-29 0 -29 -26q0 -24 28 -24h283q-31 -98 -129.5 -187t-191.5 -133q-6 -3 -7.5 -11.5t2.5 -15.5q8 -9 26 -3q75 26 154 78.5t144 130t79 153.5q2 14 -7.5 26t-27.5 12h-324zM711 724q0 18 -9.5 29.5t-26.5 11.5h-90q-27 0 -27 -18q0 -13 34 -19q29 -5 43.5 -16.5 t14.5 -39.5v-435h15q46 0 46 89v145h166q23 0 23 25t-23 25h-166v203zM700 138q0 38 -37 38h-405q-9 0 -15 -7.5t-6 -18.5q0 -10 6 -17.5t15 -7.5h381v-278h16q19 0 32 23t13 66v202z" />
<glyph unicode="&#xac04;" horiz-adv-x="910" d="M101 660q-29 0 -29 -26q0 -25 28 -25h283q-31 -96 -130 -196.5t-190 -146.5q-7 -4 -8.5 -13.5t2.5 -13.5q7 -10 27 -3q122 48 238 160.5t138 225.5q2 14 -7.5 26t-27.5 12h-324zM711 724q0 41 -36 41h-90q-27 0 -27 -17q0 -14 34 -20q29 -5 43.5 -16.5t14.5 -39.5v-569 h15q46 0 46 90v253h166q23 0 23 25q0 26 -23 26h-166v227zM274 -77q-1 -47 21 -64t74 -17h339q13 0 21 8t8 19q0 10 -8 17.5t-22 7.5h-349q-23 0 -23 25v183q0 19 -10 30.5t-27 11.5h-79q-28 0 -28 -18q0 -9 5.5 -13t26.5 -8q28 -8 39.5 -18.5t11.5 -36.5v-127z" />
<glyph unicode="&#xac07;" horiz-adv-x="910" d="M101 665q-29 0 -29 -26q0 -24 28 -24h283q-31 -98 -129.5 -187t-191.5 -133q-6 -3 -7.5 -11.5t2.5 -15.5q8 -9 26 -3q75 26 154 78.5t144 130t79 153.5q2 14 -7.5 26t-27.5 12h-324zM711 724q0 18 -9.5 29.5t-26.5 11.5h-90q-27 0 -27 -18q0 -13 34 -19q29 -5 43.5 -16.5 t14.5 -39.5v-435h15q46 0 46 89v145h166q23 0 23 25t-23 25h-166v203zM680 125q22 0 22 24q0 26 -22 26h-428q-23 0 -23 -16q0 -15 24 -21q23 -4 29.5 -18t6.5 -50v-169q0 -64 65 -64h332q26 0 26 26q0 25 -28 25h-308q-26 0 -26 27v210h330z" />
<glyph unicode="&#xac08;" horiz-adv-x="910" d="M101 675q-29 0 -29 -26q0 -25 28 -25h285q-31 -91 -132 -184t-190 -132q-6 -3 -8 -12t2 -14q6 -9 23 -4q68 21 148.5 73.5t149 131.5t83.5 154q3 14 -6.5 26t-28.5 12h-325zM711 723q0 41 -36 41h-90q-27 0 -27 -17q0 -7 7 -11t27 -9q29 -5 43.5 -16.5t14.5 -39.5v-392 h15q46 0 46 89v120h166q23 0 23 25t-23 25h-166v185zM257 55q-20 0 -20 -15t17 -19q22 -6 30 -15.5t8 -31.5v-69q0 -31 16.5 -49.5t47.5 -18.5h346q26 0 26 26q0 10 -7 17.5t-20 7.5h-316q-32 0 -32 29v89h307q35 0 35 43v134q0 37 -33 37h-374q-27 0 -27 -25q0 -10 7 -17.5 t20 -7.5h345v-115h-376z" />
<glyph unicode="&#xac09;" horiz-adv-x="910" d="M101 675q-29 0 -29 -26q0 -25 28 -25h285q-31 -91 -132 -184t-190 -132q-6 -3 -8 -12t2 -14q6 -9 23 -4q68 21 148.5 73.5t149 131.5t83.5 154q3 14 -6.5 26t-28.5 12h-325zM711 723q0 41 -36 41h-90q-27 0 -27 -17q0 -7 7 -11t27 -9q29 -5 43.5 -16.5t14.5 -39.5v-392 h15q46 0 46 89v120h166q23 0 23 25t-23 25h-166v185zM140 53q-19 0 -19 -14q0 -13 14 -18q18 -7 24.5 -17t6.5 -32v-68q0 -30 16.5 -48.5t47.5 -18.5h196q26 0 26 26q0 25 -27 25h-167q-31 0 -31 29v87h158q34 0 34 43v132q0 37 -32 37h-222q-27 0 -27 -25q0 -26 28 -26h192 v-112h-218zM711 179q0 37 -36 37h-195q-22 0 -22 -25q0 -26 23 -26h169v-328h17q19 0 31.5 22.5t12.5 65.5v254z" />
<glyph unicode="&#xac0a;" horiz-adv-x="910" d="M101 675q-29 0 -29 -26q0 -25 28 -25h285q-31 -91 -132 -184t-190 -132q-6 -3 -8 -12t2 -14q6 -9 23 -4q68 21 148.5 73.5t149 131.5t83.5 154q3 14 -6.5 26t-28.5 12h-325zM711 723q0 41 -36 41h-90q-27 0 -27 -17q0 -7 7 -11t27 -9q29 -5 43.5 -16.5t14.5 -39.5v-392 h15q46 0 46 89v120h166q23 0 23 25t-23 25h-166v185zM100 53q-21 0 -21 -14q0 -13 17 -19q18 -6 23.5 -16t5.5 -32v-68q0 -30 16.5 -48.5t47.5 -18.5h197q26 0 26 26q0 25 -27 25h-167q-31 0 -31 29v87h157q35 0 35 43v132q0 37 -33 37h-222q-26 0 -26 -25q0 -10 7 -18 t20 -8h193v-112h-218zM650 165v-261h-142q2 11 2 34v227h140zM709 -147q22 0 22 26q0 24 -24 24h-8q12 26 12 72v208q0 33 -32 33h-248q-27 0 -27 -15q0 -12 18 -19q16 -7 21.5 -16t5.5 -34v-305h18q18 0 26 26h216z" />
<glyph unicode="&#xac10;" horiz-adv-x="910" d="M101 665q-29 0 -29 -26q0 -24 28 -24h283q-31 -98 -129.5 -187t-191.5 -133q-6 -3 -7.5 -11.5t2.5 -15.5q8 -9 26 -3q75 26 154 78.5t144 130t79 153.5q2 14 -7.5 26t-27.5 12h-324zM711 724q0 18 -9.5 29.5t-26.5 11.5h-90q-27 0 -27 -18q0 -13 34 -19q29 -5 43.5 -16.5 t14.5 -39.5v-435h15q46 0 46 89v145h166q23 0 23 25t-23 25h-166v203zM634 123v-228h-295q4 28 4 34v194h291zM693 -156q21 0 21 25t-23 25h-9q13 27 13 76v170q0 33 -31 33h-417q-25 0 -25 -16q0 -14 23 -20q21 -6 29 -16t8 -36v-268h18q16 0 27 27h366z" />
<glyph unicode="&#xac11;" horiz-adv-x="910" d="M101 675q-29 0 -29 -26q0 -25 28 -25h285q-31 -91 -132 -184t-190 -132q-6 -3 -8 -12t2 -14q6 -9 23 -4q68 21 148.5 73.5t149 131.5t83.5 154q3 14 -6.5 26t-28.5 12h-325zM711 723q0 41 -36 41h-90q-27 0 -27 -17q0 -7 7 -11t27 -9q29 -5 43.5 -16.5t14.5 -39.5v-392 h15q46 0 46 89v120h166q23 0 23 25t-23 25h-166v185zM343 24h291v-128h-291v128zM693 -155q21 0 21 24q0 26 -25 26h-7q13 26 13 71v223q0 39 -35 39h-65q-15 0 -20.5 -3.5t-5.5 -12.5q0 -8 5.5 -12t21.5 -7q11 -3 16 -5t11 -6.5t8.5 -13t2.5 -21.5v-72h-291v79q0 39 -32 39 h-68q-14 0 -19.5 -3t-5.5 -12t4 -13t18 -6q24 -5 33 -14.5t9 -33.5v-292h13q23 0 34 26h364z" />
<glyph unicode="&#xac12;" horiz-adv-x="910" d="M101 675q-29 0 -29 -26q0 -25 28 -25h285q-31 -91 -132 -184t-190 -132q-6 -3 -8 -12t2 -14q6 -9 23 -4q68 21 148.5 73.5t149 131.5t83.5 154q3 14 -6.5 26t-28.5 12h-325zM711 723q0 41 -36 41h-90q-27 0 -27 -17q0 -7 7 -11t27 -9q29 -5 43.5 -16.5t14.5 -39.5v-392 h15q46 0 46 89v120h166q23 0 23 25t-23 25h-166v185zM649 61q24 60 27 103q2 26 -5.5 39.5t-34.5 13.5h-72q-27 0 -27 -17q0 -6 3 -9t6.5 -4t12.5 -3q20 -4 30 -9.5t11.5 -9.5t1.5 -12q-2 -53 -41 -144t-87 -142v1q0 25 -25 25h-7q13 25 13 71v214q0 39 -34 39h-66 q-25 0 -25 -16q0 -8 5 -12t21 -7q21 -5 29.5 -14t8.5 -33v-69h-174v84q0 39 -33 39h-65q-25 0 -25 -15q0 -9 4 -12.5t19 -6.5q21 -5 31 -14.5t10 -33.5v-291h14q23 0 34 27h244q11 0 15 6q2 -8 8 -10.5t17 4.5q72 51 134 171l140 -156q13 -15 33 -9q21 13 20 34 q-1 15 -19 33zM220 15h174v-121h-174v121z" />
<glyph unicode="&#xac13;" horiz-adv-x="910" d="M101 665q-29 0 -29 -26q0 -24 28 -24h283q-31 -98 -129.5 -187t-191.5 -133q-6 -3 -7.5 -11.5t2.5 -15.5q8 -9 26 -3q75 26 154 78.5t144 130t79 153.5q2 14 -7.5 26t-27.5 12h-324zM711 724q0 18 -9.5 29.5t-26.5 11.5h-90q-27 0 -27 -18q0 -13 34 -19q29 -6 43.5 -17.5 t14.5 -38.5v-488h15q46 0 46 90v183h166q23 0 23 25t-23 25h-166v217zM493 68q25 44 31 83q8 57 -41 57h-72q-16 0 -21 -3.5t-5 -12.5q0 -13 21 -18q28 -4 35.5 -10.5t5.5 -19.5q-15 -70 -86 -154t-136 -123q-10 -6 -10.5 -15t7 -12.5t19.5 0.5q52 21 116 73.5t109 113.5 l214 -174q14 -11 33 -3q20 8 20 32q0 18 -20 32z" />
<glyph unicode="&#xac14;" horiz-adv-x="910" d="M101 671q-29 0 -29 -26q0 -25 28 -25h283q-19 -63 -79.5 -133t-125 -117.5t-117.5 -71.5q-6 -3 -7 -12t3 -14q7 -9 27 -2q70 23 148.5 75.5t145.5 131.5t82 156q3 14 -6.5 26t-28.5 12h-324zM711 724q0 18 -9.5 29.5t-26.5 11.5h-90q-27 0 -27 -18q0 -13 34 -19 q29 -5 43.5 -17t14.5 -39v-415h15q46 0 46 90v131h166q23 0 23 24q0 25 -23 25h-166v197zM425 -104q-25 -30 -47 -48q-16 -13 -6 -23t28 1q90 56 167 179l165 -150q13 -12 31 -7q23 7 23 32q0 19 -21 35l-174 133q29 57 34 104q3 26 -5 39t-36 13h-73q-15 0 -20 -3.5 t-5 -12.5q0 -4 1 -6.5t3.5 -4t4 -2.5t6.5 -2t7 -2q27 -8 35 -13.5t7 -17.5q-9 -80 -89 -196l-116 95q29 55 33 92q3 25 -5 38t-37 13h-74q-15 0 -20 -3t-5 -11q0 -7 3.5 -10.5t7 -4.5t13.5 -3q21 -5 31.5 -14t8.5 -20q-7 -51 -58 -132t-102 -118q-17 -13 -10 -24t25 -3 q36 17 82 62t83 99z" />
<glyph unicode="&#xac15;" horiz-adv-x="910" d="M101 665q-29 0 -29 -26q0 -24 28 -24h283q-31 -98 -129.5 -187t-191.5 -133q-6 -3 -7.5 -11.5t2.5 -15.5q8 -9 26 -3q75 26 154 78.5t144 130t79 153.5q2 14 -7.5 26t-27.5 12h-324zM711 724q0 18 -9.5 29.5t-26.5 11.5h-90q-27 0 -27 -18q0 -13 34 -19q29 -5 43.5 -16.5 t14.5 -39.5v-435h15q46 0 46 89v145h166q23 0 23 25t-23 25h-166v203zM281 32q0 -80 60.5 -137.5t146.5 -57.5t147 57t61 138q0 82 -60 139t-148 57q-87 0 -147 -57t-60 -139zM344 32q0 59 43 101.5t101 42.5q59 0 102 -42t43 -102q0 -59 -42.5 -101t-102.5 -42 q-59 0 -101.5 42t-42.5 101z" />
<glyph unicode="&#xac16;" horiz-adv-x="910" d="M101 671q-29 0 -29 -26q0 -25 28 -25h283q-19 -63 -79.5 -133t-125 -117.5t-117.5 -71.5q-6 -3 -7 -12t3 -14q7 -9 27 -2q70 23 148.5 75.5t145.5 131.5t82 156q3 14 -6.5 26t-28.5 12h-324zM711 724q0 18 -9.5 29.5t-26.5 11.5h-90q-27 0 -27 -18q0 -13 34 -19 q29 -5 43.5 -17t14.5 -39v-415h15q46 0 46 90v131h166q23 0 23 24q0 25 -23 25h-166v197zM544 7q75 72 97 140q6 18 -2.5 32.5t-28.5 14.5h-328q-8 0 -14 -7t-6 -17q0 -12 6 -19.5t14 -7.5h280q-36 -75 -132.5 -156.5t-181.5 -114.5q-20 -7 -12 -28q8 -12 27 -6 q119 34 237 130l185 -126q13 -9 33 -1t20 32t-20 35z" />
<glyph unicode="&#xac17;" horiz-adv-x="910" d="M101 675q-29 0 -29 -26q0 -25 28 -25h285q-31 -91 -132 -184t-190 -132q-6 -3 -8 -12t2 -14q6 -9 23 -4q68 21 148.5 73.5t149 131.5t83.5 154q3 14 -6.5 26t-28.5 12h-325zM711 724q0 18 -9.5 29.5t-26.5 11.5h-90q-27 0 -27 -18q0 -13 34 -19q29 -5 43.5 -16.5 t14.5 -39.5v-435h15q46 0 46 89v162h166q23 0 23 25t-23 25h-166v186zM395 219q22 -14 62 -14h80q30 0 30 25q0 27 -33 27q-55 0 -87 4.5t-70 21.5q-19 7 -30 -4q-6 -7 -5 -17t8 -15zM553 -24q81 63 99 120q6 18 -2.5 33.5t-29.5 15.5h-335q-8 0 -14.5 -7t-6.5 -17 q0 -12 6 -19.5t15 -7.5h289q-41 -66 -142.5 -133.5t-187.5 -92.5q-7 -2 -10.5 -9t1.5 -18q5 -7 24 -4q121 24 244 103l189 -96q14 -8 35 -2q18 9 19 31q2 24 -24 34z" />
<glyph unicode="&#xac19;" horiz-adv-x="910" d="M101 675q-29 0 -29 -26q0 -25 28 -25h285q-31 -91 -132 -184t-190 -132q-6 -3 -8 -12t2 -14q6 -9 23 -4q68 21 148.5 73.5t149 131.5t83.5 154q3 14 -6.5 26t-28.5 12h-325zM711 723q0 41 -36 41h-90q-27 0 -27 -17q0 -7 7 -11t27 -9q29 -5 43.5 -16.5t14.5 -39.5v-392 h15q46 0 46 89v120h166q23 0 23 25t-23 25h-166v185zM682 165q10 0 16.5 7.5t6.5 18.5q0 25 -23 25h-412q-23 0 -23 -17q0 -14 23 -20q23 -4 30 -18t7 -50v-200q0 -64 65 -64h317q26 0 26 25q0 26 -28 26h-294q-25 0 -25 27v85h301q26 0 26 25t-27 25h-300v105h314z" />
<glyph unicode="&#xac1a;" horiz-adv-x="910" d="M101 665q-29 0 -29 -26q0 -24 28 -24h283q-31 -98 -129.5 -187t-191.5 -133q-6 -3 -7.5 -11.5t2.5 -15.5q8 -9 26 -3q75 26 154 78.5t144 130t79 153.5q2 14 -7.5 26t-27.5 12h-324zM711 724q0 18 -9.5 29.5t-26.5 11.5h-90q-27 0 -27 -18q0 -13 34 -19q29 -5 43.5 -16.5 t14.5 -39.5v-435h15q46 0 46 89v145h166q23 0 23 25t-23 25h-166v203zM245 170q-25 0 -25 -26q0 -24 25 -24h80v-232h-81q-12 0 -18 -8t-6 -17q0 -26 23 -26h461q25 0 25 26q0 8 -7 16.5t-19 8.5h-79v232h82q11 0 17 8t6 17q0 10 -6.5 17.5t-16.5 7.5h-461zM563 120v-232 h-177v232h177z" />
<glyph unicode="&#xac1b;" horiz-adv-x="910" d="M101 675q-29 0 -29 -26q0 -25 28 -25h285q-31 -91 -132 -184t-190 -132q-6 -3 -8 -12t2 -14q6 -9 23 -4q68 21 148.5 73.5t149 131.5t83.5 154q3 14 -6.5 26t-28.5 12h-325zM711 724q0 18 -9.5 29.5t-26.5 11.5h-90q-27 0 -27 -18q0 -13 34 -19q29 -5 43.5 -16.5 t14.5 -39.5v-435h15q46 0 46 89v162h166q23 0 23 25t-23 25h-166v186zM392 209q21 -14 61 -14h87q30 0 30 25q0 26 -33 26q-94 0 -163 29q-20 9 -29 -3q-8 -8 -7 -18t10 -16zM254 132q-12 0 -18.5 -7.5t-6.5 -18.5q0 -25 25 -25h101q-54 -42 -54 -110q-1 -59 46 -100 t124 -41q76 0 122 40t47 101q0 67 -57 110h104q26 0 26 25q0 26 -26 26h-433zM364 -25q0 39 29.5 68t77.5 29q45 0 74.5 -29t29.5 -68t-28.5 -69t-75.5 -30q-50 0 -78.5 30.5t-28.5 68.5z" />
<glyph unicode="&#xac1c;" horiz-adv-x="890" d="M96 620q-29 0 -29 -25q0 -26 28 -26h232q-21 -93 -103 -200.5t-171 -170.5q-6 -4 -8 -14t1 -15q8 -12 28 -2q106 56 209 178t120 236q2 15 -7.5 27t-29.5 12h-270zM786 724q0 18 -9.5 29.5t-26.5 11.5h-89q-28 0 -28 -18q0 -13 34 -19q29 -5 43.5 -17t14.5 -39v-229h-146 v238q0 19 -9.5 30.5t-26.5 11.5h-90q-26 0 -26 -18q0 -14 34 -20q29 -5 43.5 -16.5t14.5 -38.5v-680h15q45 0 45 90v353h146v-493h15q46 0 46 90v734z" />
<glyph unicode="&#xac1d;" horiz-adv-x="890" d="M98 655q-29 0 -29 -25t28 -25h231q-19 -86 -102.5 -185t-167.5 -147q-5 -3 -6.5 -11.5t2.5 -13.5q8 -10 28 -2q101 44 202.5 152.5t121.5 218.5q2 15 -7.5 26.5t-29.5 11.5h-271zM786 724q0 18 -9.5 29.5t-26.5 11.5h-89q-28 0 -28 -18q0 -13 34 -19q29 -5 43.5 -16.5 t14.5 -39.5v-165h-148v174q0 19 -9.5 30.5t-26.5 11.5h-90q-26 0 -26 -18q0 -14 34 -20q30 -5 44 -16t14 -39v-383h15q45 0 45 90v120h148v-220h15q46 0 46 89v398zM767 138q0 38 -37 38h-415q-9 0 -15 -7.5t-6 -18.5q0 -10 6 -17.5t15 -7.5h391v-288h16q19 0 32 23t13 66 v212z" />
<glyph unicode="&#xac20;" horiz-adv-x="890" d="M98 648q-29 0 -29 -26q0 -24 28 -24h231q-20 -88 -101.5 -182t-169.5 -150q-16 -11 -6 -26q8 -10 28 -2q106 48 206.5 156.5t120.5 215.5q3 14 -7 26t-30 12h-271zM786 723q0 41 -36 41h-89q-28 0 -28 -17q0 -14 34 -20q29 -5 43.5 -16.5t14.5 -39.5v-189h-148v200 q0 42 -36 42h-90q-26 0 -26 -17q0 -15 34 -21q30 -5 44 -16t14 -39v-519h15q45 0 45 91v229h148v-341h15q46 0 46 91v541zM325 -77q-1 -47 21 -64t75 -17h337q15 0 22.5 8t7.5 19q0 25 -31 25h-347q-24 0 -24 25v182q0 42 -37 42h-78q-28 0 -28 -18q0 -9 5.5 -13t26.5 -8 q28 -8 39 -18t11 -37v-126z" />
<glyph unicode="&#xac24;" horiz-adv-x="890" d="M97 660q-15 0 -22 -8t-7 -18q0 -26 28 -26h231q-23 -88 -105.5 -179t-165.5 -136q-6 -4 -7.5 -12.5t2.5 -12.5q8 -10 28 -2q106 42 204.5 143t121.5 212q3 15 -7 27t-30 12h-271zM786 723q0 41 -36 41h-89q-28 0 -28 -17q0 -7 7 -11t27 -9q29 -5 43.5 -16.5t14.5 -39.5 v-144h-148v153q0 42 -36 42h-90q-26 0 -26 -17q0 -13 34 -21q30 -5 44 -16t14 -39v-350h15q45 0 45 89v110h148v-199h15q46 0 46 89v355zM319 54q-20 0 -20 -15t17 -19q22 -6 30 -15.5t8 -31.5v-68q0 -31 16.5 -49.5t47.5 -18.5h346q26 0 26 26q0 10 -7 17.5t-20 7.5h-316 q-32 0 -32 29v88h307q35 0 35 43v133q0 37 -33 37h-374q-27 0 -27 -25q0 -26 27 -26h345v-113h-376z" />
<glyph unicode="&#xac2c;" horiz-adv-x="890" d="M98 655q-29 0 -29 -25t28 -25h231q-19 -86 -102.5 -185t-167.5 -147q-5 -3 -6.5 -11.5t2.5 -13.5q8 -10 28 -2q101 44 202.5 152.5t121.5 218.5q2 15 -7.5 26.5t-29.5 11.5h-271zM786 724q0 18 -9.5 29.5t-26.5 11.5h-89q-28 0 -28 -18q0 -13 34 -19q29 -5 43.5 -16.5 t14.5 -39.5v-165h-148v174q0 19 -9.5 30.5t-26.5 11.5h-90q-26 0 -26 -18q0 -14 34 -20q30 -5 44 -16t14 -39v-383h15q45 0 45 90v120h148v-220h15q46 0 46 89v398zM696 121v-226h-295q4 26 4 33v193h291zM755 -157q21 0 21 25q0 26 -24 26h-8q13 26 13 75v169q0 34 -31 34 h-417q-25 0 -25 -16q0 -14 23 -20q21 -6 29 -16.5t8 -36.5v-267h19q15 0 26 27h366z" />
<glyph unicode="&#xac2d;" horiz-adv-x="890" d="M97 660q-15 0 -22 -8t-7 -18q0 -26 28 -26h231q-23 -88 -105.5 -179t-165.5 -136q-6 -4 -7.5 -12.5t2.5 -12.5q8 -10 28 -2q106 42 204.5 143t121.5 212q3 15 -7 27t-30 12h-271zM786 723q0 41 -36 41h-89q-28 0 -28 -17q0 -7 7 -11t27 -9q29 -5 43.5 -16.5t14.5 -39.5 v-144h-148v153q0 42 -36 42h-90q-26 0 -26 -17q0 -13 34 -21q30 -5 44 -16t14 -39v-350h15q45 0 45 89v110h148v-199h15q46 0 46 89v355zM415 22h291v-126h-291v126zM765 -155q21 0 21 24q0 26 -25 26h-7q13 26 13 71v221q0 39 -35 39h-65q-15 0 -20.5 -3.5t-5.5 -12.5 q0 -8 5 -11.5t22 -7.5q11 -3 16 -5t11 -6.5t8.5 -13t2.5 -21.5v-72h-291v79q0 39 -32 39h-68q-14 0 -19.5 -3t-5.5 -12t4 -13t18 -6q24 -5 33 -14.5t9 -33.5v-290h13q23 0 34 26h364z" />
<glyph unicode="&#xac2f;" horiz-adv-x="890" d="M98 655q-29 0 -29 -25t28 -25h231q-19 -86 -102.5 -185t-167.5 -147q-5 -3 -6.5 -11.5t2.5 -13.5q8 -10 28 -2q101 44 202.5 152.5t121.5 218.5q2 15 -7.5 26.5t-29.5 11.5h-271zM786 725q0 40 -36 40h-89q-28 0 -28 -17q0 -7 7 -11t27 -9q29 -5 43.5 -16.5t14.5 -39.5 v-165h-148v174q0 42 -36 42h-90q-26 0 -26 -17q0 -13 34 -21q30 -5 44 -16t14 -39v-382h15q45 0 45 90v119h148v-272h15q46 0 46 90v450zM543 68q25 46 31 83q8 57 -41 57h-72q-16 0 -21 -3.5t-5 -12.5q0 -13 21 -18q28 -4 35.5 -10.5t5.5 -19.5q-15 -70 -86 -154t-136 -123 q-10 -6 -10.5 -15t7 -12.5t19.5 0.5q52 21 116 73.5t109 113.5l214 -174q14 -11 33 -3q20 8 20 32q0 19 -20 33z" />
<glyph unicode="&#xac30;" horiz-adv-x="890" d="M98 658q-15 0 -22 -8t-7 -18q0 -26 28 -26h231q-20 -89 -101.5 -180.5t-170.5 -144.5q-15 -10 -5 -26q8 -10 28 -2q105 45 205 149.5t122 216.5q3 15 -7 27t-30 12h-271zM786 723q0 18 -9.5 29.5t-26.5 11.5h-89q-28 0 -28 -18q0 -13 34 -19q29 -5 43.5 -17t14.5 -39 v-154h-148v164q0 19 -9.5 30.5t-26.5 11.5h-90q-26 0 -26 -18q0 -14 34 -20q29 -5 43.5 -16.5t14.5 -38.5v-361h15q45 0 45 88v110h148v-210h15q46 0 46 90v376zM495 -103q-24 -30 -47 -49q-16 -13 -6 -23t28 1q95 60 168 182l164 -153q13 -12 31 -7q23 7 23 32q0 19 -21 35 l-172 137q28 59 32 100q3 26 -5 39t-36 13h-73q-15 0 -20 -3.5t-5 -12.5q0 -4 1 -6.5t3.5 -4t4 -2.5t6.5 -2t7 -2q27 -8 35 -13.5t7 -17.5q-9 -78 -88 -195l-116 96q28 51 32 90q3 25 -5 38t-37 13h-74q-15 0 -20 -3t-5 -11q0 -7 3.5 -10.5t7 -4.5t13.5 -3q21 -5 31.5 -14 t8.5 -20q-7 -51 -58 -132t-102 -118q-17 -13 -10 -24t25 -3q37 18 83.5 63t81.5 99z" />
<glyph unicode="&#xac31;" horiz-adv-x="890" d="M98 655q-29 0 -29 -25t28 -25h231q-19 -86 -102.5 -185t-167.5 -147q-5 -3 -6.5 -11.5t2.5 -13.5q8 -10 28 -2q101 44 202.5 152.5t121.5 218.5q2 15 -7.5 26.5t-29.5 11.5h-271zM786 724q0 18 -9.5 29.5t-26.5 11.5h-89q-28 0 -28 -18q0 -13 34 -19q29 -5 43.5 -16.5 t14.5 -39.5v-165h-148v174q0 19 -9.5 30.5t-26.5 11.5h-90q-26 0 -26 -18q0 -14 34 -20q30 -5 44 -16t14 -39v-383h15q45 0 45 90v120h148v-220h15q46 0 46 89v398zM360 27q0 -77 60 -133.5t143 -56.5t143 56.5t60 133.5t-60 134t-143 57q-85 0 -144 -56.5t-59 -134.5z M423 27q0 55 41.5 97t98.5 42t98.5 -42t41.5 -97t-41.5 -96.5t-98.5 -41.5t-98.5 41.5t-41.5 96.5z" />
<glyph unicode="&#xac38;" horiz-adv-x="910" d="M101 620q-29 0 -29 -25q0 -26 28 -26h283q-26 -103 -121 -209.5t-190 -163.5q-6 -4 -7.5 -13t2.5 -13q8 -12 27 -3q120 56 230 172t136 243q3 14 -6.5 26t-28.5 12h-324zM711 724q0 18 -9.5 29.5t-26.5 11.5h-90q-27 0 -27 -18q0 -13 34 -19q29 -5 43.5 -17t14.5 -39 v-772h15q46 0 46 90v242h166q23 0 23 25t-23 25h-166v196h166q23 0 23 25t-23 25h-166v196z" />
<glyph unicode="&#xac39;" horiz-adv-x="910" d="M101 665q-29 0 -29 -26q0 -24 28 -24h283q-31 -98 -129.5 -187t-191.5 -133q-6 -3 -7.5 -11.5t2.5 -15.5q8 -9 26 -3q75 26 154 78.5t144 130t79 153.5q2 14 -7.5 26t-27.5 12h-324zM877 554q23 0 23 25q0 26 -23 26h-166v119q0 18 -9.5 29.5t-26.5 11.5h-90 q-27 0 -27 -18q0 -13 34 -19q29 -5 43.5 -16.5t14.5 -39.5v-435h15q46 0 46 89v40h166q23 0 23 24q0 26 -23 26h-166v138h166zM700 138q0 38 -37 38h-405q-9 0 -15 -7.5t-6 -18.5q0 -10 6 -17.5t15 -7.5h381v-278h16q19 0 32 23t13 66v202z" />
<glyph unicode="&#xac3c;" horiz-adv-x="910" d="M101 660q-29 0 -29 -26q0 -25 28 -25h283q-31 -96 -130 -196.5t-190 -146.5q-7 -4 -8.5 -13.5t2.5 -13.5q7 -10 27 -3q122 48 238 160.5t138 225.5q2 14 -7.5 26t-27.5 12h-324zM877 527q23 0 23 26t-23 26h-166v145q0 41 -36 41h-90q-27 0 -27 -17q0 -14 34 -20 q29 -5 43.5 -16.5t14.5 -39.5v-579h15q46 0 46 90v125h166q23 0 23 26q0 24 -23 24h-166v169h166zM274 -77q-1 -47 21 -64t74 -17h339q13 0 21 8t8 19q0 10 -8 17.5t-22 7.5h-349q-23 0 -23 25v183q0 19 -10 30.5t-27 11.5h-79q-28 0 -28 -18q0 -9 5.5 -13t26.5 -8 q28 -8 39.5 -18.5t11.5 -36.5v-127z" />
<glyph unicode="&#xac40;" horiz-adv-x="910" d="M101 675q-29 0 -29 -26q0 -25 28 -25h285q-31 -91 -132 -184t-190 -132q-6 -3 -8 -12t2 -14q6 -9 23 -4q68 21 148.5 73.5t149 131.5t83.5 154q3 14 -6.5 26t-28.5 12h-325zM877 567q23 0 23 26t-23 26h-166v105q0 41 -36 41h-90q-27 0 -27 -17q0 -7 7 -11t27 -9 q29 -5 43.5 -16.5t14.5 -39.5v-393h15q46 0 46 89v22h166q23 0 23 25q0 26 -23 26h-166v126h166zM257 55q-20 0 -20 -15t17 -19q22 -6 30 -15.5t8 -31.5v-69q0 -31 16.5 -49.5t47.5 -18.5h346q26 0 26 26q0 10 -7 17.5t-20 7.5h-316q-32 0 -32 29v89h307q35 0 35 43v134 q0 37 -33 37h-374q-27 0 -27 -25q0 -10 7 -17.5t20 -7.5h345v-115h-376z" />
<glyph unicode="&#xac4b;" horiz-adv-x="910" d="M101 665q-29 0 -29 -26q0 -24 28 -24h283q-31 -98 -129.5 -187t-191.5 -133q-6 -3 -7.5 -11.5t2.5 -15.5q8 -9 26 -3q75 26 154 78.5t144 130t79 153.5q2 14 -7.5 26t-27.5 12h-324zM877 547q23 0 23 25t-23 25h-166v127q0 18 -9.5 29.5t-26.5 11.5h-90q-27 0 -27 -18 q0 -13 34 -19q29 -6 43.5 -17.5t14.5 -38.5v-488h15q46 0 46 90v75h166q23 0 23 26q0 25 -23 25h-166v147h166zM493 68q25 44 31 83q8 57 -41 57h-72q-16 0 -21 -3.5t-5 -12.5q0 -13 21 -18q28 -4 35.5 -10.5t5.5 -19.5q-15 -70 -86 -154t-136 -123q-10 -6 -10.5 -15 t7 -12.5t19.5 0.5q52 21 116 73.5t109 113.5l214 -174q14 -11 33 -3q20 8 20 32q0 18 -20 32z" />
<glyph unicode="&#xac4d;" horiz-adv-x="910" d="M101 665q-29 0 -29 -26q0 -24 28 -24h283q-31 -98 -129.5 -187t-191.5 -133q-6 -3 -7.5 -11.5t2.5 -15.5q8 -9 26 -3q75 26 154 78.5t144 130t79 153.5q2 14 -7.5 26t-27.5 12h-324zM877 554q23 0 23 25q0 26 -23 26h-166v119q0 18 -9.5 29.5t-26.5 11.5h-90 q-27 0 -27 -18q0 -13 34 -19q29 -5 43.5 -16.5t14.5 -39.5v-435h15q46 0 46 89v40h166q23 0 23 24q0 26 -23 26h-166v138h166zM281 32q0 -80 60.5 -137.5t146.5 -57.5t147 57t61 138q0 82 -60 139t-148 57q-87 0 -147 -57t-60 -139zM344 32q0 59 43 101.5t101 42.5 q59 0 102 -42t43 -102q0 -59 -42.5 -101t-102.5 -42q-59 0 -101.5 42t-42.5 101z" />
<glyph unicode="&#xac54;" horiz-adv-x="890" d="M96 620q-29 0 -29 -25q0 -26 28 -26h232q-21 -93 -103 -200.5t-171 -170.5q-6 -4 -8 -14t1 -15q8 -12 28 -2q106 56 209 178t120 236q2 15 -7.5 27t-29.5 12h-270zM786 724q0 18 -9.5 29.5t-26.5 11.5h-89q-28 0 -28 -18q0 -13 34 -19q29 -5 43.5 -17t14.5 -39v-134h-148 v143q0 19 -9.5 30.5t-26.5 11.5h-90q-26 0 -26 -18q0 -14 34 -20q29 -5 43.5 -16.5t14.5 -38.5v-680h15q45 0 45 90v207h148v-347h15q46 0 46 90v734zM725 298h-148v188h148v-188z" />
<glyph unicode="&#xac58;" horiz-adv-x="890" d="M98 648q-29 0 -29 -26q0 -24 28 -24h231q-20 -88 -101.5 -182t-169.5 -150q-16 -11 -6 -26q8 -10 28 -2q106 48 206.5 156.5t120.5 215.5q3 14 -7 26t-30 12h-271zM786 724q0 41 -36 41h-89q-28 0 -28 -17q0 -14 34 -20q29 -5 43.5 -16.5t14.5 -39.5v-122h-148v132 q0 42 -36 42h-90q-26 0 -26 -17q0 -15 34 -21q30 -5 44 -16t14 -39v-519h15q45 0 45 91v95h148v-207h15q46 0 46 91v542zM725 348h-148v151h148v-151zM325 -77q-1 -47 21 -64t75 -17h337q15 0 22.5 8t7.5 19q0 25 -31 25h-347q-24 0 -24 25v182q0 42 -37 42h-78 q-28 0 -28 -18q0 -9 5.5 -13t26.5 -8q28 -8 39 -18t11 -37v-126z" />
<glyph unicode="&#xac5c;" horiz-adv-x="890" d="M97 660q-15 0 -22 -8t-7 -18q0 -26 28 -26h231q-23 -88 -105.5 -179t-165.5 -136q-6 -4 -7.5 -12.5t2.5 -12.5q8 -10 28 -2q106 42 204.5 143t121.5 212q3 15 -7 27t-30 12h-271zM786 724q0 41 -36 41h-89q-28 0 -28 -17q0 -7 7 -11t27 -9q29 -5 43.5 -16.5t14.5 -39.5 v-72h-148v80q0 42 -36 42h-90q-26 0 -26 -17q0 -13 34 -21q30 -5 44 -16t14 -39v-350h15q45 0 45 89v12h148v-101h15q46 0 46 89v356zM725 430h-148v120h148v-120zM319 54q-20 0 -20 -15t17 -19q22 -6 30 -15.5t8 -31.5v-68q0 -31 16.5 -49.5t47.5 -18.5h346q26 0 26 26 q0 10 -7 17.5t-20 7.5h-316q-32 0 -32 29v88h307q35 0 35 43v133q0 37 -33 37h-374q-27 0 -27 -25q0 -26 27 -26h345v-113h-376z" />
<glyph unicode="&#xac70;" horiz-adv-x="850" d="M101 620q-29 0 -29 -25q0 -26 28 -26h283q-26 -103 -121 -209.5t-190 -163.5q-6 -4 -7.5 -13t2.5 -13q8 -12 27 -3q120 56 230 172t136 243q3 14 -6.5 26t-28.5 12h-324zM732 724q0 18 -9.5 29.5t-27.5 11.5h-90q-27 0 -27 -18q0 -13 33 -19q30 -5 44.5 -17t14.5 -39 v-230h-229q-22 0 -22 -26q0 -25 21 -25h230v-491h15q47 0 47 90v734z" />
<glyph unicode="&#xac71;" horiz-adv-x="850" d="M101 665q-29 0 -29 -26q0 -24 28 -24h283q-31 -98 -129.5 -187t-191.5 -133q-6 -3 -7.5 -11.5t2.5 -15.5q8 -9 26 -3q75 26 154 78.5t144 130t79 153.5q2 14 -7.5 26t-27.5 12h-324zM439 465h231v-228h15q47 0 47 89v398q0 18 -9.5 29.5t-27.5 11.5h-90q-27 0 -27 -18 q0 -13 33 -19q30 -5 44.5 -16.5t14.5 -39.5v-156h-230q-22 0 -22 -25q0 -26 21 -26zM715 141q0 20 -8.5 29t-28.5 9h-404q-21 0 -21 -26q0 -10 6 -17.5t15 -7.5h380v-291h17q19 0 31.5 23t12.5 66v215z" />
<glyph unicode="&#xac74;" horiz-adv-x="850" d="M101 660q-29 0 -29 -26q0 -25 28 -25h283q-31 -96 -130 -196.5t-190 -146.5q-7 -4 -8.5 -13.5t2.5 -13.5q7 -10 27 -3q122 48 238 160.5t138 225.5q2 14 -7.5 26t-27.5 12h-324zM439 442h231v-349h15q47 0 47 90v540q0 42 -37 42h-90q-27 0 -27 -17q0 -14 33 -20 q30 -5 44.5 -16.5t14.5 -39.5v-179h-230q-22 0 -22 -26q0 -25 21 -25zM294 -77q-1 -47 21 -64t75 -17h327q15 0 22.5 8t7.5 19q0 25 -31 25h-337q-24 0 -24 25v182q0 42 -37 42h-78q-28 0 -28 -18q0 -9 5.5 -13t26.5 -8q28 -8 39 -18t11 -37v-126z" />
<glyph unicode="&#xac77;" horiz-adv-x="850" d="M101 665q-29 0 -29 -26q0 -24 28 -24h283q-31 -98 -129.5 -187t-191.5 -133q-6 -3 -7.5 -11.5t2.5 -15.5q8 -9 26 -3q75 26 154 78.5t144 130t79 153.5q2 14 -7.5 26t-27.5 12h-324zM439 465h231v-228h15q47 0 47 89v398q0 18 -9.5 29.5t-27.5 11.5h-90q-27 0 -27 -18 q0 -13 33 -19q30 -5 44.5 -16.5t14.5 -39.5v-156h-230q-22 0 -22 -25q0 -26 21 -26zM692 120q9 0 15 7t6 17q0 26 -21 26h-429q-22 0 -22 -16q0 -9 5 -13.5t18 -7.5q23 -4 29.5 -18t6.5 -50v-164q0 -64 65 -64h332q27 0 27 26q0 25 -28 25h-309q-26 0 -26 27v205h331z" />
<glyph unicode="&#xac78;" horiz-adv-x="850" d="M101 675q-29 0 -29 -26q0 -25 28 -25h285q-31 -91 -132 -184t-190 -132q-6 -3 -8 -12t2 -14q6 -9 23 -4q68 21 148.5 73.5t149 131.5t83.5 154q3 14 -6.5 26t-28.5 12h-325zM439 474h231v-195h15q47 0 47 89v356q0 18 -9.5 29.5t-27.5 11.5h-90q-27 0 -27 -17 q0 -7 6.5 -11t26.5 -9q30 -5 44.5 -16.5t14.5 -39.5v-148h-230q-22 0 -22 -25t21 -25zM273 55q-21 0 -21 -15t18 -19q21 -6 29.5 -15.5t8.5 -31.5v-70q0 -31 16.5 -49t47.5 -18h345q26 0 26 26q0 10 -7 17.5t-20 7.5h-316q-31 0 -31 29v89h306q35 0 35 43v134q0 37 -33 37 h-373q-27 0 -27 -25q0 -10 7 -17.5t21 -7.5h343v-115h-375z" />
<glyph unicode="&#xac7a;" horiz-adv-x="850" d="M101 675q-29 0 -29 -26q0 -25 28 -25h285q-31 -91 -132 -184t-190 -132q-6 -3 -8 -12t2 -14q6 -9 23 -4q68 21 148.5 73.5t149 131.5t83.5 154q3 14 -6.5 26t-28.5 12h-325zM439 474h231v-195h15q47 0 47 89v356q0 18 -9.5 29.5t-27.5 11.5h-90q-27 0 -27 -17 q0 -7 6.5 -11t26.5 -9q30 -5 44.5 -16.5t14.5 -39.5v-148h-230q-22 0 -22 -25t21 -25zM120 53q-21 0 -21 -14t16 -18q18 -7 23.5 -17t5.5 -32v-68q0 -30 17 -48.5t47 -18.5h198q25 0 25 26q0 25 -26 25h-168q-32 0 -32 29v87h158q35 0 35 43v132q0 37 -32 37h-223 q-25 0 -25 -25q0 -10 6.5 -18t19.5 -8h194v-112h-218zM671 165v-261h-144q2 11 2 34v227h142zM730 -147q21 0 21 26q0 24 -23 24h-8q12 26 12 72v208q0 33 -32 33h-249q-27 0 -27 -15q0 -12 17 -19q16 -7 21.5 -16t5.5 -34v-305h19q17 0 25 26h218z" />
<glyph unicode="&#xac80;" horiz-adv-x="850" d="M101 665q-29 0 -29 -26q0 -24 28 -24h283q-31 -98 -129.5 -187t-191.5 -133q-6 -3 -7.5 -11.5t2.5 -15.5q8 -9 26 -3q75 26 154 78.5t144 130t79 153.5q2 14 -7.5 26t-27.5 12h-324zM439 465h231v-228h15q47 0 47 89v398q0 18 -9.5 29.5t-27.5 11.5h-90q-27 0 -27 -18 q0 -13 33 -19q30 -5 44.5 -16.5t14.5 -39.5v-156h-230q-22 0 -22 -25q0 -26 21 -26zM654 117v-222h-295q4 26 4 33v189h291zM713 -157q22 0 22 25t-24 25h-7q11 29 11 76v165q0 34 -31 34h-416q-25 0 -25 -16q0 -15 22 -20q21 -6 29 -16.5t8 -36.5v-263h19q16 0 27 27h365z " />
<glyph unicode="&#xac81;" horiz-adv-x="850" d="M101 675q-29 0 -29 -26q0 -25 28 -25h285q-31 -91 -132 -184t-190 -132q-6 -3 -8 -12t2 -14q6 -9 23 -4q68 21 148.5 73.5t149 131.5t83.5 154q3 14 -6.5 26t-28.5 12h-325zM439 474h231v-195h15q47 0 47 89v356q0 18 -9.5 29.5t-27.5 11.5h-90q-27 0 -27 -17 q0 -7 6.5 -11t26.5 -9q30 -5 44.5 -16.5t14.5 -39.5v-148h-230q-22 0 -22 -25t21 -25zM363 23h291v-127h-291v127zM713 -155q22 0 22 24q0 26 -24 26h-8q12 28 12 71v223q0 38 -35 38h-66q-25 0 -25 -16q0 -14 27 -19q15 -4 21 -6.5t11.5 -12t5.5 -26.5v-73h-291v81 q0 39 -32 39h-68q-14 0 -19 -3t-5 -12t4 -13t17 -6q24 -5 33 -14.5t9 -33.5v-293h14q23 0 34 26h363z" />
<glyph unicode="&#xac83;" horiz-adv-x="850" d="M101 665q-29 0 -29 -26q0 -24 28 -24h283q-31 -98 -129.5 -187t-191.5 -133q-6 -3 -7.5 -11.5t2.5 -15.5q8 -9 26 -3q75 26 154 78.5t144 130t79 153.5q2 14 -7.5 26t-27.5 12h-324zM440 466h230v-282h15q47 0 47 90v450q0 18 -9.5 29.5t-27.5 11.5h-90q-27 0 -27 -18 q0 -13 33 -19q30 -6 44.5 -17.5t14.5 -38.5v-156h-229q-22 0 -22 -25t21 -25zM503 68q25 44 31 83q8 57 -41 57h-72q-16 0 -21 -3.5t-5 -12.5q0 -13 21 -18q28 -4 35.5 -10.5t5.5 -19.5q-15 -70 -86 -154t-136 -123q-10 -6 -10.5 -15t7 -12.5t19.5 0.5q52 21 116 73.5 t109 113.5l214 -174q14 -11 33 -3q20 8 20 32q0 18 -20 32z" />
<glyph unicode="&#xac84;" horiz-adv-x="850" d="M101 671q-29 0 -29 -26q0 -25 28 -25h283q-19 -63 -79.5 -133t-125 -117.5t-117.5 -71.5q-6 -3 -7 -12t3 -14q7 -9 27 -2q70 23 148.5 75.5t145.5 131.5t82 156q3 14 -6.5 26t-28.5 12h-324zM439 469h231v-212h15q47 0 47 90v377q0 18 -9.5 29.5t-27.5 11.5h-90 q-27 0 -27 -18q0 -13 33 -19q30 -5 44.5 -17t14.5 -39v-153h-230q-22 0 -22 -25t21 -25zM450 -104q-25 -30 -47 -48q-16 -13 -6 -23t28 1q90 55 168 181l164 -152q13 -12 31 -7q23 7 23 32q0 19 -21 35l-173 136q29 57 33 101q3 26 -5 39t-36 13h-73q-15 0 -20 -3.5 t-5 -13.5q0 -3 1 -5.5t3.5 -4t4 -2.5t6.5 -2t7 -2q27 -8 35 -13.5t7 -17.5q-9 -80 -89 -196l-116 95q29 55 33 92q3 25 -5 38t-37 13h-74q-15 0 -20 -3t-5 -11q0 -7 3.5 -10.5t7 -4.5t13.5 -3q21 -5 31.5 -14t8.5 -20q-7 -51 -58 -132t-102 -118q-17 -13 -10 -24t25 -3 q36 18 82.5 62.5t82.5 97.5z" />
<glyph unicode="&#xac85;" horiz-adv-x="850" d="M101 665q-29 0 -29 -26q0 -24 28 -24h283q-31 -98 -129.5 -187t-191.5 -133q-6 -3 -7.5 -11.5t2.5 -15.5q8 -9 26 -3q75 26 154 78.5t144 130t79 153.5q2 14 -7.5 26t-27.5 12h-324zM439 465h231v-228h15q47 0 47 89v398q0 18 -9.5 29.5t-27.5 11.5h-90q-27 0 -27 -18 q0 -13 33 -19q30 -5 44.5 -16.5t14.5 -39.5v-156h-230q-22 0 -22 -25q0 -26 21 -26zM310 27q0 -77 60 -133.5t143 -56.5t143 56.5t60 133.5t-60 134t-143 57q-85 0 -144 -56.5t-59 -134.5zM373 27q0 55 41.5 97t98.5 42t98.5 -42t41.5 -97t-41.5 -96.5t-98.5 -41.5 q-58 0 -99 41t-41 97z" />
<glyph unicode="&#xac86;" horiz-adv-x="850" d="M101 671q-29 0 -29 -26q0 -25 28 -25h283q-19 -63 -79.5 -133t-125 -117.5t-117.5 -71.5q-6 -3 -7 -12t3 -14q7 -9 27 -2q70 23 148.5 75.5t145.5 131.5t82 156q3 14 -6.5 26t-28.5 12h-324zM439 469h231v-212h15q47 0 47 90v377q0 18 -9.5 29.5t-27.5 11.5h-90 q-27 0 -27 -18q0 -13 33 -19q30 -5 44.5 -17t14.5 -39v-153h-230q-22 0 -22 -25t21 -25zM580 7q75 72 97 140q6 18 -2.5 32.5t-28.5 14.5h-328q-8 0 -14 -7t-6 -17q0 -12 6 -19.5t14 -7.5h280q-36 -75 -132.5 -156.5t-181.5 -114.5q-20 -7 -12 -28q8 -12 27 -6 q115 32 236 129l187 -127q12 -8 33 0q20 8 20 32t-20 35z" />
<glyph unicode="&#xac89;" horiz-adv-x="850" d="M101 675q-29 0 -29 -26q0 -25 28 -25h285q-31 -91 -132 -184t-190 -132q-6 -3 -8 -12t2 -14q6 -9 23 -4q68 21 148.5 73.5t149 131.5t83.5 154q3 14 -6.5 26t-28.5 12h-325zM439 474h231v-195h15q47 0 47 89v356q0 18 -9.5 29.5t-27.5 11.5h-90q-27 0 -27 -17 q0 -7 6.5 -11t26.5 -9q30 -5 44.5 -16.5t14.5 -39.5v-148h-230q-22 0 -22 -25t21 -25zM693 165q10 0 16 7.5t6 18.5q0 25 -22 25h-413q-23 0 -23 -17q0 -15 22 -19q24 -5 31 -19t7 -50v-200q0 -64 65 -64h318q26 0 26 25q0 26 -28 26h-295q-25 0 -25 27v85h300q27 0 27 25 t-27 25h-300v105h315z" />
<glyph unicode="&#xac8a;" horiz-adv-x="850" d="M101 665q-29 0 -29 -26q0 -24 28 -24h283q-31 -98 -129.5 -187t-191.5 -133q-6 -3 -7.5 -11.5t2.5 -15.5q8 -9 26 -3q75 26 154 78.5t144 130t79 153.5q2 14 -7.5 26t-27.5 12h-324zM439 465h231v-228h15q47 0 47 89v398q0 18 -9.5 29.5t-27.5 11.5h-90q-27 0 -27 -18 q0 -13 33 -19q30 -5 44.5 -16.5t14.5 -39.5v-156h-230q-22 0 -22 -25q0 -26 21 -26zM255 170q-24 0 -24 -26q0 -25 24 -25h81v-231h-82q-11 0 -17 -8t-6 -17q0 -26 22 -26h461q25 0 25 26q0 9 -6.5 17t-19.5 8h-79v231h82q23 0 23 26q0 25 -24 25h-460zM573 119v-231h-177 v231h177z" />
<glyph unicode="&#xac8b;" horiz-adv-x="850" d="M101 675q-29 0 -29 -26q0 -25 28 -25h285q-31 -91 -132 -184t-190 -132q-6 -3 -8 -12t2 -14q6 -9 23 -4q68 21 148.5 73.5t149 131.5t83.5 154q3 14 -6.5 26t-28.5 12h-325zM439 476h231v-229h15q47 0 47 90v387q0 18 -9.5 29.5t-27.5 11.5h-90q-27 0 -27 -18 q0 -13 33 -19q30 -5 44.5 -17t14.5 -39v-147h-230q-22 0 -22 -25q0 -24 21 -24zM412 209q21 -14 61 -14h87q30 0 30 25q0 26 -33 26q-94 0 -163 29q-20 9 -29 -3q-8 -8 -7 -18t10 -16zM274 130q-12 0 -18.5 -7.5t-6.5 -18.5q0 -25 25 -25h98q-52 -40 -52 -106 q-1 -60 46.5 -101.5t124.5 -41.5q76 0 122.5 40.5t47.5 102.5q0 64 -54 106h100q26 0 26 25q0 26 -26 26h-433zM383 -23q0 39 30 69t78 30q44 0 74.5 -30t30.5 -69t-29 -70t-76 -31q-50 0 -79 31.5t-29 69.5z" />
<glyph unicode="&#xac8c;" horiz-adv-x="890" d="M96 620q-29 0 -29 -25q0 -26 28 -26h232q-21 -93 -103 -200.5t-171 -170.5q-6 -4 -8 -14t1 -15q8 -12 28 -2q106 56 209 178t120 236q2 15 -7.5 27t-29.5 12h-270zM787 724q0 18 -9.5 29.5t-26.5 11.5h-90q-27 0 -27 -18q0 -13 34 -19q29 -5 43.5 -17t14.5 -39v-772h15 q46 0 46 90v734zM588 681q0 19 -9.5 30.5t-26.5 11.5h-90q-26 0 -26 -18q0 -14 34 -20q29 -5 43.5 -16.5t14.5 -38.5v-192h-143q-21 0 -21 -26q0 -24 20 -24h144v-438h15q45 0 45 90v641z" />
<glyph unicode="&#xac90;" horiz-adv-x="890" d="M98 648q-29 0 -29 -26q0 -24 28 -24h231q-20 -88 -101.5 -182t-169.5 -150q-16 -11 -6 -26q8 -10 28 -2q106 48 206.5 156.5t120.5 215.5q3 14 -7 26t-30 12h-271zM377 430h151v-318h15q45 0 45 91v478q0 43 -36 43h-90q-26 0 -26 -17q0 -15 34 -21q30 -5 44 -16t14 -39 v-152h-150q-21 0 -21 -24q0 -25 20 -25zM787 724q0 41 -36 41h-90q-27 0 -27 -17q0 -14 34 -20q29 -5 43.5 -16.5t14.5 -39.5v-581h15q46 0 46 91v542zM325 -77q-1 -47 21 -64t75 -17h337q15 0 22.5 8t7.5 19q0 25 -31 25h-347q-24 0 -24 25v182q0 42 -37 42h-78 q-28 0 -28 -18q0 -9 5.5 -13t26.5 -8q28 -8 39 -18t11 -37v-126z" />
<glyph unicode="&#xac94;" horiz-adv-x="890" d="M97 660q-15 0 -22 -8t-7 -18q0 -26 28 -26h231q-23 -88 -105.5 -179t-165.5 -136q-6 -4 -7.5 -12.5t2.5 -12.5q8 -10 28 -2q106 42 204.5 143t121.5 212q3 15 -7 27t-30 12h-271zM384 467h156v-188h15q45 0 45 89v312q0 19 -9.5 30.5t-26.5 11.5h-90q-26 0 -26 -17 q0 -13 34 -21q30 -5 44 -16t14 -39v-111h-155q-21 0 -21 -25q0 -26 20 -26zM787 723q0 41 -36 41h-90q-27 0 -27 -17q0 -7 7 -11t27 -9q29 -5 43.5 -16.5t14.5 -39.5v-402h15q46 0 46 89v365zM319 54q-20 0 -20 -15t17 -19q22 -6 30 -15.5t8 -31.5v-68q0 -31 16.5 -49.5 t47.5 -18.5h346q26 0 26 26q0 10 -7 17.5t-20 7.5h-316q-32 0 -32 29v88h307q35 0 35 43v133q0 37 -33 37h-374q-27 0 -27 -25q0 -26 27 -26h345v-113h-376z" />
<glyph unicode="&#xac9c;" horiz-adv-x="890" d="M98 655q-29 0 -29 -25t28 -25h231q-19 -86 -102.5 -185t-167.5 -147q-5 -3 -6.5 -11.5t2.5 -13.5q8 -10 28 -2q101 44 202.5 152.5t121.5 218.5q2 15 -7.5 26.5t-29.5 11.5h-271zM376 450h157v-207h15q45 0 45 90v348q0 19 -9.5 30.5t-26.5 11.5h-90q-26 0 -26 -18 q0 -14 34 -20q30 -5 44 -16t14 -39v-130h-156q-21 0 -21 -25t20 -25zM787 724q0 18 -9.5 29.5t-26.5 11.5h-90q-27 0 -27 -18q0 -13 34 -19q29 -5 43.5 -16.5t14.5 -39.5v-439h15q46 0 46 89v402zM696 121v-226h-295q4 26 4 33v193h291zM755 -157q21 0 21 25q0 26 -24 26h-8 q13 26 13 75v169q0 34 -31 34h-417q-25 0 -25 -16q0 -14 23 -20q21 -6 29 -16.5t8 -36.5v-267h19q15 0 26 27h366z" />
<glyph unicode="&#xac9d;" horiz-adv-x="890" d="M97 660q-15 0 -22 -8t-7 -18q0 -26 28 -26h231q-23 -88 -105.5 -179t-165.5 -136q-6 -4 -7.5 -12.5t2.5 -12.5q8 -10 28 -2q106 42 204.5 143t121.5 212q3 15 -7 27t-30 12h-271zM384 467h156v-188h15q45 0 45 89v312q0 19 -9.5 30.5t-26.5 11.5h-90q-26 0 -26 -17 q0 -13 34 -21q30 -5 44 -16t14 -39v-111h-155q-21 0 -21 -25q0 -26 20 -26zM787 723q0 41 -36 41h-90q-27 0 -27 -17q0 -7 7 -11t27 -9q29 -5 43.5 -16.5t14.5 -39.5v-402h15q46 0 46 89v365zM415 22h291v-126h-291v126zM765 -155q21 0 21 24q0 26 -25 26h-7q13 26 13 71 v221q0 39 -35 39h-65q-15 0 -20.5 -3.5t-5.5 -12.5q0 -8 5 -11.5t22 -7.5q11 -3 16 -5t11 -6.5t8.5 -13t2.5 -21.5v-72h-291v79q0 39 -32 39h-68q-14 0 -19.5 -3t-5.5 -12t4 -13t18 -6q24 -5 33 -14.5t9 -33.5v-290h13q23 0 34 26h364z" />
<glyph unicode="&#xac9f;" horiz-adv-x="890" d="M98 655q-29 0 -29 -25t28 -25h231q-19 -86 -102.5 -185t-167.5 -147q-5 -3 -6.5 -11.5t2.5 -13.5q8 -10 28 -2q101 44 202.5 152.5t121.5 218.5q2 15 -7.5 26.5t-29.5 11.5h-271zM384 453h154v-205h15q45 0 45 90v343q0 19 -9.5 30.5t-26.5 11.5h-90q-26 0 -26 -17 q0 -13 34 -21q30 -5 44 -16t14 -39v-128h-153q-21 0 -21 -25q0 -24 20 -24zM787 725q0 40 -36 40h-90q-27 0 -27 -17q0 -7 7 -11t27 -9q29 -5 43.5 -16.5t14.5 -39.5v-477h15q46 0 46 90v440zM543 68q25 46 31 83q8 57 -41 57h-72q-16 0 -21 -3.5t-5 -12.5q0 -13 21 -18 q28 -4 35.5 -10.5t5.5 -19.5q-15 -70 -86 -154t-136 -123q-10 -6 -10.5 -15t7 -12.5t19.5 0.5q52 21 116 73.5t109 113.5l214 -174q14 -11 33 -3q20 8 20 32q0 19 -20 33z" />
<glyph unicode="&#xaca0;" horiz-adv-x="890" d="M98 658q-15 0 -22 -8t-7 -18q0 -26 28 -26h231q-20 -89 -101.5 -180.5t-170.5 -144.5q-15 -10 -5 -26q8 -10 28 -2q105 45 205 149.5t122 216.5q3 15 -7 27t-30 12h-271zM376 457h160v-199h15q45 0 45 89v334q0 19 -9.5 30.5t-26.5 11.5h-90q-26 0 -26 -18q0 -14 34 -20 q29 -5 43.5 -16.5t14.5 -38.5v-123h-159q-21 0 -21 -24q0 -26 20 -26zM787 724q0 18 -9.5 29.5t-26.5 11.5h-90q-27 0 -27 -18q0 -13 34 -19q29 -5 43.5 -17t14.5 -39v-425h15q46 0 46 90v387zM495 -103q-24 -30 -47 -49q-16 -13 -6 -23t28 1q95 60 168 182l164 -153 q13 -12 31 -7q23 7 23 32q0 19 -21 35l-172 137q28 59 32 100q3 26 -5 39t-36 13h-73q-15 0 -20 -3.5t-5 -12.5q0 -4 1 -6.5t3.5 -4t4 -2.5t6.5 -2t7 -2q27 -8 35 -13.5t7 -17.5q-9 -78 -88 -195l-116 96q28 51 32 90q3 25 -5 38t-37 13h-74q-15 0 -20 -3t-5 -11 q0 -7 3.5 -10.5t7 -4.5t13.5 -3q21 -5 31.5 -14t8.5 -20q-7 -51 -58 -132t-102 -118q-17 -13 -10 -24t25 -3q37 18 83.5 63t81.5 99z" />
<glyph unicode="&#xaca1;" horiz-adv-x="890" d="M98 655q-29 0 -29 -25t28 -25h231q-19 -86 -102.5 -185t-167.5 -147q-5 -3 -6.5 -11.5t2.5 -13.5q8 -10 28 -2q101 44 202.5 152.5t121.5 218.5q2 15 -7.5 26.5t-29.5 11.5h-271zM376 450h157v-207h15q45 0 45 90v348q0 19 -9.5 30.5t-26.5 11.5h-90q-26 0 -26 -18 q0 -14 34 -20q30 -5 44 -16t14 -39v-130h-156q-21 0 -21 -25t20 -25zM787 724q0 18 -9.5 29.5t-26.5 11.5h-90q-27 0 -27 -18q0 -13 34 -19q29 -5 43.5 -16.5t14.5 -39.5v-439h15q46 0 46 89v402zM360 27q0 -77 60 -133.5t143 -56.5t143 56.5t60 133.5t-60 134t-143 57 q-85 0 -144 -56.5t-59 -134.5zM423 27q0 55 41.5 97t98.5 42t98.5 -42t41.5 -97t-41.5 -96.5t-98.5 -41.5t-98.5 41.5t-41.5 96.5z" />
<glyph unicode="&#xaca8;" horiz-adv-x="850" d="M101 620q-29 0 -29 -25q0 -26 28 -26h283q-26 -103 -121 -209.5t-190 -163.5q-6 -4 -7.5 -13t2.5 -13q8 -12 27 -3q98 45 194 135t144 194q2 -1 7 -1h231v-175h-235q-22 0 -22 -24q0 -25 21 -25h236v-371h15q47 0 47 90v733q0 18 -10 30t-26 12h-91q-27 0 -27 -18 q0 -13 33 -19q30 -5 44.5 -17t14.5 -39v-126h-219l9 36q3 14 -6.5 26t-28.5 12h-324z" />
<glyph unicode="&#xaca9;" horiz-adv-x="850" d="M101 665q-29 0 -29 -26q0 -24 28 -24h283q-31 -98 -129.5 -187t-191.5 -133q-6 -3 -7.5 -11.5t2.5 -15.5q8 -9 26 -3q102 35 207.5 119.5t149.5 180.5q6 -2 9 -2h221v-153h-225q-22 0 -22 -25q0 -26 21 -26h226v-132h15q47 0 47 89v407q0 18 -10 30t-27 12h-90 q-27 0 -27 -18q0 -13 33 -19q30 -5 44.5 -16.5t14.5 -39.5v-58h-213q1 2 2 6.5t1 6.5q2 14 -7.5 26t-27.5 12h-324zM715 141q0 20 -8.5 29t-28.5 9h-404q-21 0 -21 -26q0 -10 6 -17.5t15 -7.5h380v-291h17q19 0 31.5 23t12.5 66v215z" />
<glyph unicode="&#xacaa;" horiz-adv-x="850" d="M101 671q-29 0 -29 -26q0 -25 28 -25h283q-19 -63 -79.5 -133t-125 -117.5t-117.5 -71.5q-6 -3 -7 -12t3 -14q7 -9 27 -2q58 19 124.5 60.5t129.5 103t96 126.5q2 -1 5 -1h231v-134h-235q-22 0 -22 -26q0 -25 21 -25h236v-137h15q47 0 47 90v396q0 18 -10 30t-26 12h-91 q-27 0 -27 -18q0 -13 33 -19q30 -5 44.5 -17t14.5 -39v-63h-216l6 24q3 14 -6.5 26t-28.5 12h-324zM727 150q0 38 -37 38h-206q-9 0 -15 -7t-6 -17q0 -26 21 -26h182v-301h16q19 0 32 23t13 66v224zM434 150q0 38 -35 38h-219q-9 0 -15 -7.5t-6 -16.5q0 -11 6 -18.5t16 -7.5 h192v-301h17q18 0 31 23t13 66v224z" />
<glyph unicode="&#xacac;" horiz-adv-x="850" d="M101 660q-29 0 -29 -26q0 -25 28 -25h283q-31 -96 -130 -196.5t-190 -146.5q-7 -4 -8.5 -13.5t2.5 -13.5q7 -10 27 -3q101 40 203 127.5t148 184.5h235v-167h-235q-22 0 -22 -25q0 -26 21 -26h236v-237h15q47 0 47 90v541q0 19 -10 30.5t-27 11.5h-90q-27 0 -27 -17 q0 -14 33 -20q30 -5 44.5 -16.5t14.5 -39.5v-73h-215q4 13 5 22q2 14 -7.5 26t-27.5 12h-324zM294 -77q-1 -47 21 -64t75 -17h327q15 0 22.5 8t7.5 19q0 25 -31 25h-337q-24 0 -24 25v182q0 42 -37 42h-78q-28 0 -28 -18q0 -9 5.5 -13t26.5 -8q28 -8 39 -18t11 -37v-126z " />
<glyph unicode="&#xacaf;" horiz-adv-x="850" d="M101 665q-29 0 -29 -26q0 -24 28 -24h283q-31 -98 -129.5 -187t-191.5 -133q-6 -3 -7.5 -11.5t2.5 -15.5q8 -9 26 -3q102 35 207.5 119.5t149.5 180.5q6 -2 9 -2h221v-153h-225q-22 0 -22 -25q0 -26 21 -26h226v-132h15q47 0 47 89v407q0 18 -10 30t-27 12h-90 q-27 0 -27 -18q0 -13 33 -19q30 -5 44.5 -16.5t14.5 -39.5v-58h-213q1 2 2 6.5t1 6.5q2 14 -7.5 26t-27.5 12h-324zM692 120q9 0 15 7t6 17q0 26 -21 26h-429q-22 0 -22 -16q0 -9 5 -13.5t18 -7.5q23 -4 29.5 -18t6.5 -50v-164q0 -64 65 -64h332q27 0 27 26q0 25 -28 25 h-309q-26 0 -26 27v205h331z" />
<glyph unicode="&#xacb0;" horiz-adv-x="850" d="M101 675q-29 0 -29 -26q0 -25 28 -25h285q-31 -91 -132 -184t-190 -132q-6 -3 -8 -12t2 -14q6 -9 23 -4q90 28 197.5 110.5t157.5 176.5q1 -1 4 -1h231v-131h-235q-22 0 -22 -25t21 -25h236v-104h15q47 0 47 89v354q0 18 -10 29.5t-27 11.5h-90q-27 0 -27 -17 q0 -7 6.5 -11t26.5 -9q30 -5 44.5 -16.5t14.5 -39.5v-56h-215q1 2 6 23q3 14 -6.5 26t-28.5 12h-325zM273 55q-21 0 -21 -15t18 -19q21 -6 29.5 -15.5t8.5 -31.5v-70q0 -31 16.5 -49t47.5 -18h345q26 0 26 26q0 10 -7 17.5t-20 7.5h-316q-31 0 -31 29v89h306q35 0 35 43v134 q0 37 -33 37h-373q-27 0 -27 -25q0 -10 7 -17.5t21 -7.5h343v-115h-375z" />
<glyph unicode="&#xacb8;" horiz-adv-x="850" d="M101 665q-29 0 -29 -26q0 -24 28 -24h283q-31 -98 -129.5 -187t-191.5 -133q-6 -3 -7.5 -11.5t2.5 -15.5q8 -9 26 -3q102 35 207.5 119.5t149.5 180.5q6 -2 9 -2h221v-153h-225q-22 0 -22 -25q0 -26 21 -26h226v-132h15q47 0 47 89v407q0 18 -10 30t-27 12h-90 q-27 0 -27 -18q0 -13 33 -19q30 -5 44.5 -16.5t14.5 -39.5v-58h-213q1 2 2 6.5t1 6.5q2 14 -7.5 26t-27.5 12h-324zM654 117v-222h-295q4 26 4 33v189h291zM713 -157q22 0 22 25t-24 25h-7q11 29 11 76v165q0 34 -31 34h-416q-25 0 -25 -16q0 -15 22 -20q21 -6 29 -16.5 t8 -36.5v-263h19q16 0 27 27h365z" />
<glyph unicode="&#xacb9;" horiz-adv-x="850" d="M101 675q-29 0 -29 -26q0 -25 28 -25h285q-31 -91 -132 -184t-190 -132q-6 -3 -8 -12t2 -14q6 -9 23 -4q90 28 197.5 110.5t157.5 176.5q1 -1 4 -1h231v-131h-235q-22 0 -22 -25t21 -25h236v-104h15q47 0 47 89v354q0 18 -10 29.5t-27 11.5h-90q-27 0 -27 -17 q0 -7 6.5 -11t26.5 -9q30 -5 44.5 -16.5t14.5 -39.5v-56h-215q1 2 6 23q3 14 -6.5 26t-28.5 12h-325zM363 23h291v-127h-291v127zM713 -155q22 0 22 24q0 26 -24 26h-8q12 28 12 71v223q0 38 -35 38h-66q-25 0 -25 -16q0 -14 27 -19q15 -4 21 -6.5t11.5 -12t5.5 -26.5v-73 h-291v81q0 39 -32 39h-68q-14 0 -19 -3t-5 -12t4 -13t17 -6q24 -5 33 -14.5t9 -33.5v-293h14q23 0 34 26h363z" />
<glyph unicode="&#xacbb;" horiz-adv-x="850" d="M101 665q-29 0 -29 -26q0 -24 28 -24h283q-31 -98 -129.5 -187t-191.5 -133q-6 -3 -7.5 -11.5t2.5 -15.5q8 -9 26 -3q98 33 201.5 114t150.5 175q1 -1 4 -1h231v-139h-235q-22 0 -22 -25q0 -26 21 -26h236v-179h15q47 0 47 90v449q0 18 -10 30t-26 12h-91q-27 0 -27 -18 q0 -13 33 -19q30 -6 44.5 -17.5t14.5 -38.5v-68h-215q4 17 5 23q2 14 -7.5 26t-27.5 12h-324zM503 68q25 44 31 83q8 57 -41 57h-72q-16 0 -21 -3.5t-5 -12.5q0 -13 21 -18q28 -4 35.5 -10.5t5.5 -19.5q-15 -70 -86 -154t-136 -123q-10 -6 -10.5 -15t7 -12.5t19.5 0.5 q52 21 116 73.5t109 113.5l214 -174q14 -11 33 -3q20 8 20 32q0 18 -20 32z" />
<glyph unicode="&#xacbc;" horiz-adv-x="850" d="M101 671q-29 0 -29 -26q0 -25 28 -25h283q-19 -63 -79.5 -133t-125 -117.5t-117.5 -71.5q-6 -3 -7 -12t3 -14q7 -9 27 -2q58 19 124.5 60.5t129.5 103t96 126.5q2 -1 5 -1h231v-134h-235q-22 0 -22 -26q0 -25 21 -25h236v-137h15q47 0 47 90v396q0 18 -10 30t-26 12h-91 q-27 0 -27 -18q0 -13 33 -19q30 -5 44.5 -17t14.5 -39v-63h-216l6 24q3 14 -6.5 26t-28.5 12h-324zM450 -104q-25 -30 -47 -48q-16 -13 -6 -23t28 1q90 55 168 181l164 -152q13 -12 31 -7q23 7 23 32q0 19 -21 35l-173 136q29 57 33 101q3 26 -5 39t-36 13h-73 q-15 0 -20 -3.5t-5 -13.5q0 -3 1 -5.5t3.5 -4t4 -2.5t6.5 -2t7 -2q27 -8 35 -13.5t7 -17.5q-9 -80 -89 -196l-116 95q29 55 33 92q3 25 -5 38t-37 13h-74q-15 0 -20 -3t-5 -11q0 -7 3.5 -10.5t7 -4.5t13.5 -3q21 -5 31.5 -14t8.5 -20q-7 -51 -58 -132t-102 -118 q-17 -13 -10 -24t25 -3q36 18 82.5 62.5t82.5 97.5z" />
<glyph unicode="&#xacbd;" horiz-adv-x="850" d="M101 665q-29 0 -29 -26q0 -24 28 -24h283q-31 -98 -129.5 -187t-191.5 -133q-6 -3 -7.5 -11.5t2.5 -15.5q8 -9 26 -3q102 35 207.5 119.5t149.5 180.5q6 -2 9 -2h221v-153h-225q-22 0 -22 -25q0 -26 21 -26h226v-132h15q47 0 47 89v407q0 18 -10 30t-27 12h-90 q-27 0 -27 -18q0 -13 33 -19q30 -5 44.5 -16.5t14.5 -39.5v-58h-213q1 2 2 6.5t1 6.5q2 14 -7.5 26t-27.5 12h-324zM310 27q0 -77 60 -133.5t143 -56.5t143 56.5t60 133.5t-60 134t-143 57q-85 0 -144 -56.5t-59 -134.5zM373 27q0 55 41.5 97t98.5 42t98.5 -42t41.5 -97 t-41.5 -96.5t-98.5 -41.5q-58 0 -99 41t-41 97z" />
<glyph unicode="&#xacc1;" horiz-adv-x="850" d="M101 675q-29 0 -29 -26q0 -25 28 -25h285q-31 -91 -132 -184t-190 -132q-6 -3 -8 -12t2 -14q6 -9 23 -4q90 28 197.5 110.5t157.5 176.5q1 -1 4 -1h231v-131h-235q-22 0 -22 -25t21 -25h236v-104h15q47 0 47 89v354q0 18 -10 29.5t-27 11.5h-90q-27 0 -27 -17 q0 -7 6.5 -11t26.5 -9q30 -5 44.5 -16.5t14.5 -39.5v-56h-215q1 2 6 23q3 14 -6.5 26t-28.5 12h-325zM693 165q10 0 16 7.5t6 18.5q0 25 -22 25h-413q-23 0 -23 -17q0 -15 22 -19q24 -5 31 -19t7 -50v-200q0 -64 65 -64h318q26 0 26 25q0 26 -28 26h-295q-25 0 -25 27v85 h300q27 0 27 25t-27 25h-300v105h315z" />
<glyph unicode="&#xacc4;" horiz-adv-x="890" d="M96 620q-29 0 -29 -25q0 -26 28 -26h232q-21 -93 -103 -200.5t-171 -170.5q-6 -4 -8 -14t1 -15q8 -12 28 -2q86 45 175.5 140t130.5 194h148v-178h-153q-21 0 -21 -24q0 -26 20 -26h154v-323h15q45 0 45 90v641q0 19 -9.5 30.5t-26.5 11.5h-90q-26 0 -26 -18 q0 -14 33 -20q30 -5 44.5 -16.5t14.5 -38.5v-78h-131q5 16 6 29q2 15 -7.5 27t-29.5 12h-270zM787 724q0 18 -9.5 29.5t-26.5 11.5h-90q-27 0 -27 -18q0 -13 33 -19q29 -5 43.5 -17t14.5 -39v-772h16q46 0 46 90v734z" />
<glyph unicode="&#xacc8;" horiz-adv-x="890" d="M98 648q-29 0 -29 -26q0 -24 28 -24h231q-20 -88 -101.5 -182t-169.5 -150q-16 -11 -6 -26q8 -10 28 -2q87 39 175.5 124.5t129.5 177.5h157v-164h-176q-22 0 -22 -26q0 -24 20 -24h178v-214h15q45 0 45 91v478q0 43 -36 43h-90q-26 0 -26 -17q0 -15 34 -21q30 -5 44 -16 t14 -39v-41h-140q4 15 5 20q3 14 -7 26t-30 12h-271zM787 724q0 41 -36 41h-90q-27 0 -27 -17q0 -14 34 -20q29 -5 43.5 -16.5t14.5 -39.5v-581h15q46 0 46 91v542zM325 -77q-1 -47 21 -64t75 -17h337q15 0 22.5 8t7.5 19q0 25 -31 25h-347q-24 0 -24 25v182q0 42 -37 42 h-78q-28 0 -28 -18q0 -9 5.5 -13t26.5 -8q28 -8 39 -18t11 -37v-126z" />
<glyph unicode="&#xaccc;" horiz-adv-x="890" d="M97 660q-15 0 -22 -8t-7 -18q0 -26 28 -26h231q-23 -88 -105.5 -179t-165.5 -136q-6 -4 -7.5 -12.5t2.5 -12.5q8 -10 28 -2q87 35 173 112.5t128 169.5h161v-122h-163q-22 0 -22 -25q0 -26 20 -26h165v-96h15q45 0 45 89v312q0 19 -9.5 30.5t-26.5 11.5h-90 q-26 0 -26 -17q0 -13 34 -21q30 -5 44 -16t14 -39v-30h-141q1 4 2.5 11.5t2.5 10.5q3 15 -7 27t-30 12h-271zM787 723q0 41 -36 41h-90q-27 0 -27 -17q0 -7 7 -11t27 -9q29 -5 43.5 -16.5t14.5 -39.5v-392h15q46 0 46 89v355zM319 54q-20 0 -20 -15t17 -19q22 -6 30 -15.5 t8 -31.5v-68q0 -31 16.5 -49.5t47.5 -18.5h346q26 0 26 26q0 10 -7 17.5t-20 7.5h-316q-32 0 -32 29v88h307q35 0 35 43v133q0 37 -33 37h-374q-27 0 -27 -25q0 -26 27 -26h345v-113h-376z" />
<glyph unicode="&#xacd5;" horiz-adv-x="890" d="M97 660q-15 0 -22 -8t-7 -18q0 -26 28 -26h231q-23 -88 -105.5 -179t-165.5 -136q-6 -4 -7.5 -12.5t2.5 -12.5q8 -10 28 -2q87 35 173 112.5t128 169.5h161v-122h-163q-22 0 -22 -25q0 -26 20 -26h165v-96h15q45 0 45 89v312q0 19 -9.5 30.5t-26.5 11.5h-90 q-26 0 -26 -17q0 -13 34 -21q30 -5 44 -16t14 -39v-30h-141q1 4 2.5 11.5t2.5 10.5q3 15 -7 27t-30 12h-271zM787 723q0 41 -36 41h-90q-27 0 -27 -17q0 -7 7 -11t27 -9q29 -5 43.5 -16.5t14.5 -39.5v-392h15q46 0 46 89v355zM415 22h291v-126h-291v126zM765 -155 q21 0 21 24q0 26 -25 26h-7q13 26 13 71v221q0 39 -35 39h-65q-15 0 -20.5 -3.5t-5.5 -12.5q0 -8 5 -11.5t22 -7.5q11 -3 16 -5t11 -6.5t8.5 -13t2.5 -21.5v-72h-291v79q0 39 -32 39h-68q-14 0 -19.5 -3t-5.5 -12t4 -13t18 -6q24 -5 33 -14.5t9 -33.5v-290h13q23 0 34 26 h364z" />
<glyph unicode="&#xacd7;" horiz-adv-x="890" d="M98 655q-29 0 -29 -25t28 -25h231q-19 -86 -102.5 -185t-167.5 -147q-5 -3 -6.5 -11.5t2.5 -13.5q8 -10 28 -2q84 36 172.5 121.5t130.5 180.5h156v-138h-163q-22 0 -22 -26q0 -24 20 -24h165v-112h15q45 0 45 90v343q0 19 -9.5 30.5t-26.5 11.5h-90q-26 0 -26 -17 q0 -13 34 -21q30 -5 44 -16t14 -39v-30h-139q2 7 4 17q2 15 -7.5 26.5t-29.5 11.5h-271zM787 725q0 40 -36 40h-90q-27 0 -27 -17q0 -7 7 -11t27 -9q29 -5 43.5 -16.5t14.5 -39.5v-477h15q46 0 46 90v440zM543 68q25 46 31 83q8 57 -41 57h-72q-16 0 -21 -3.5t-5 -12.5 q0 -13 21 -18q28 -4 35.5 -10.5t5.5 -19.5q-15 -70 -86 -154t-136 -123q-10 -6 -10.5 -15t7 -12.5t19.5 0.5q52 21 116 73.5t109 113.5l214 -174q14 -11 33 -3q20 8 20 32q0 19 -20 33z" />
<glyph unicode="&#xace0;" d="M683 617q0 44 -42 44h-420q-14 0 -21.5 -7t-7.5 -17q0 -27 29 -27h397q0 -237 -11 -320q-5 -36 -12 -65q-6 -24 10 -28q16 -6 25 17q53 121 53 403zM70 79q-13 0 -20.5 -7t-7.5 -17q0 -27 28 -27h775q29 0 29 26q0 25 -29 25h-395v251q0 41 -36 41h-80q-28 0 -28 -17 q0 -16 24 -20q31 -6 45 -16t14 -37v-202h-319z" />
<glyph unicode="&#xace1;" d="M683 674q0 43 -42 43h-410q-28 0 -28 -23q0 -27 28 -27h387q0 -10 0.5 -59.5t0 -67t-2 -54.5t-5 -63.5t-8.5 -52.5q-2 -12 -1 -13h-151v138q0 18 -9.5 29.5t-27.5 11.5h-79q-28 0 -28 -18q0 -15 24 -19q31 -6 45 -16.5t14 -37.5v-88h-320q-13 0 -20.5 -7t-7.5 -17 q0 -26 28 -26h775q29 0 29 25t-29 25h-208q2 2 2 3q44 118 44 314zM677 155q0 38 -37 38h-417q-20 0 -20 -26q0 -10 5.5 -17t14.5 -7h393v-292h16q19 0 32 23t13 66v215z" />
<glyph unicode="&#xace4;" d="M683 654q0 42 -42 42h-410q-28 0 -28 -25q0 -27 28 -27h387v-50v-53t-0.5 -47.5t-1.5 -50.5t-2.5 -44.5t-4.5 -46.5t-7 -41q-1 -5 -1 -12h-150v157q0 42 -37 42h-80q-27 0 -27 -17q0 -16 24 -21q31 -6 45 -16.5t14 -37.5v-107h-320q-13 0 -20.5 -7t-7.5 -16q0 -27 28 -27 h775q29 0 29 26q0 24 -29 24h-207q1 1 1 2q19 57 31 158t13 195zM253 -72q-1 -47 21 -64t75 -17h338q13 0 21 8t8 19q0 10 -8 17.5t-22 7.5h-349q-23 0 -23 26v175q0 19 -10 30t-27 11h-80q-27 0 -27 -17q0 -9 5.5 -13t26.5 -8q28 -8 39.5 -18.5t11.5 -36.5v-120z" />
<glyph unicode="&#xace7;" d="M683 674q0 43 -42 43h-410q-28 0 -28 -23q0 -27 28 -27h387q0 -10 0.5 -59.5t0 -67t-2 -54.5t-5 -63.5t-8.5 -52.5q-2 -12 -1 -13h-151v138q0 18 -9.5 29.5t-27.5 11.5h-79q-28 0 -28 -18q0 -15 24 -19q31 -6 45 -16.5t14 -37.5v-88h-320q-13 0 -20.5 -7t-7.5 -17 q0 -26 28 -26h775q29 0 29 25t-29 25h-208q2 2 2 3q44 118 44 314zM664 132q22 0 22 24q0 26 -22 26h-453q-23 0 -23 -16t22 -20q24 -5 31 -19t7 -50v-166q0 -64 65 -64h357q26 0 26 26q0 25 -28 25h-334q-25 0 -25 28v206h355z" />
<glyph unicode="&#xace8;" d="M683 679q0 44 -42 44h-410q-28 0 -28 -24q0 -27 28 -27h387q0 -196 -12 -278q-2 -14 -2 -17h-153v133q0 18 -9.5 29.5t-27.5 11.5h-79q-28 0 -28 -18q0 -15 24 -19q21 -5 31.5 -9t19 -15.5t8.5 -30.5v-82h-320q-13 0 -20.5 -7t-7.5 -17q0 -27 28 -27h775q29 0 29 26 q0 25 -29 25h-206q1 1 1 3t1 3q42 126 42 296zM219 61q-22 0 -22 -16q0 -13 19 -19q21 -6 29.5 -16t8.5 -31v-68q0 -32 16.5 -50t47.5 -18h376q27 0 27 26q0 10 -7.5 17.5t-20.5 7.5h-348q-30 0 -30 30v87h337q35 0 35 43v133q0 37 -33 37h-404q-27 0 -27 -24q0 -26 28 -26 h374v-113h-406z" />
<glyph unicode="&#xacea;" d="M683 679q0 44 -42 44h-410q-28 0 -28 -24q0 -27 28 -27h387q0 -196 -12 -278q-2 -14 -2 -17h-153v133q0 18 -9.5 29.5t-27.5 11.5h-79q-28 0 -28 -18q0 -15 24 -19q21 -5 31.5 -9t19 -15.5t8.5 -30.5v-82h-320q-13 0 -20.5 -7t-7.5 -17q0 -27 28 -27h775q29 0 29 26 q0 25 -29 25h-206q1 1 1 3t1 3q42 126 42 296zM140 61q-21 0 -21 -15q0 -16 17 -24q12 -5 17 -8t8.5 -11t3.5 -22v-66q0 -30 21 -49t53 -19h177q25 0 25 26q0 25 -26 25h-158q-30 0 -30 32v81h146q35 0 35 43v127q0 37 -32 37h-212q-26 0 -26 -25q0 -10 7 -17.5t20 -7.5h183 v-107h-208zM681 168v-254h-144q2 12 2 34v220h142zM741 -136q20 0 20 26q0 23 -23 23h-8q12 26 12 71v201q0 33 -32 33h-249q-27 0 -27 -15q0 -12 17 -19q16 -7 21.5 -16t5.5 -34v-297h19q17 0 25 27h219z" />
<glyph unicode="&#xacec;" d="M683 679q0 44 -42 44h-410q-28 0 -28 -24q0 -27 28 -27h387q0 -196 -12 -278q-2 -14 -2 -17h-153v133q0 18 -9.5 29.5t-27.5 11.5h-79q-28 0 -28 -18q0 -15 24 -19q21 -5 31.5 -9t19 -15.5t8.5 -30.5v-82h-320q-13 0 -20.5 -7t-7.5 -17q0 -27 28 -27h775q29 0 29 26 q0 25 -29 25h-206q1 1 1 3t1 3q42 126 42 296zM166 61q-21 0 -21 -15q0 -12 14 -17q19 -7 25 -17.5t6 -32.5v-65q0 -30 16.5 -48.5t47.5 -18.5h187q26 0 26 26q0 25 -27 25h-157q-32 0 -32 30v83h168q35 0 35 43v129q0 37 -33 37h-232q-27 0 -27 -25q0 -10 7 -17.5t21 -7.5 h202v-109h-226zM651 66q27 57 30 105q2 24 -6.5 37.5t-36.5 13.5h-68q-27 0 -27 -16q0 -6 3 -9t6.5 -4t12.5 -3q29 -7 38 -14t8 -17q-5 -55 -46 -142.5t-91 -136.5q-11 -12 -4 -23t23 0q73 51 135 161l143 -146q13 -15 32 -7q21 8 20 33q-2 18 -18 33z" />
<glyph unicode="&#xacef;" d="M683 679q0 44 -42 44h-410q-28 0 -28 -24q0 -27 28 -27h387q0 -196 -12 -278q-2 -10 -2 -14h-153v132q0 18 -9.5 29.5t-27.5 11.5h-79q-28 0 -28 -18q0 -15 24 -19q21 -5 31.5 -9t19 -15.5t8.5 -30.5v-81h-320q-13 0 -20.5 -7t-7.5 -17q0 -11 7.5 -19t20.5 -8h775 q29 0 29 26q0 25 -29 25h-205v1q1 1 1 2q42 126 42 296zM140 62q-20 0 -20 -15q0 -13 15 -17q18 -7 24 -17.5t6 -32.5v-66q0 -31 16.5 -49.5t47.5 -18.5h198q12 0 19 8t7 19q0 10 -7 17.5t-19 7.5h-169q-32 0 -32 30v84h148q35 0 35 43v129q0 38 -33 38h-211q-27 0 -27 -24 q0 -26 28 -26h181v-110h-207zM538 165q20 -12 53 -12h75q29 0 29 23q0 27 -32 27q-52 0 -79.5 6t-68.5 26q-18 6 -29 -7q-5 -8 -3.5 -17t9.5 -14zM445 104q-13 0 -20.5 -7.5t-7.5 -18.5q0 -25 28 -25h57q-41 -36 -41 -88q0 -55 39 -92t99 -37t100.5 37t40.5 93q0 50 -42 87 h57q28 0 28 25q0 11 -7.5 18.5t-20.5 7.5h-310zM518 -31q0 34 22.5 58t58.5 24q35 0 59 -24t24 -58q0 -35 -24 -61t-59 -26q-36 0 -58.5 26t-22.5 61z" />
<glyph unicode="&#xacf0;" d="M683 674q0 43 -42 43h-410q-28 0 -28 -23q0 -27 28 -27h387q0 -10 0.5 -59.5t0 -67t-2 -54.5t-5 -63.5t-8.5 -52.5q-2 -12 -1 -13h-151v138q0 18 -9.5 29.5t-27.5 11.5h-79q-28 0 -28 -18q0 -15 24 -19q31 -6 45 -16.5t14 -37.5v-88h-320q-13 0 -20.5 -7t-7.5 -17 q0 -26 28 -26h775q29 0 29 25t-29 25h-208q2 2 2 3q44 118 44 314zM618 129v-224h-312q4 26 4 33v191h308zM677 -147q21 0 21 25q0 26 -23 26h-9q13 27 13 75v166q0 34 -31 34h-434q-25 0 -25 -16q0 -14 23 -20q21 -6 29 -16t8 -36v-264h18q16 0 27 26h383z" />
<glyph unicode="&#xacf1;" d="M683 679q0 44 -42 44h-410q-28 0 -28 -24q0 -27 28 -27h387q0 -196 -12 -278q-2 -14 -2 -17h-153v133q0 18 -9.5 29.5t-27.5 11.5h-79q-28 0 -28 -18q0 -15 24 -19q21 -5 31.5 -9t19 -15.5t8.5 -30.5v-82h-320q-13 0 -20.5 -7t-7.5 -17q0 -27 28 -27h775q29 0 29 26 q0 25 -29 25h-206q1 1 1 3t1 3q42 126 42 296zM305 23h311v-118h-311v118zM675 -145q22 0 22 25q0 24 -26 24h-7q13 26 13 71v206q0 39 -35 39h-65q-26 0 -26 -16q0 -14 26 -19q23 -5 31 -12.5t8 -32.5v-67h-311v89q0 39 -33 39h-67q-15 0 -20.5 -3t-5.5 -13q0 -8 4.5 -12 t18.5 -6q23 -5 32.5 -15.5t9.5 -34.5v-289h13q24 0 33 27h385z" />
<glyph unicode="&#xacf3;" d="M683 674q0 43 -42 43h-410q-28 0 -28 -23q0 -27 28 -27h387q0 -10 0.5 -59.5t0 -67t-2 -54.5t-5 -63.5t-8.5 -52.5q-2 -12 -1 -13h-151v138q0 18 -9.5 29.5t-27.5 11.5h-79q-28 0 -28 -18q0 -15 24 -19q31 -6 45 -16.5t14 -37.5v-88h-320q-13 0 -20.5 -7t-7.5 -17 q0 -26 28 -26h775q29 0 29 25t-29 25h-208q2 2 2 3q44 118 44 314zM474 79q20 35 27 67q5 24 -4 41t-37 17h-72q-16 0 -21 -3.5t-5 -13.5q0 -15 21 -18q28 -4 35.5 -10t5.5 -19q-12 -61 -89 -143.5t-139 -110.5q-19 -8 -12 -21q7 -12 27 -6q54 17 122 68t114 112l231 -165 q17 -11 32 -4q9 3 15.5 12t5.5 19q-2 19 -19 29z" />
<glyph unicode="&#xacf5;" d="M683 674q0 43 -42 43h-410q-28 0 -28 -23q0 -27 28 -27h387q0 -10 0.5 -59.5t0 -67t-2 -54.5t-5 -63.5t-8.5 -52.5q-2 -12 -1 -13h-151v138q0 18 -9.5 29.5t-27.5 11.5h-79q-28 0 -28 -18q0 -15 24 -19q31 -6 45 -16.5t14 -37.5v-88h-320q-13 0 -20.5 -7t-7.5 -17 q0 -26 28 -26h775q29 0 29 25t-29 25h-208q2 2 2 3q44 118 44 314zM254 31q0 -79 60 -132.5t144 -53.5q83 0 143.5 53.5t60.5 132.5q0 81 -60.5 133.5t-143.5 52.5q-84 0 -144 -53.5t-60 -132.5zM317 31q0 56 42.5 95.5t98.5 39.5q55 0 98 -40t43 -95t-43 -94.5t-98 -39.5 q-57 0 -99 39t-42 95z" />
<glyph unicode="&#xacf6;" d="M683 679q0 44 -42 44h-410q-28 0 -28 -24q0 -27 28 -27h387q0 -196 -12 -278q-5 -25 9 -28q19 -6 26 17q42 126 42 296zM70 359q-13 0 -20.5 -7t-7.5 -16q0 -27 28 -27h775q29 0 29 26q0 24 -29 24h-394v138q0 42 -37 42h-80q-27 0 -27 -18q0 -15 24 -20q31 -6 45 -16.5 t14 -37.5v-88h-320zM530 7q76 73 99 147q6 18 -2.5 32.5t-28.5 14.5h-324q-8 0 -14 -7t-6 -17q0 -12 6 -19.5t14 -7.5h276q-36 -79 -131 -158.5t-184 -115.5q-20 -7 -12 -28q8 -12 27 -6q122 34 234 125l199 -120q13 -7 32 0q21 8 21 32t-18 34z" />
<glyph unicode="&#xacfc;" horiz-adv-x="910" d="M483 613q0 42 -42 42h-341q-14 0 -22 -7t-8 -17q0 -11 8 -19t23 -8h316v-62v-59.5t-0.5 -50t-1.5 -50t-2.5 -42t-4 -43.5t-6.5 -38q-5 -25 9 -28q16 -6 27 18q41 104 45 364zM221 135h-170q-29 0 -29 -25t28 -25h286q71 0 147 11t112 29q20 11 16 23q-3 10 -22 6 q-80 -19 -254 -19h-53v235q0 41 -36 41h-80q-28 0 -28 -17q0 -16 24 -20q31 -6 45 -16t14 -37v-186zM711 724q0 18 -9.5 29.5t-26.5 11.5h-90q-27 0 -27 -18q0 -13 34 -19q29 -5 43.5 -17t14.5 -39v-771h15q46 0 46 90v395h166q23 0 23 24q0 26 -23 26h-166v288z" />
<glyph unicode="&#xacfd;" horiz-adv-x="910" d="M484 657q0 43 -42 43h-343q-29 0 -29 -24q0 -11 8 -19t22 -8h318q0 -15 0.5 -62t0.5 -71t-3 -62.5t-9 -70.5q-6 -24 8 -28q18 -6 27 17q42 104 42 285zM223 321h-172q-14 0 -21.5 -7t-7.5 -17q0 -25 28 -25h296q70 0 144 10.5t109 27.5q23 12 18 25q-4 9 -22 5 q-80 -19 -250 -19h-61v149q0 18 -9.5 29.5t-27.5 11.5h-80q-27 0 -27 -17q0 -15 24 -20q31 -6 45 -16.5t14 -37.5v-99zM712 724q0 18 -9.5 29.5t-26.5 11.5h-91q-27 0 -27 -18q0 -13 34 -19q30 -5 44 -16.5t14 -39.5v-446h16q46 0 46 90v141h167q22 0 22 25t-23 25h-166v217 zM695 116q0 39 -37 39h-405q-9 0 -15 -7.5t-6 -18.5q0 -10 6.5 -17.5t15.5 -7.5h380v-267h16q19 0 32 23t13 66v190z" />
<glyph unicode="&#xad00;" horiz-adv-x="910" d="M485 650q0 41 -42 41h-344q-14 0 -21.5 -6.5t-7.5 -16.5q0 -11 8 -19t23 -8h318q0 -30 0.5 -79.5t0 -67t-1.5 -47t-3.5 -49t-6.5 -42.5q-5 -24 8 -27q18 -6 27 17q40 95 42 304zM712 723q0 19 -9.5 30.5t-26.5 11.5h-91q-27 0 -27 -17q0 -13 34 -20q30 -5 44 -16.5 t14 -39.5v-579h16q46 0 46 90v233h167q22 0 22 25q0 24 -22 24h-167v258zM233 299h-182q-29 0 -29 -25t28 -25h296q71 0 145 11t110 29q18 9 16.5 20t-22.5 7q-80 -17 -251 -17h-50v145q0 18 -9.5 29.5t-27.5 11.5h-79q-28 0 -28 -18q0 -15 24 -19q30 -6 44.5 -17t14.5 -37 v-95zM268 -72q-1 -47 21 -63.5t75 -16.5h328q14 0 21.5 7.5t7.5 18.5q0 25 -30 25h-338q-24 0 -24 26v164q0 42 -36 42h-79q-28 0 -28 -16q0 -10 5.5 -14.5t24.5 -8.5q29 -6 40.5 -16.5t11.5 -37.5v-110z" />
<glyph unicode="&#xad04;" horiz-adv-x="910" d="M484 660q0 43 -42 43h-338q-29 0 -29 -24q0 -26 31 -26h312q0 -12 0.5 -68t0 -84t-3 -72t-7.5 -75q0 -2 -1 -3h-114v143q0 40 -36 40h-80q-28 0 -28 -17q0 -15 24 -19q30 -6 44.5 -17.5t14.5 -37.5v-92h-181q-29 0 -29 -25t28 -25h296q71 0 145 11t110 29q5 2 8.5 5.5 t5.5 6.5t2.5 6t-0.5 5.5t-4 4.5t-7.5 2t-10.5 -1q-58 -14 -149 -18q38 101 38 308zM712 723q0 18 -9.5 29.5t-26.5 11.5h-91q-27 0 -27 -17q0 -13 34 -19q30 -6 44 -17.5t14 -39.5v-402h16q46 0 46 88v131h167q22 0 22 25t-23 25h-166v185zM251 45q-21 0 -21 -15t18 -19 q21 -6 29.5 -16t8.5 -31v-60q0 -31 16.5 -49t47.5 -18h356q26 0 26 26q0 10 -7 17.5t-20 7.5h-326q-32 0 -32 31v76h317q35 0 35 44v122q0 38 -33 38h-384q-27 0 -27 -24q0 -26 28 -26h354v-104h-386z" />
<glyph unicode="&#xad06;" horiz-adv-x="910" d="M484 660q0 43 -42 43h-338q-29 0 -29 -24q0 -26 31 -26h312q0 -12 0.5 -68t0 -84t-3 -72t-7.5 -75q0 -2 -1 -3h-114v143q0 40 -36 40h-80q-28 0 -28 -17q0 -15 24 -19q30 -6 44.5 -17.5t14.5 -37.5v-92h-181q-29 0 -29 -25t28 -25h296q71 0 145 11t110 29q5 2 8.5 5.5 t5.5 6.5t2.5 6t-0.5 5.5t-4 4.5t-7.5 2t-10.5 -1q-58 -14 -149 -18q38 101 38 308zM712 723q0 18 -9.5 29.5t-26.5 11.5h-91q-27 0 -27 -17q0 -13 34 -19q30 -6 44 -17.5t14 -39.5v-402h16q46 0 46 88v131h167q22 0 22 25t-23 25h-166v185zM99 46q-21 0 -21 -14 q0 -13 17 -19q18 -6 23.5 -15.5t5.5 -31.5v-60q0 -30 16.5 -48.5t47.5 -18.5h197q26 0 26 27q0 24 -27 24h-168q-31 0 -31 31v75h158q35 0 35 44v121q0 38 -33 38h-222q-26 0 -26 -24q0 -26 27 -26h193v-103h-218zM650 149v-243h-143q2 12 2 34v209h141zM709 -145 q22 0 22 26q0 24 -24 24h-8q12 26 12 73v188q0 33 -32 33h-249q-27 0 -27 -15q0 -10 17 -20q17 -6 22.5 -15.5t5.5 -34.5v-285h18q18 0 26 26h217z" />
<glyph unicode="&#xad0c;" horiz-adv-x="910" d="M484 657q0 43 -42 43h-343q-29 0 -29 -24q0 -11 8 -19t22 -8h318q0 -15 0.5 -62t0.5 -71t-3 -62.5t-9 -70.5q-6 -24 8 -28q18 -6 27 17q42 104 42 285zM223 321h-172q-14 0 -21.5 -7t-7.5 -17q0 -25 28 -25h296q70 0 144 10.5t109 27.5q23 12 18 25q-4 9 -22 5 q-80 -19 -250 -19h-61v149q0 18 -9.5 29.5t-27.5 11.5h-80q-27 0 -27 -17q0 -15 24 -20q31 -6 45 -16.5t14 -37.5v-99zM712 724q0 18 -9.5 29.5t-26.5 11.5h-91q-27 0 -27 -18q0 -13 34 -19q30 -5 44 -16.5t14 -39.5v-446h16q46 0 46 90v141h167q22 0 22 25t-23 25h-166v217 zM634 105v-209h-295q4 26 4 33v176h291zM693 -156q21 0 21 25q0 26 -24 26h-8q13 26 13 75v152q0 34 -31 34h-417q-25 0 -25 -16q0 -15 23 -21q21 -6 29 -16t8 -36v-250h18q16 0 27 27h366z" />
<glyph unicode="&#xad0d;" horiz-adv-x="910" d="M484 660q0 43 -42 43h-338q-29 0 -29 -24q0 -26 31 -26h312q0 -12 0.5 -68t0 -84t-3 -72t-7.5 -75q0 -2 -1 -3h-114v143q0 40 -36 40h-80q-28 0 -28 -17q0 -15 24 -19q30 -6 44.5 -17.5t14.5 -37.5v-92h-181q-29 0 -29 -25t28 -25h296q71 0 145 11t110 29q5 2 8.5 5.5 t5.5 6.5t2.5 6t-0.5 5.5t-4 4.5t-7.5 2t-10.5 -1q-58 -14 -149 -18q38 101 38 308zM712 723q0 18 -9.5 29.5t-26.5 11.5h-91q-27 0 -27 -17q0 -13 34 -19q30 -6 44 -17.5t14 -39.5v-402h16q46 0 46 88v131h167q22 0 22 25t-23 25h-166v185zM343 13h291v-117h-291v117z M693 -155q21 0 21 25t-25 25h-7q13 26 13 71v212q0 39 -35 39h-65q-26 0 -26 -16q0 -8 5 -11.5t22 -7.5q20 -5 29 -14t9 -32v-73h-291v92q0 39 -32 39h-68q-14 0 -19.5 -3t-5.5 -12t4 -13t18 -6q24 -5 33 -14.5t9 -33.5v-293h13q23 0 34 26h364z" />
<glyph unicode="&#xad0f;" horiz-adv-x="910" d="M484 657q0 43 -42 43h-343q-29 0 -29 -24q0 -11 8 -19t22 -8h318q0 -15 0.5 -62t0.5 -71t-3 -62.5t-9 -70.5q-6 -24 8 -28q18 -6 27 17q42 104 42 285zM712 724q0 18 -9.5 29.5t-26.5 11.5h-91q-27 0 -27 -17q0 -12 34 -20q30 -5 44 -16.5t14 -39.5v-497h16q46 0 46 90 v202h167q22 0 22 25t-23 25h-166v207zM601 317q5 2 8.5 5.5t5.5 6.5t2.5 6t-0.5 5.5t-4 4.5t-7.5 2t-10.5 -1q-80 -18 -251 -18h-50v148q0 18 -9.5 29.5t-27.5 11.5h-80q-27 0 -27 -17q0 -15 24 -20q31 -6 45 -16.5t14 -37.5v-98h-182q-29 0 -29 -25t28 -25h296 q69 0 143.5 11t111.5 28zM491 59q23 40 30 71q5 23 -4 40t-37 17h-72q-26 0 -26 -15q0 -16 21 -19q28 -4 35.5 -10t5.5 -20q-16 -64 -89 -146t-130 -110q-17 -8 -9.5 -20.5t26.5 -5.5q49 19 112 68.5t108 107.5l212 -163q15 -12 34 -4q18 9 21 31q2 19 -21 34z" />
<glyph unicode="&#xad11;" horiz-adv-x="910" d="M484 657q0 43 -42 43h-343q-29 0 -29 -24q0 -11 8 -19t22 -8h318q0 -15 0.5 -62t0.5 -71t-3 -62.5t-9 -70.5q-6 -24 8 -28q18 -6 27 17q42 104 42 285zM223 321h-172q-14 0 -21.5 -7t-7.5 -17q0 -25 28 -25h296q70 0 144 10.5t109 27.5q23 12 18 25q-4 9 -22 5 q-80 -19 -250 -19h-61v149q0 18 -9.5 29.5t-27.5 11.5h-80q-27 0 -27 -17q0 -15 24 -20q31 -6 45 -16.5t14 -37.5v-99zM712 724q0 18 -9.5 29.5t-26.5 11.5h-91q-27 0 -27 -18q0 -13 34 -19q30 -5 44 -16.5t14 -39.5v-446h16q46 0 46 90v141h167q22 0 22 25t-23 25h-166v217 zM293 19q0 -77 56 -129.5t143 -52.5q84 0 142.5 53t58.5 129q0 77 -58 128.5t-143 51.5q-87 0 -143 -52.5t-56 -127.5zM355 19q0 53 39.5 90.5t97.5 38.5q57 -1 98 -39t41 -90q0 -51 -40.5 -91t-98.5 -39q-60 -1 -98.5 38.5t-38.5 91.5z" />
<glyph unicode="&#xad18;" horiz-adv-x="890" d="M405 601q0 43 -42 43h-283q-30 0 -30 -24q0 -27 31 -27h258q0 -25 0.5 -82t0 -76t-1.5 -55t-4 -60.5t-8 -50.5q-3 -12 -1.5 -18.5t9.5 -9.5q7 -2 15.5 3.5t12.5 16.5q43 106 43 340zM191 145h-141q-29 0 -29 -25q0 -26 28 -26h171q68 0 143.5 11t110.5 28q23 12 18 25 q-3 9 -21 5q-79 -18 -219 -18v234q0 42 -37 42h-80q-27 0 -27 -17q0 -16 24 -21q31 -6 45 -16t14 -37v-185zM786 724q0 18 -9.5 29.5t-26.5 11.5h-89q-28 0 -28 -18q0 -13 34 -19q29 -5 43.5 -17t14.5 -39v-276h-140v285q0 19 -9.5 30.5t-26.5 11.5h-90q-26 0 -26 -18 q0 -14 34 -20q29 -5 43.5 -16.5t14.5 -38.5v-680h15q45 0 45 90v306h140v-446h15q46 0 46 90v734z" />
<glyph unicode="&#xad1c;" horiz-adv-x="890" d="M405 630q0 44 -42 44h-284q-30 0 -30 -25q0 -26 30 -26h260q0 -216 -13 -271q-6 -25 9 -29q13 -4 26 17q22 46 33 128.5t11 161.5zM790 724q0 41 -36 41h-89q-28 0 -28 -17q0 -14 34 -20q29 -5 43.5 -16.5t14.5 -39.5v-217h-139v226q0 42 -36 42h-89q-27 0 -27 -17 q0 -15 34 -21q30 -5 44 -16t14 -39v-518h15q45 0 45 91v203h139v-315h15q46 0 46 91v542zM194 285h-142q-29 0 -29 -25q0 -26 28 -26h181q69 0 141 10.5t108 29.5q20 11 16 24q-2 9 -20 5q-83 -18 -222 -18v164q0 18 -9.5 29t-27.5 11h-79q-28 0 -28 -17q0 -15 24 -19 q21 -5 31.5 -9t19 -15.5t8.5 -30.5v-113zM320 -72q-1 -47 21 -63.5t75 -16.5h338q14 0 21.5 7.5t7.5 18.5q0 25 -30 25h-348q-24 0 -24 26v161q0 42 -36 42h-79q-28 0 -28 -16q0 -10 5.5 -14.5t24.5 -8.5q29 -6 40.5 -16.5t11.5 -38.5v-106z" />
<glyph unicode="&#xad20;" horiz-adv-x="890" d="M405 643q0 43 -42 43h-284q-30 0 -30 -25t30 -25h260q0 -22 1 -68.5t1 -76t-2 -68t-7 -66.5q-2 -12 -2 -15q-26 -1 -77 -1v136q0 41 -36 41h-80q-28 0 -28 -17q0 -16 24 -20q31 -6 45 -16.5t14 -37.5v-86h-135q-29 0 -29 -26q0 -24 28 -24h181q69 0 141 10.5t108 28.5 q21 12 16 24q-3 8 -20 4q-45 -10 -116 -15q1 1 1 2q38 100 38 298zM790 725q0 40 -36 40h-89q-28 0 -28 -17q0 -13 34 -19q29 -6 43.5 -17.5t14.5 -39.5v-145h-139v155q0 41 -36 41h-89q-27 0 -27 -17q0 -14 34 -20q30 -6 44 -17.5t14 -38.5v-361h15q45 0 45 88v119h139 v-207h15q46 0 46 88v368zM317 46q-21 0 -21 -15t18 -19q21 -6 29.5 -16t8.5 -31v-59q0 -31 16.5 -49.5t47.5 -18.5h356q26 0 26 26q0 10 -7 17.5t-20 7.5h-326q-32 0 -32 31v76h317q35 0 35 44v122q0 38 -33 38h-384q-27 0 -27 -24q0 -26 28 -26h354v-104h-386z" />
<glyph unicode="&#xad29;" horiz-adv-x="890" d="M405 643q0 43 -42 43h-284q-30 0 -30 -25t30 -25h260q0 -22 1 -68.5t1 -76t-2 -68t-7 -66.5q-2 -12 -2 -15q-26 -1 -77 -1v136q0 41 -36 41h-80q-28 0 -28 -17q0 -16 24 -20q31 -6 45 -16.5t14 -37.5v-86h-135q-29 0 -29 -26q0 -24 28 -24h181q69 0 141 10.5t108 28.5 q21 12 16 24q-3 8 -20 4q-45 -10 -116 -15q1 1 1 2q38 100 38 298zM790 725q0 40 -36 40h-89q-28 0 -28 -17q0 -13 34 -19q29 -6 43.5 -17.5t14.5 -39.5v-145h-139v155q0 41 -36 41h-89q-27 0 -27 -17q0 -14 34 -20q30 -6 44 -17.5t14 -38.5v-361h15q45 0 45 88v119h139 v-207h15q46 0 46 88v368zM415 13h291v-117h-291v117zM765 -155q21 0 21 25t-25 25h-7q13 26 13 71v212q0 39 -35 39h-65q-26 0 -26 -16q0 -8 5 -11.5t22 -7.5q20 -5 29 -14t9 -32v-73h-291v91q0 39 -32 39h-68q-14 0 -19.5 -3t-5.5 -12t4 -13t18 -6q24 -5 33 -14.5t9 -33.5 v-292h13q23 0 34 26h364z" />
<glyph unicode="&#xad2c;" horiz-adv-x="890" d="M405 643q0 43 -42 43h-284q-30 0 -30 -25q0 -26 31 -26h259q0 -188 -10 -242q-3 -13 -1.5 -19.5t9.5 -9.5t16.5 2t12.5 16q39 108 39 261zM198 316h-141q-29 0 -29 -25q0 -24 28 -24h181q68 0 140 10.5t107 27.5q22 11 18 24q-3 9 -21 5q-82 -18 -222 -18v143 q0 41 -36 41h-80q-28 0 -28 -17q0 -16 24 -20q30 -6 44.5 -17t14.5 -38v-92zM787 724q0 18 -9.5 29.5t-26.5 11.5h-89q-28 0 -28 -18q0 -13 34 -19q29 -5 43.5 -16.5t14.5 -39.5v-171h-139v180q0 19 -9.5 30.5t-26.5 11.5h-89q-27 0 -27 -18q0 -14 34 -20q30 -5 44 -16 t14 -39v-394h15q45 0 45 90v125h139v-215h15q46 0 46 90v398zM464 -103q-22 -26 -49 -48q-10 -8 -9.5 -16.5t9 -10.5t21.5 4q42 25 87 70t80 97l165 -138q13 -12 31 -7q23 7 23 32q0 20 -21 35l-173 121q29 54 33 98q3 26 -5 39t-36 13h-73q-15 0 -20 -3.5t-5 -12.5 q0 -4 1 -6.5t3.5 -4t4 -2.5t6.5 -2t7 -2q27 -8 35 -13.5t7 -17.5q-9 -76 -84 -178l-120 88q27 50 32 88q3 24 -5 37t-37 13h-74q-15 0 -20 -3t-5 -11q0 -7 3.5 -10.5t7 -4.5t13.5 -3q42 -10 40 -33q-3 -43 -54 -123.5t-103 -115.5q-18 -12 -12 -23t24 -3q35 14 82 56.5 t83 94.5z" />
<glyph unicode="&#xad2d;" horiz-adv-x="890" d="M405 640q0 44 -42 44h-284q-30 0 -30 -24q0 -27 31 -27h259q0 -20 0.5 -68t0 -71.5t-1.5 -58.5t-3.5 -59.5t-6.5 -44.5q-1 -4 -1 -10q-26 -1 -77 -1v138q0 42 -37 42h-80q-27 0 -27 -18q0 -16 24 -20q31 -6 45 -16.5t14 -37.5v-88h-131q-29 0 -29 -25t28 -25h175 q67 0 138 11t108 28q21 12 16 24q-3 8 -20 4q-50 -11 -108 -14q19 45 29 140.5t10 176.5zM787 724q0 18 -9.5 29.5t-26.5 11.5h-89q-28 0 -28 -18q0 -13 34 -19q29 -5 43.5 -16.5t14.5 -39.5v-181h-139v190q0 19 -9.5 30.5t-26.5 11.5h-89q-27 0 -27 -18q0 -14 34 -20 q30 -5 44 -16t14 -39v-394h15q45 0 45 90v115h139v-215h15q46 0 46 90v408zM347 19q0 -77 56.5 -129.5t143.5 -52.5q84 0 142 53t58 129q0 77 -57.5 128.5t-142.5 51.5q-87 0 -143.5 -52.5t-56.5 -127.5zM409 19q0 53 40 90.5t98 38.5q57 -1 97.5 -39t40.5 -90 q0 -51 -40 -91t-98 -39q-60 -1 -99 38.5t-39 91.5z" />
<glyph unicode="&#xad34;" horiz-adv-x="850" d="M483 613q0 42 -42 42h-341q-14 0 -22 -7t-8 -17q0 -11 8 -19t23 -8h316v-62v-59.5t-0.5 -50t-1.5 -50t-2.5 -42t-4 -43.5t-6.5 -38q-5 -25 9 -28q16 -6 27 18q41 104 45 364zM729 724q0 18 -9.5 29.5t-27.5 11.5h-90q-27 0 -27 -18q0 -13 33 -19q30 -5 44.5 -17t14.5 -39 v-772h15q47 0 47 90v734zM231 135h-180q-29 0 -29 -25t28 -25h286q71 0 147 11t112 29q20 11 16 23q-3 10 -22 6q-80 -19 -254 -19h-43v235q0 41 -36 41h-80q-28 0 -28 -17q0 -16 24 -20q31 -6 45 -16t14 -37v-186z" />
<glyph unicode="&#xad35;" horiz-adv-x="850" d="M484 657q0 43 -42 43h-343q-29 0 -29 -24q0 -11 8 -19t22 -8h318q0 -15 0.5 -62t0.5 -71t-3 -62.5t-9 -70.5q-6 -24 8 -28q18 -6 27 17q42 104 42 285zM239 321h-186q-30 0 -30 -24q0 -25 29 -25h306q71 0 147.5 10.5t111.5 28.5q12 6 16 14t-3 12t-23 1 q-76 -17 -251 -17h-55v150q0 41 -36 41h-80q-27 0 -27 -18q0 -15 22 -19q31 -6 45 -16.5t14 -37.5v-100zM729 723q0 18 -10 30t-27 12h-90q-28 0 -28 -18q0 -13 34 -19q30 -5 44.5 -16.5t14.5 -39.5v-446h15q47 0 47 90v407zM715 124q0 20 -8.5 29t-28.5 9h-404 q-9 0 -15 -7.5t-6 -17.5q0 -25 21 -25h380v-275h17q19 0 31.5 23t12.5 66v198z" />
<glyph unicode="&#xad38;" horiz-adv-x="850" d="M485 650q0 41 -42 41h-344q-14 0 -21.5 -6.5t-7.5 -16.5q0 -11 8 -19t23 -8h318q0 -30 0.5 -79.5t0 -67t-1.5 -47t-3.5 -49t-6.5 -42.5q-5 -24 8 -27q18 -6 27 17q40 95 42 304zM729 723q0 19 -10 30.5t-27 11.5h-90q-28 0 -28 -17q0 -13 34 -20q30 -5 44.5 -16.5 t14.5 -39.5v-579h15q47 0 47 90v540zM617 287q12 6 16 14t-1.5 12.5t-19.5 1.5q-81 -17 -256 -17h-68v142q0 18 -10 29.5t-27 11.5h-80q-27 0 -27 -18q0 -15 23 -19q32 -7 45.5 -17t13.5 -37v-92h-173q-30 0 -30 -26q0 -24 29 -24h306q71 0 147.5 10.5t111.5 28.5zM288 -72 q-1 -47 21 -63.5t74 -16.5h329q14 0 21.5 8t7.5 18q0 25 -30 25h-339q-23 0 -23 26v157q0 42 -36 42h-81q-27 0 -27 -16q0 -10 5.5 -14.5t24.5 -8.5q29 -6 41 -16.5t12 -37.5v-103z" />
<glyph unicode="&#xad3c;" horiz-adv-x="850" d="M484 660q0 43 -42 43h-338q-29 0 -29 -24q0 -26 31 -26h312q0 -12 0.5 -68t0 -84t-3 -72t-7.5 -75q0 -2 -1 -3h-112v142q0 40 -36 40h-79q-28 0 -28 -17q0 -15 23 -19q16 -4 24 -7t17.5 -9t13 -15.5t3.5 -23.5v-91h-180q-30 0 -30 -25t29 -25h306q71 0 147.5 11t111.5 29 q12 6 16 14t-1.5 13t-19.5 2q-72 -16 -166 -18q38 100 38 308zM729 724q0 18 -10 29.5t-27 11.5h-90q-28 0 -28 -17q0 -13 34 -19q30 -6 44.5 -17.5t14.5 -39.5v-403h15q47 0 47 88v367zM268 43q-21 0 -21 -15t17 -19q21 -6 29.5 -16t8.5 -31v-57q0 -31 16.5 -49.5 t47.5 -18.5h356q26 0 26 26q0 25 -27 25h-326q-32 0 -32 31v74h317q35 0 35 44v120q0 38 -34 38h-383q-26 0 -26 -24q0 -26 27 -26h354v-102h-385z" />
<glyph unicode="&#xad44;" horiz-adv-x="850" d="M484 657q0 43 -42 43h-343q-29 0 -29 -24q0 -11 8 -19t22 -8h318q0 -15 0.5 -62t0.5 -71t-3 -62.5t-9 -70.5q-6 -24 8 -28q18 -6 27 17q42 104 42 285zM239 321h-186q-30 0 -30 -24q0 -25 29 -25h306q71 0 147.5 10.5t111.5 28.5q12 6 16 14t-3 12t-23 1 q-76 -17 -251 -17h-55v150q0 41 -36 41h-80q-27 0 -27 -18q0 -15 22 -19q31 -6 45 -16.5t14 -37.5v-100zM729 723q0 18 -10 30t-27 12h-90q-28 0 -28 -18q0 -13 34 -19q30 -5 44.5 -16.5t14.5 -39.5v-446h15q47 0 47 90v407zM654 106v-211h-295q4 26 4 33v178h291zM713 -157 q22 0 22 25q0 26 -25 26h-7q12 28 12 75v154q0 34 -31 34h-415q-26 0 -26 -16t22 -21q21 -6 29 -16t8 -36v-252h19q16 0 27 27h365z" />
<glyph unicode="&#xad45;" horiz-adv-x="850" d="M484 660q0 43 -42 43h-338q-29 0 -29 -24q0 -26 31 -26h312q0 -12 0.5 -68t0 -84t-3 -72t-7.5 -75q0 -2 -1 -3h-112v142q0 40 -36 40h-79q-28 0 -28 -17q0 -15 23 -19q16 -4 24 -7t17.5 -9t13 -15.5t3.5 -23.5v-91h-180q-30 0 -30 -25t29 -25h306q71 0 147.5 11t111.5 29 q12 6 16 14t-1.5 13t-19.5 2q-72 -16 -166 -18q38 100 38 308zM729 724q0 18 -10 29.5t-27 11.5h-90q-28 0 -28 -17q0 -13 34 -19q30 -6 44.5 -17.5t14.5 -39.5v-403h15q47 0 47 88v367zM363 8h291v-112h-291v112zM713 -155q22 0 22 25t-24 25h-8q12 28 12 71v217 q0 38 -35 38h-65q-26 0 -26 -16q0 -8 5 -11.5t22 -7.5q15 -4 21 -6.5t11.5 -12t5.5 -26.5v-83h-291v97q0 39 -32 39h-68q-14 0 -19 -3t-5 -12t4 -13t17 -6q24 -5 33 -14.5t9 -33.5v-293h14q23 0 34 26h363z" />
<glyph unicode="&#xad47;" horiz-adv-x="850" d="M484 657q0 43 -42 43h-343q-29 0 -29 -24q0 -11 8 -19t22 -8h318q0 -15 0.5 -62t0.5 -71t-3 -62.5t-9 -70.5q-6 -24 8 -28q18 -6 27 17q42 104 42 285zM729 723q0 18 -10 30t-26 12h-91q-28 0 -28 -18q0 -13 34 -19q30 -6 44.5 -17.5t14.5 -38.5v-487h15q47 0 47 90v448z M231 329h-178q-30 0 -30 -25t29 -25h306q69 0 146 11t113 28q12 6 16 14.5t-1.5 13t-19.5 1.5q-81 -18 -256 -18h-64v147q0 40 -37 40h-78q-28 0 -28 -17q0 -15 22 -19q32 -6 46 -16.5t14 -37.5v-97zM493 56q21 39 28 70q11 57 -40 57h-72q-26 0 -26 -15q0 -16 21 -19 q27 -4 36 -10.5t4 -18.5q-20 -71 -86.5 -142.5t-132.5 -110.5q-10 -6 -10.5 -14.5t7.5 -12t21 0.5q52 19 114.5 68t106.5 106l211 -160q17 -13 33 -5q18 7 21 31q2 18 -21 34z" />
<glyph unicode="&#xad49;" horiz-adv-x="850" d="M484 657q0 43 -42 43h-343q-29 0 -29 -24q0 -11 8 -19t22 -8h318q0 -15 0.5 -62t0.5 -71t-3 -62.5t-9 -70.5q-6 -24 8 -28q18 -6 27 17q42 104 42 285zM239 321h-186q-30 0 -30 -24q0 -25 29 -25h306q71 0 147.5 10.5t111.5 28.5q12 6 16 14t-3 12t-23 1 q-76 -17 -251 -17h-55v150q0 41 -36 41h-80q-27 0 -27 -18q0 -15 22 -19q31 -6 45 -16.5t14 -37.5v-100zM729 723q0 18 -10 30t-27 12h-90q-28 0 -28 -18q0 -13 34 -19q30 -5 44.5 -16.5t14.5 -39.5v-446h15q47 0 47 90v407zM314 19q0 -77 56 -129.5t143 -52.5q84 0 142 53 t58 129q0 77 -57.5 128.5t-142.5 51.5q-87 0 -143 -52.5t-56 -127.5zM376 19q0 53 39.5 90.5t97.5 38.5q57 -1 97.5 -39t40.5 -90q0 -51 -40 -91t-98 -39q-60 -1 -98.5 38.5t-38.5 91.5z" />
<glyph unicode="&#xad50;" d="M683 617q0 44 -42 44h-420q-14 0 -21.5 -7t-7.5 -17q0 -27 29 -27h397q0 -237 -11 -320q-5 -36 -12 -65q-6 -24 10 -28q16 -6 25 17q53 121 53 403zM70 80q-13 0 -20.5 -7t-7.5 -17q0 -27 28 -27h775q29 0 29 26q0 25 -29 25h-295v280q0 41 -35 41h-68q-27 0 -27 -17 q0 -16 23 -20q27 -6 37.5 -16t10.5 -38v-230h-127v249q0 40 -36 40h-69q-28 0 -28 -16q0 -15 23 -20q28 -5 38 -16t10 -39v-198h-232z" />
<glyph unicode="&#xad54;" d="M683 654q0 42 -42 42h-410q-28 0 -28 -25q0 -27 28 -27h387v-50v-53t-0.5 -47.5t-1.5 -50.5t-2.5 -44.5t-4.5 -46.5t-7 -41q-1 -4 -1 -11h-61v160q0 41 -35 41h-68q-28 0 -28 -17q0 -16 24 -20q27 -5 37 -16t10 -39v-109h-116v140q0 18 -9.5 29.5t-25.5 11.5h-70 q-28 0 -28 -18q0 -15 23 -19q28 -7 38 -17.5t10 -38.5v-88h-232q-13 0 -20.5 -7t-7.5 -16q0 -27 28 -27h775q29 0 29 26q0 24 -29 24h-206v1q19 57 31 158t13 195zM253 -72q-1 -47 21 -64t75 -17h338q13 0 21 8t8 19q0 10 -8 17.5t-22 7.5h-349q-23 0 -23 26v175 q0 19 -10 30t-27 11h-80q-27 0 -27 -17q0 -9 5.5 -13t26.5 -8q28 -8 39.5 -18.5t11.5 -36.5v-120z" />
<glyph unicode="&#xad58;" d="M683 679q0 44 -42 44h-410q-28 0 -28 -24q0 -27 28 -27h387q0 -196 -12 -278q-2 -14 -2 -17h-64v140q0 41 -35 41h-68q-28 0 -28 -18q0 -15 24 -19q27 -5 37 -16t10 -39v-89h-116v125q0 19 -9.5 30.5t-25.5 11.5h-70q-28 0 -28 -18q0 -15 23 -20q28 -5 38 -16t10 -39v-74 h-232q-13 0 -20.5 -7t-7.5 -17q0 -27 28 -27h775q29 0 29 26q0 25 -29 25h-206q1 1 1 3t1 3q42 126 42 296zM219 61q-22 0 -22 -16q0 -13 19 -19q21 -6 29.5 -16t8.5 -31v-68q0 -32 16.5 -50t47.5 -18h376q27 0 27 26q0 10 -7.5 17.5t-20.5 7.5h-348q-30 0 -30 30v87h337 q35 0 35 43v133q0 37 -33 37h-404q-27 0 -27 -24q0 -26 28 -26h374v-113h-406z" />
<glyph unicode="&#xad61;" d="M683 679q0 44 -42 44h-410q-28 0 -28 -24q0 -27 28 -27h387q0 -196 -12 -278q-2 -14 -2 -17h-64v140q0 41 -35 41h-68q-28 0 -28 -18q0 -15 24 -19q27 -5 37 -16t10 -39v-89h-116v125q0 19 -9.5 30.5t-25.5 11.5h-70q-28 0 -28 -18q0 -15 23 -20q28 -5 38 -16t10 -39v-74 h-232q-13 0 -20.5 -7t-7.5 -17q0 -27 28 -27h775q29 0 29 26q0 25 -29 25h-206q1 1 1 3t1 3q42 126 42 296zM305 23h311v-118h-311v118zM675 -145q22 0 22 25q0 24 -26 24h-7q13 26 13 71v206q0 39 -35 39h-65q-26 0 -26 -16q0 -14 26 -19q23 -5 31 -12.5t8 -32.5v-67h-311 v89q0 39 -33 39h-67q-15 0 -20.5 -3t-5.5 -13q0 -8 4.5 -12t18.5 -6q23 -5 32.5 -15.5t9.5 -34.5v-289h13q24 0 33 27h385z" />
<glyph unicode="&#xad63;" d="M683 674q0 43 -42 43h-410q-28 0 -28 -23q0 -27 28 -27h387q0 -10 0.5 -59.5t0 -67t-2 -54.5t-5 -63.5t-8.5 -52.5q-2 -11 -1 -13t11 -4q22 -6 26 7q44 118 44 314zM70 341q-13 0 -20.5 -7t-7.5 -17q0 -26 28 -26h775q29 0 29 24q0 26 -29 26h-304v161q0 41 -34 41h-69 q-28 0 -28 -18q0 -15 24 -19q27 -6 37 -17t10 -39v-109h-117v140q0 18 -9.5 29.5t-26.5 11.5h-69q-28 0 -28 -18q0 -15 23 -19q28 -5 38 -16t10 -39v-89h-232zM474 79q20 35 27 67q5 24 -4 41t-37 17h-72q-16 0 -21 -3.5t-5 -13.5q0 -15 21 -18q28 -4 35.5 -10t5.5 -19 q-12 -61 -89 -143.5t-139 -110.5q-19 -8 -12 -21q7 -12 27 -6q54 17 122 68t114 112l231 -165q17 -11 32 -4q9 3 15.5 12t5.5 19q-2 19 -19 29z" />
<glyph unicode="&#xad6c;" d="M683 654q0 42 -42 42h-410q-28 0 -28 -25q0 -27 28 -27h387v-56v-60.5t-0.5 -52.5t-2 -57t-4.5 -48.5t-7 -49.5h-534q-13 0 -20.5 -7t-7.5 -16q0 -26 28 -26h359v-381h16q19 0 31.5 22.5t12.5 67.5v291h356q29 0 29 25q0 24 -29 24h-200q36 130 38 334z" />
<glyph unicode="&#xad6d;" d="M683 674q0 43 -42 43h-410q-28 0 -28 -23q0 -27 28 -27h387q0 -209 -10 -273h-538q-28 0 -28 -25t28 -25h359v-151h-206q-20 0 -20 -26q0 -10 5.5 -17t14.5 -7h393v-292h16q19 0 32 23t13 66v215q0 38 -37 38h-162q11 24 11 64v87h356q29 0 29 24q0 26 -29 26h-195 q33 113 33 280z" />
<glyph unicode="&#xad70;" d="M683 654q0 42 -42 42h-410q-28 0 -28 -25q0 -27 28 -27h387v-55.5v-58.5t-0.5 -52t-2 -55.5t-4 -47.5t-6.5 -49h-535q-13 0 -20.5 -7.5t-7.5 -17.5q0 -26 28 -26h389v-255h17q19 0 31.5 23t12.5 69v163h325q29 0 29 25q0 10 -7 18t-22 8h-198q34 130 36 328zM253 -72 q-1 -47 21 -64t75 -17h338q13 0 21 8t8 19q0 10 -8 17.5t-22 7.5h-349q-23 0 -23 26v175q0 19 -10 30t-27 11h-80q-27 0 -27 -17q0 -9 5.5 -13t26.5 -8q28 -8 39.5 -18.5t11.5 -36.5v-120z" />
<glyph unicode="&#xad73;" d="M683 674q0 43 -42 43h-410q-28 0 -28 -23q0 -27 28 -27h387q0 -209 -10 -273h-538q-28 0 -28 -25t28 -25h359v-162h-218q-23 0 -23 -16t22 -20q24 -5 31 -19t7 -50v-166q0 -64 65 -64h357q26 0 26 26q0 25 -28 25h-334q-25 0 -25 28v206h355q22 0 22 24q0 26 -22 26h-192 q17 24 17 75v87h356q29 0 29 24q0 26 -29 26h-195q33 113 33 280z" />
<glyph unicode="&#xad74;" d="M683 679q0 44 -42 44h-410q-28 0 -28 -24q0 -27 28 -27h387q0 -191 -10 -265h-538q-13 0 -20.5 -7.5t-7.5 -17.5q0 -26 28 -26h359v-132h-179q-27 0 -27 -24q0 -26 28 -26h374v-113h-406q-22 0 -22 -16q0 -13 19 -19q21 -6 29.5 -16t8.5 -31v-68q0 -32 16.5 -50t47.5 -18 h376q27 0 27 26q0 10 -7.5 17.5t-20.5 7.5h-348q-30 0 -30 30v87h337q35 0 35 43v133q0 37 -33 37h-170q5 22 5 49v83h356q29 0 29 25q0 10 -7 18t-22 8h-196q34 117 34 272z" />
<glyph unicode="&#xad75;" d="M683 679q0 44 -42 44h-410q-28 0 -28 -24q0 -27 28 -27h387q0 -191 -10 -265h-538q-13 0 -20.5 -7.5t-7.5 -17.5q0 -26 28 -26h359v-137q-3 1 -11 1h-212q-27 0 -27 -25t28 -25h182v-109h-206q-21 0 -21 -15q0 -12 14 -17q19 -7 25 -17.5t6 -32.5v-65q0 -31 16.5 -49 t47.5 -18h186q12 0 19 7.5t7 18.5q0 10 -7 17.5t-19 7.5h-157q-32 0 -32 30v83h148q34 0 34 43v128q39 7 39 91v83h356q29 0 29 25q0 10 -7 18t-22 8h-196q34 117 34 272zM721 183q0 37 -36 37h-185q-9 0 -15.5 -7.5t-6.5 -17.5t6.5 -17.5t16.5 -7.5h158v-323h18q18 0 31 23 t13 65v248z" />
<glyph unicode="&#xad76;" d="M683 679q0 44 -42 44h-410q-28 0 -28 -24q0 -27 28 -27h387q0 -191 -10 -265h-538q-13 0 -20.5 -7.5t-7.5 -17.5q0 -26 28 -26h359v-174h16q5 0 8 1q15 -6 20 -15.5t5 -33.5v-297h19q17 0 25 27h219q20 0 20 26q0 23 -23 23h-8q12 26 12 71v201q0 33 -32 33h-228 q7 24 7 55v83h356q29 0 29 25q0 10 -7 18t-22 8h-196q34 117 34 272zM140 61q-21 0 -21 -15q0 -16 17 -24q12 -5 17 -8t8.5 -11t3.5 -22v-66q0 -30 21 -49t53 -19h177q25 0 25 26q0 25 -26 25h-158q-30 0 -30 32v81h146q35 0 35 43v127q0 37 -32 37h-212q-26 0 -26 -25 q0 -10 7 -17.5t20 -7.5h183v-107h-208zM681 168v-254h-144q2 12 2 34v220h142z" />
<glyph unicode="&#xad7b;" d="M683 679q0 44 -42 44h-410q-28 0 -28 -24q0 -27 28 -27h387q0 -193 -11 -272h-537q-13 0 -20.5 -7.5t-7.5 -17.5q0 -11 7.5 -19t20.5 -8h359v-155h16q19 0 31.5 22.5t12.5 67.5v65h356q29 0 29 26q0 10 -7 18t-22 8h-199q37 118 37 279zM140 62q-20 0 -20 -15 q0 -13 15 -17q18 -7 24 -17.5t6 -32.5v-66q0 -31 16.5 -49.5t47.5 -18.5h198q12 0 19 8t7 19q0 10 -7 17.5t-19 7.5h-169q-32 0 -32 30v84h148q35 0 35 43v129q0 38 -33 38h-211q-27 0 -27 -24q0 -26 28 -26h181v-110h-207zM538 165q20 -12 53 -12h75q29 0 29 23 q0 27 -32 27q-52 0 -79.5 6t-68.5 26q-18 6 -29 -7q-5 -8 -3.5 -17t9.5 -14zM445 104q-13 0 -20.5 -7.5t-7.5 -18.5q0 -25 28 -25h57q-41 -36 -41 -88q0 -55 39 -92t99 -37t100.5 37t40.5 93q0 50 -42 87h57q28 0 28 25q0 11 -7.5 18.5t-20.5 7.5h-310zM518 -31 q0 34 22.5 58t58.5 24q35 0 59 -24t24 -58q0 -35 -24 -61t-59 -26q-36 0 -58.5 26t-22.5 61z" />
<glyph unicode="&#xad7c;" d="M683 674q0 43 -42 43h-410q-28 0 -28 -23q0 -27 28 -27h387q0 -209 -10 -273h-538q-28 0 -28 -25t28 -25h359v-165h-215q-25 0 -25 -16q0 -14 23 -20q21 -6 29 -16t8 -36v-264h18q16 0 27 26h383q21 0 21 25q0 26 -23 26h-9q13 27 13 75v166q0 34 -31 34h-178 q19 24 19 78v87h356q29 0 29 24q0 26 -29 26h-195q33 113 33 280zM618 129v-224h-312q4 26 4 33v191h308z" />
<glyph unicode="&#xad7d;" d="M683 679q0 44 -42 44h-410q-28 0 -28 -24q0 -27 28 -27h387q0 -191 -10 -265h-538q-13 0 -20.5 -7.5t-7.5 -17.5q0 -26 28 -26h359v-174h16q19 0 31.5 23t12.5 68v83h356q29 0 29 25q0 10 -7 18t-22 8h-196q34 117 34 272zM305 23h311v-118h-311v118zM675 -145 q22 0 22 25q0 24 -26 24h-7q13 26 13 71v206q0 39 -35 39h-65q-26 0 -26 -16q0 -14 26 -19q23 -5 31 -12.5t8 -32.5v-67h-311v89q0 39 -33 39h-67q-15 0 -20.5 -3t-5.5 -13q0 -8 4.5 -12t18.5 -6q23 -5 32.5 -15.5t9.5 -34.5v-289h13q24 0 33 27h385z" />
<glyph unicode="&#xad7f;" d="M683 674q0 43 -42 43h-410q-28 0 -28 -23q0 -27 28 -27h387q0 -209 -10 -273h-538q-28 0 -28 -25t28 -25h359v-140h-41q-16 0 -21 -3.5t-5 -13.5q0 -15 21 -18q28 -4 35.5 -10t5.5 -19q-12 -61 -89 -143.5t-139 -110.5q-19 -8 -12 -21q7 -12 27 -6q54 17 122 68t114 112 l231 -165q17 -11 32 -4q9 3 15.5 12t5.5 19q-2 19 -19 29l-238 149q20 35 27 67q10 42 -20 54q8 22 8 57v87h356q29 0 29 24q0 26 -29 26h-195q33 113 33 280z" />
<glyph unicode="&#xad81;" d="M683 674q0 43 -42 43h-410q-28 0 -28 -23q0 -27 28 -27h387q0 -209 -10 -273h-538q-28 0 -28 -25t28 -25h359v-129q-74 -9 -124.5 -60.5t-50.5 -123.5q0 -79 60 -132.5t144 -53.5q83 0 143.5 53.5t60.5 132.5q0 74 -51 124.5t-126 59.5q4 16 4 42v87h356q29 0 29 24 q0 26 -29 26h-195q33 113 33 280zM317 31q0 56 42.5 95.5t98.5 39.5q55 0 98 -40t43 -95t-43 -94.5t-98 -39.5q-57 0 -99 39t-42 95z" />
<glyph unicode="&#xad82;" d="M683 679q0 44 -42 44h-410q-28 0 -28 -24q0 -27 28 -27h387q0 -196 -12 -278v-2h-536q-13 0 -20.5 -7t-7.5 -17q0 -26 28 -26h359v-141h-155q-8 0 -14 -7t-6 -17q0 -12 6 -19.5t14 -7.5h276q-36 -79 -131 -158.5t-184 -115.5q-20 -7 -12 -28q8 -12 27 -6q122 34 234 125 l199 -120q13 -7 32 0q21 8 21 32t-18 34l-188 94q76 73 99 147q6 18 -2.5 32.5t-28.5 14.5h-120q11 24 11 64v77h356q29 0 29 24q0 26 -29 26h-201q39 123 39 287z" />
<glyph unicode="&#xad88;" horiz-adv-x="850" d="M485 650q0 41 -42 41h-344q-14 0 -21.5 -6.5t-7.5 -16.5q0 -11 8 -19t23 -8h318q0 -30 0.5 -79.5t0 -67t-1.5 -47t-3.5 -49t-6.5 -42.5q-2 -13 -1 -17h-354q-30 0 -30 -24t29 -24h205v-370h16q19 0 32 23t13 68v279h30q69 0 146 10.5t113 27.5q11 6 14.5 14t-2 12.5 t-18.5 1.5q-71 -15 -161 -17l3 6q40 95 42 304zM473 144h197v-244h15q47 0 47 90v734q0 18 -9.5 29.5t-27.5 11.5h-90q-27 0 -27 -18q0 -13 33 -19q30 -5 44.5 -17t14.5 -39v-478h-196q-21 0 -21 -24q0 -26 20 -26z" />
<glyph unicode="&#xad89;" horiz-adv-x="850" d="M475 662q0 44 -42 44h-320q-14 0 -22 -7.5t-8 -17.5q0 -26 31 -26h295q0 -169 -16 -240h-340q-30 0 -30 -26q0 -25 29 -25h210v-182h17q19 0 32 23t13 68v91h24q69 0 146 11t113 29q11 6 14.5 14t-2 13t-18.5 2q-67 -15 -167 -17q17 43 29 113.5t12 132.5zM734 723 q0 19 -10 30.5t-27 11.5h-90q-28 0 -28 -17q0 -12 34 -20q30 -5 44.5 -16.5t14.5 -39.5v-353h-198q-21 0 -21 -25q0 -11 6 -18t14 -7h199v-84h15q47 0 47 91v447zM715 99q0 37 -37 37h-404q-9 0 -15 -8t-6 -18q0 -11 6 -18.5t15 -7.5h380v-237h17q19 0 31.5 23t12.5 66v163z " />
<glyph unicode="&#xad8c;" horiz-adv-x="850" d="M483 657q0 43 -42 43h-342q-29 0 -29 -24q0 -11 8 -19t22 -8h317q0 -20 1 -61t1 -66.5t-2.5 -61.5t-7.5 -66h-356q-30 0 -30 -26q0 -25 29 -25h202v-191h16q19 0 32 23t13 68v100h32q69 0 146.5 11t113.5 29q11 6 14.5 14.5t-2 13t-18.5 1.5q-57 -13 -151 -17 q33 95 33 262zM734 723q0 19 -10 30.5t-27 11.5h-90q-28 0 -28 -17q0 -13 34 -20q30 -5 44.5 -16.5t14.5 -39.5v-396h-198q-21 0 -21 -25q0 -26 20 -26h199v-129h15q47 0 47 91v536zM289 -71q-1 -48 21 -64.5t75 -16.5h328q13 0 21 8t8 18q0 25 -30 25h-339q-23 0 -23 27 v136q0 42 -37 42h-80q-27 0 -27 -17q0 -10 5.5 -14t25.5 -8q29 -7 40.5 -17.5t11.5 -37.5v-81z" />
<glyph unicode="&#xad90;" horiz-adv-x="850" d="M475 670q0 43 -42 43h-320q-14 0 -22 -7.5t-8 -17.5q0 -11 8 -19t22 -8h296q0 -11 0.5 -43t0 -48.5t-1.5 -42.5t-3.5 -47.5t-7.5 -41.5q0 -2 -1 -3h-343q-30 0 -30 -25q0 -26 29 -26h200v-154h16q19 0 32 22.5t13 66.5v65h35q68 0 145 11.5t114 28.5q19 12 15 24 q-3 10 -20 5q-66 -15 -164 -17q15 33 26 105.5t11 128.5zM734 723q0 18 -10 30t-27 12h-90q-28 0 -28 -18q0 -13 34 -19q30 -5 44.5 -16.5t14.5 -39.5v-333h-198q-21 0 -21 -26q0 -11 6 -18t14 -7h199v-58h15q47 0 47 89v404zM268 33q-21 0 -21 -16q0 -14 17 -18 q21 -6 29.5 -16t8.5 -31v-48q0 -30 16.5 -48.5t47.5 -18.5h356q26 0 26 27q0 24 -27 24h-326q-32 0 -32 31v64h317q35 0 35 44v110q0 38 -34 38h-383q-26 0 -26 -26q0 -24 27 -24h354v-92h-385z" />
<glyph unicode="&#xad9c;" horiz-adv-x="850" d="M475 662q0 44 -42 44h-320q-14 0 -22 -7.5t-8 -17.5q0 -26 31 -26h295q0 -178 -16 -237h-340q-30 0 -30 -25q0 -26 29 -26h210v-170h17q19 0 32 22.5t13 67.5v80h34q68 0 140 11t109 29q11 6 14.5 14t-2 13t-18.5 2q-70 -15 -165 -17q15 37 27 111t12 132zM734 723 q0 19 -10 30.5t-27 11.5h-90q-28 0 -28 -17q0 -13 34 -20q30 -5 44.5 -16.5t14.5 -39.5v-351h-198q-21 0 -21 -24q0 -11 6 -18t14 -7h199v-80h15q47 0 47 91v440zM443 -108q-20 -21 -49 -43q-11 -8 -11 -16t8 -10t21 3q44 21 91.5 64.5t81.5 94.5l160 -130q13 -12 31 -7 q23 7 23 32q0 20 -21 35l-167 113q24 48 27 87q2 26 -5.5 39t-35.5 13h-73q-15 0 -20 -3.5t-5 -13.5q0 -3 1 -5.5t3.5 -4t4 -2.5t6.5 -2t7 -2q27 -8 35 -13.5t7 -17.5q-9 -73 -81 -165l-119 85q22 39 28 78q9 50 -42 50h-74q-15 0 -20 -3t-5 -11q0 -7 3.5 -10.5t7 -4.5 t13.5 -3q42 -10 40 -33q-3 -42 -56.5 -116.5t-100.5 -101.5q-18 -10 -12 -21.5t25 -5.5q34 10 82.5 50t85.5 92z" />
<glyph unicode="&#xad9d;" horiz-adv-x="850" d="M475 662q0 44 -42 44h-320q-14 0 -22 -7.5t-8 -17.5q0 -26 31 -26h295q0 -169 -16 -240h-340q-30 0 -30 -26q0 -25 29 -25h210v-182h17q19 0 32 23t13 68v91h24q69 0 146 11t113 29q11 6 14.5 14t-2 13t-18.5 2q-67 -15 -167 -17q17 43 29 113.5t12 132.5zM734 723 q0 19 -10 30.5t-27 11.5h-90q-28 0 -28 -17q0 -12 34 -20q30 -5 44.5 -16.5t14.5 -39.5v-353h-198q-21 0 -21 -25q0 -11 6 -18t14 -7h199v-84h15q47 0 47 91v447zM310 19q0 -77 56 -129.5t143 -52.5q84 0 142 53t58 129q0 77 -57.5 128.5t-142.5 51.5q-87 0 -143 -52.5 t-56 -127.5zM372 19q0 53 39.5 90.5t97.5 38.5q57 -1 97.5 -39t40.5 -90q0 -51 -40 -91t-98 -39q-60 -1 -98.5 38.5t-38.5 91.5z" />
<glyph unicode="&#xada4;" horiz-adv-x="890" d="M405 630q0 44 -42 44h-284q-30 0 -30 -25q0 -26 30 -26h260q0 -216 -13 -271q-2 -12 -2 -15q-36 -1 -103 -1h-169q-29 0 -29 -25q0 -24 28 -24h163v-337h16q19 0 32 23t13 68v247q159 10 218 37q11 6 15 14t-1.5 12.5t-18.5 1.5q-58 -12 -128 -15v1l1 1q22 46 33 128.5 t11 161.5zM372 152h168v-202h15q45 0 45 90v641q0 19 -9.5 30.5t-26.5 11.5h-90q-26 0 -26 -18q0 -14 34 -20q29 -5 43.5 -16.5t14.5 -38.5v-426h-167q-22 0 -22 -26q0 -11 6.5 -18.5t14.5 -7.5zM787 724q0 18 -9.5 29.5t-26.5 11.5h-90q-27 0 -27 -18q0 -13 34 -19 q29 -5 43.5 -17t14.5 -39v-772h15q46 0 46 90v734z" />
<glyph unicode="&#xadb7;" horiz-adv-x="890" d="M415 650q0 42 -42 42h-269q-30 0 -30 -23q0 -27 31 -27h244q0 -165 -12 -219v-2q-40 -1 -116 -1h-169q-29 0 -29 -26q0 -25 28 -25h163v-210h16q19 0 32 23t13 68v121q152 8 213 38q21 12 16 24q-3 8 -20 4q-41 -9 -107 -14q17 37 27.5 102.5t10.5 124.5zM787 724 q0 41 -36 41h-89q-28 0 -28 -17q0 -8 7 -12t27 -8q29 -5 43.5 -16.5t14.5 -39.5v-544h15q46 0 46 91v505zM598 680q0 43 -36 43h-90q-27 0 -27 -17q0 -15 34 -21q30 -5 44 -16t14 -39v-305h-154q-22 0 -22 -24q0 -12 6 -18.5t15 -6.5h155v-95h15q46 0 46 91v408zM541 31 q24 37 31 69q5 22 -4 39t-37 17h-71q-16 0 -21 -3.5t-5 -12.5q0 -14 22 -18q27 -4 35 -10.5t5 -19.5q-19 -56 -86.5 -124.5t-130.5 -100.5q-11 -5 -12.5 -13t7 -12.5t20.5 -0.5q45 13 107.5 56t108.5 95l217 -141q17 -11 34 -3q18 9 19 31q2 22 -20 34z" />
<glyph unicode="&#xadc0;" horiz-adv-x="850" d="M485 650q0 41 -42 41h-344q-14 0 -21.5 -6.5t-7.5 -16.5q0 -11 8 -19t23 -8h318q0 -30 0.5 -79.5t0 -67t-1.5 -47t-3.5 -49t-6.5 -42.5q-2 -13 -1 -17h-354q-30 0 -30 -24t29 -24h206v-371h16q19 0 32 23t13 68v280h29q69 0 146 10.5t113 27.5q11 6 14.5 14t-2 12.5 t-18.5 1.5q-71 -15 -161 -17l3 6q40 95 42 304zM729 724q0 18 -9.5 29.5t-27.5 11.5h-90q-27 0 -27 -18q0 -13 33 -19q30 -5 44.5 -17t14.5 -39v-772h15q47 0 47 90v734z" />
<glyph unicode="&#xadc1;" horiz-adv-x="850" d="M475 662q0 44 -42 44h-320q-14 0 -22 -7.5t-8 -17.5q0 -26 31 -26h295q0 -172 -17 -242h-339q-30 0 -30 -25q0 -26 29 -26h195v-181h17q44 0 44 91v90h40q69 0 146 11.5t113 29.5q11 6 14.5 14t-2 13t-18.5 2q-66 -16 -167 -18q16 43 28.5 114.5t12.5 133.5zM729 723 q0 19 -10 30.5t-27 11.5h-90q-28 0 -28 -17q0 -13 34 -20q30 -5 44.5 -16.5t14.5 -39.5v-487h15q47 0 47 91v447zM715 99q0 37 -37 37h-404q-9 0 -15 -8t-6 -18q0 -11 6 -18.5t15 -7.5h380v-237h17q19 0 31.5 23t12.5 66v163z" />
<glyph unicode="&#xadc4;" horiz-adv-x="850" d="M483 657q0 43 -42 43h-342q-29 0 -29 -24q0 -11 8 -19t22 -8h317q0 -20 1 -62.5t1 -67.5t-2.5 -62t-8.5 -68h-355q-15 0 -22.5 -7.5t-7.5 -18.5q0 -26 29 -26h202v-172h16q19 0 32 23t13 68v81h33q68 0 145 11.5t114 28.5q21 13 15 25q-4 8 -20 4q-61 -12 -153 -16 q34 96 34 267zM729 723q0 19 -10 30.5t-27 11.5h-90q-28 0 -28 -17q0 -12 34 -20q30 -5 44.5 -16.5t14.5 -39.5v-583h15q47 0 47 91v543zM289 -71q-1 -48 21 -64.5t75 -16.5h328q13 0 21 8t8 18q0 25 -30 25h-339q-23 0 -23 27v136q0 42 -37 42h-80q-27 0 -27 -17 q0 -10 5.5 -14t25.5 -8q29 -7 40.5 -17.5t11.5 -37.5v-81z" />
<glyph unicode="&#xadc8;" horiz-adv-x="850" d="M475 670q0 43 -42 43h-320q-14 0 -22 -7.5t-8 -17.5q0 -11 8 -19t22 -8h296q0 -11 0.5 -43t0 -48.5t-1.5 -42.5t-3.5 -47.5t-7.5 -41.5q-2 -8 -2 -10h-342q-15 0 -22.5 -7.5t-7.5 -18.5q0 -26 29 -26h200v-151h16q19 0 32 22.5t13 67.5v61h35q68 0 145 11.5t114 28.5 q19 12 15 24q-3 10 -20 5q-69 -14 -168 -16q17 29 29 105t12 136zM729 723q0 18 -10 30t-27 12h-90q-28 0 -28 -18q0 -13 34 -19q30 -5 44.5 -16.5t14.5 -39.5v-447h15q47 0 47 89v409zM268 33q-21 0 -21 -16q0 -14 17 -18q21 -6 29.5 -16t8.5 -31v-48q0 -30 16.5 -48.5 t47.5 -18.5h356q26 0 26 27q0 24 -27 24h-326q-32 0 -32 31v64h317q35 0 35 44v110q0 38 -34 38h-383q-26 0 -26 -26q0 -24 27 -24h354v-92h-385z" />
<glyph unicode="&#xadd0;" horiz-adv-x="850" d="M475 662q0 44 -42 44h-320q-14 0 -22 -7.5t-8 -17.5q0 -26 31 -26h295q0 -172 -17 -242h-339q-30 0 -30 -25q0 -26 29 -26h195v-181h17q44 0 44 91v90h40q69 0 146 11.5t113 29.5q11 6 14.5 14t-2 13t-18.5 2q-66 -16 -167 -18q16 43 28.5 114.5t12.5 133.5zM729 723 q0 19 -10 30.5t-27 11.5h-90q-28 0 -28 -17q0 -13 34 -20q30 -5 44.5 -16.5t14.5 -39.5v-487h15q47 0 47 91v447zM654 87v-192h-295q4 26 4 33v159h291zM713 -156q22 0 22 24q0 26 -25 26h-7q12 28 12 75v135q0 34 -31 34h-416q-25 0 -25 -16q0 -14 22 -20q21 -6 29 -16.5 t8 -36.5v-233h19q7 0 15 8t12 20h365z" />
<glyph unicode="&#xadd1;" horiz-adv-x="850" d="M475 670q0 43 -42 43h-320q-14 0 -22 -7.5t-8 -17.5q0 -11 8 -19t22 -8h296q0 -11 0.5 -43t0 -48.5t-1.5 -42.5t-3.5 -47.5t-7.5 -41.5q-2 -8 -2 -10h-342q-15 0 -22.5 -7.5t-7.5 -18.5q0 -26 29 -26h200v-151h16q19 0 32 22.5t13 67.5v61h35q68 0 145 11.5t114 28.5 q19 12 15 24q-3 10 -20 5q-69 -14 -168 -16q17 29 29 105t12 136zM729 723q0 18 -10 30t-27 12h-90q-28 0 -28 -18q0 -13 34 -19q30 -5 44.5 -16.5t14.5 -39.5v-447h15q47 0 47 89v409zM363 8h291v-112h-291v112zM713 -155q22 0 22 25t-24 25h-7q11 29 11 72v195 q0 38 -35 38h-65q-26 0 -26 -16q0 -13 26 -20q15 -4 21.5 -6.5t12 -11.5t5.5 -26v-61h-291v81q0 39 -32 39h-68q-14 0 -19 -3t-5 -13q0 -9 4 -12.5t17 -5.5q23 -5 32.5 -15t9.5 -34v-276h14q24 0 34 25h363z" />
<glyph unicode="&#xadd3;" horiz-adv-x="850" d="M475 662q0 44 -42 44h-320q-14 0 -22 -7.5t-8 -17.5q0 -26 31 -26h295q0 -174 -17 -244q-1 -2 -1 -7h-338q-15 0 -22.5 -7.5t-7.5 -18.5q0 -26 29 -26h200v-189h16q19 0 32 23t13 68v98h35q69 0 146 11t113 29q11 6 14.5 14.5t-2 13t-18.5 1.5q-64 -14 -171 -16 q18 40 31.5 115.5t13.5 141.5zM729 723q0 18 -10 30t-27 12h-90q-28 0 -28 -18q0 -13 34 -19q30 -5 44.5 -16.5t14.5 -39.5v-519h15q47 0 47 91v479zM500 49q21 33 31 71q5 23 -4 40t-36 17h-72q-26 0 -26 -15q0 -16 21 -19q28 -4 35.5 -10t5.5 -20q-18 -68 -85.5 -138 t-133.5 -108q-11 -6 -11.5 -14.5t8 -12t21.5 0.5q52 19 113 65.5t105 101.5l215 -153q13 -11 32 -3q20 9 20 32q0 16 -20 31z" />
<glyph unicode="&#xaddc;" d="M683 654q0 42 -42 42h-410q-28 0 -28 -25q0 -27 28 -27h387v-50v-53t-0.5 -47.5t-1.5 -50.5t-2.5 -44.5t-4.5 -46.5t-7 -41h-532q-13 0 -20.5 -7t-7.5 -16q0 -26 28 -26h212v-382h16q44 0 44 90v292h232v-382h16q20 0 32.5 22.5t12.5 67.5v292h210q29 0 29 25 q0 24 -29 24h-203q39 128 41 343z" />
<glyph unicode="&#xade0;" d="M683 654q0 42 -42 42h-410q-28 0 -28 -25q0 -27 28 -27h387v-54.5v-57.5t-0.5 -51t-1.5 -54.5t-3.5 -47.5t-6.5 -48h-536q-13 0 -20.5 -7t-7.5 -17q0 -26 28 -26h301v-233h17q19 0 31.5 23t12.5 68v142h152v-233h17q44 0 44 91v142h200q29 0 29 25t-29 25h-197 q33 133 35 323zM253 -72q-1 -47 21 -64t75 -17h338q13 0 21 8t8 19q0 10 -8 17.5t-22 7.5h-349q-23 0 -23 26v175q0 19 -10 30t-27 11h-80q-27 0 -27 -17q0 -9 5.5 -13t26.5 -8q28 -8 39.5 -18.5t11.5 -36.5v-120z" />
<glyph unicode="&#xade4;" d="M683 679q0 44 -42 44h-410q-28 0 -28 -24q0 -27 28 -27h387q0 -190 -10 -264h-538q-13 0 -20.5 -7.5t-7.5 -17.5q0 -11 7.5 -19t20.5 -8h212v-132h-32q-27 0 -27 -24q0 -26 28 -26h374v-113h-406q-22 0 -22 -16q0 -13 19 -19q21 -6 29.5 -16t8.5 -31v-68q0 -32 16.5 -50 t47.5 -18h376q27 0 27 26q0 10 -7.5 17.5t-20.5 7.5h-348q-30 0 -30 30v87h337q35 0 35 43v133q0 37 -33 37h-37q18 23 18 75v57h210q29 0 29 26q0 10 -7 18t-22 8h-196q34 115 34 271zM574 224h-249q17 24 17 75v57h232v-132z" />
<glyph unicode="&#xadf8;" d="M683 617q0 44 -42 44h-420q-14 0 -21.5 -7t-7.5 -17q0 -27 29 -27h397q0 -237 -11 -320q-5 -36 -12 -65q-6 -24 10 -28q16 -6 25 17q53 121 53 403zM70 79q-13 0 -20.5 -7t-7.5 -17q0 -26 28 -26h775q29 0 29 25t-29 25h-775z" />
<glyph unicode="&#xadf9;" d="M683 674q0 43 -42 43h-410q-28 0 -28 -23q0 -27 28 -27h387q0 -15 0.5 -57t0 -62.5t-1.5 -53.5t-3.5 -59t-7.5 -51h-536q-13 0 -20.5 -7t-7.5 -17q0 -26 28 -26h775q29 0 29 25t-29 25h-198q36 116 36 290zM677 155q0 38 -37 38h-417q-20 0 -20 -26q0 -10 5.5 -17 t14.5 -7h393v-292h16q19 0 32 23t13 66v215z" />
<glyph unicode="&#xadfc;" d="M683 654q0 42 -42 42h-410q-28 0 -28 -25q0 -27 28 -27h387v-56v-60t-0.5 -52.5t-2 -57t-4.5 -48t-7 -49.5h-534q-13 0 -20.5 -7t-7.5 -16q0 -25 28 -25h775q29 0 29 24t-29 24h-200q36 130 38 333zM253 -72q-1 -47 21 -64t75 -17h338q13 0 21 8t8 19q0 10 -8 17.5 t-22 7.5h-349q-23 0 -23 26v175q0 19 -10 30t-27 11h-80q-27 0 -27 -17q0 -9 5.5 -13t26.5 -8q28 -8 39.5 -18.5t11.5 -36.5v-120z" />
<glyph unicode="&#xadff;" d="M683 674q0 43 -42 43h-410q-28 0 -28 -23q0 -27 28 -27h387q0 -15 0.5 -57t0 -62.5t-1.5 -53.5t-3.5 -59t-7.5 -51h-536q-13 0 -20.5 -7t-7.5 -17q0 -26 28 -26h775q29 0 29 25t-29 25h-198q36 116 36 290zM664 132q22 0 22 24q0 26 -22 26h-453q-23 0 -23 -16t22 -20 q24 -5 31 -19t7 -50v-166q0 -64 65 -64h357q26 0 26 26q0 25 -28 25h-334q-25 0 -25 28v206h355z" />
<glyph unicode="&#xae00;" d="M683 679q0 44 -42 44h-410q-28 0 -28 -24q0 -27 28 -27h387q0 -192 -11 -269h-537q-13 0 -20.5 -7t-7.5 -17q0 -26 28 -26h775q29 0 29 25t-29 25h-198q36 119 36 276zM219 61q-22 0 -22 -16q0 -13 19 -19q21 -6 29.5 -16t8.5 -31v-68q0 -32 16.5 -50t47.5 -18h376 q27 0 27 26q0 10 -7.5 17.5t-20.5 7.5h-348q-30 0 -30 30v87h337q35 0 35 43v133q0 37 -33 37h-404q-27 0 -27 -24q0 -26 28 -26h374v-113h-406z" />
<glyph unicode="&#xae01;" d="M683 679q0 44 -42 44h-410q-28 0 -28 -24q0 -27 28 -27h387q0 -192 -11 -269h-537q-13 0 -20.5 -7t-7.5 -17q0 -26 28 -26h775q29 0 29 25t-29 25h-198q36 119 36 276zM183 61q-21 0 -21 -15q0 -12 14 -17q19 -7 25 -17.5t6 -32.5v-65q0 -31 16.5 -49t47.5 -18h186 q12 0 19 7.5t7 18.5q0 10 -7 17.5t-19 7.5h-157q-32 0 -32 30v83h148q34 0 34 43v129q0 37 -32 37h-212q-27 0 -27 -25t28 -25h182v-109h-206zM721 183q0 37 -36 37h-185q-9 0 -15.5 -7.5t-6.5 -17.5t6.5 -17.5t16.5 -7.5h158v-323h18q18 0 31 23t13 65v248z" />
<glyph unicode="&#xae08;" d="M683 674q0 43 -42 43h-410q-28 0 -28 -23q0 -27 28 -27h387q0 -15 0.5 -57t0 -62.5t-1.5 -53.5t-3.5 -59t-7.5 -51h-536q-13 0 -20.5 -7t-7.5 -17q0 -26 28 -26h775q29 0 29 25t-29 25h-198q36 116 36 290zM618 129v-224h-312q4 26 4 33v191h308zM677 -147q21 0 21 25 q0 26 -23 26h-9q13 27 13 75v166q0 34 -31 34h-434q-25 0 -25 -16q0 -14 23 -20q21 -6 29 -16t8 -36v-264h18q16 0 27 26h383z" />
<glyph unicode="&#xae09;" d="M683 679q0 44 -42 44h-410q-28 0 -28 -24q0 -27 28 -27h387q0 -192 -11 -269h-537q-13 0 -20.5 -7t-7.5 -17q0 -26 28 -26h775q29 0 29 25t-29 25h-198q36 119 36 276zM305 23h311v-118h-311v118zM675 -145q22 0 22 25q0 24 -26 24h-7q13 26 13 71v206q0 39 -35 39h-65 q-26 0 -26 -16q0 -14 26 -19q23 -5 31 -12.5t8 -32.5v-67h-311v89q0 39 -33 39h-67q-15 0 -20.5 -3t-5.5 -13q0 -8 4.5 -12t18.5 -6q23 -5 32.5 -15.5t9.5 -34.5v-289h13q24 0 33 27h385z" />
<glyph unicode="&#xae0b;" d="M683 674q0 43 -42 43h-410q-28 0 -28 -23q0 -27 28 -27h387q0 -15 0.5 -57t0 -62.5t-1.5 -53.5t-3.5 -59t-7.5 -51h-536q-13 0 -20.5 -7t-7.5 -17q0 -26 28 -26h775q29 0 29 25t-29 25h-198q36 116 36 290zM474 79q20 35 27 67q5 24 -4 41t-37 17h-72q-16 0 -21 -3.5 t-5 -13.5q0 -15 21 -18q28 -4 35.5 -10t5.5 -19q-12 -61 -89 -143.5t-139 -110.5q-19 -8 -12 -21q7 -12 27 -6q54 17 122 68t114 112l231 -165q17 -11 32 -4q9 3 15.5 12t5.5 19q-2 19 -19 29z" />
<glyph unicode="&#xae0d;" d="M683 674q0 43 -42 43h-410q-28 0 -28 -23q0 -27 28 -27h387q0 -15 0.5 -57t0 -62.5t-1.5 -53.5t-3.5 -59t-7.5 -51h-536q-13 0 -20.5 -7t-7.5 -17q0 -26 28 -26h775q29 0 29 25t-29 25h-198q36 116 36 290zM254 31q0 -79 60 -132.5t144 -53.5q83 0 143.5 53.5t60.5 132.5 q0 81 -60.5 133.5t-143.5 52.5q-84 0 -144 -53.5t-60 -132.5zM317 31q0 56 42.5 95.5t98.5 39.5q55 0 98 -40t43 -95t-43 -94.5t-98 -39.5q-57 0 -99 39t-42 95z" />
<glyph unicode="&#xae14;" horiz-adv-x="850" d="M483 613q0 42 -42 42h-341q-14 0 -22 -7t-8 -17q0 -11 8 -19t23 -8h316v-62v-59.5t-0.5 -50t-1.5 -50t-2.5 -42t-4 -43.5t-6.5 -38q-5 -25 9 -28q16 -6 27 18q41 104 45 364zM729 724q0 18 -9.5 29.5t-27.5 11.5h-90q-27 0 -27 -18q0 -13 33 -19q30 -5 44.5 -17t14.5 -39 v-772h15q47 0 47 90v734zM595 135q5 2 8.5 5.5t5.5 6.5t2.5 6t-0.5 5.5t-4 4.5t-7.5 2t-10.5 -1q-80 -19 -254 -19h-284q-29 0 -29 -25t28 -25h286q71 0 147 11t112 29z" />
<glyph unicode="&#xae30;" horiz-adv-x="850" d="M101 620q-29 0 -29 -25q0 -26 28 -26h283q-26 -103 -121 -209.5t-190 -163.5q-6 -4 -7.5 -13t2.5 -13q8 -12 27 -3q120 56 230 172t136 243q3 14 -6.5 26t-28.5 12h-324zM729 724q0 18 -9.5 29.5t-27.5 11.5h-90q-27 0 -27 -18q0 -13 33 -19q30 -5 44.5 -17t14.5 -39 v-772h15q47 0 47 90v734z" />
<glyph unicode="&#xae31;" horiz-adv-x="850" d="M101 665q-29 0 -29 -26q0 -24 28 -24h283q-31 -98 -129.5 -187t-191.5 -133q-6 -3 -7.5 -11.5t2.5 -15.5q8 -9 26 -3q75 26 154 78.5t144 130t79 153.5q2 14 -7.5 26t-27.5 12h-324zM728 724q0 18 -9.5 29.5t-27.5 11.5h-89q-27 0 -27 -18q0 -13 34 -19q29 -5 43.5 -16.5 t14.5 -39.5v-435h15q46 0 46 89v398zM715 141q0 20 -8.5 29t-28.5 9h-404q-21 0 -21 -26q0 -10 6 -17.5t15 -7.5h380v-291h17q19 0 31.5 23t12.5 66v215z" />
<glyph unicode="&#xae34;" horiz-adv-x="850" d="M101 660q-29 0 -29 -26q0 -25 28 -25h283q-31 -96 -130 -196.5t-190 -146.5q-7 -4 -8.5 -13.5t2.5 -13.5q7 -10 27 -3q122 48 238 160.5t138 225.5q2 14 -7.5 26t-27.5 12h-324zM728 723q0 42 -37 42h-89q-27 0 -27 -17q0 -14 34 -20q29 -5 43.5 -16.5t14.5 -39.5v-579 h15q46 0 46 90v540zM294 -77q-1 -47 21 -64t75 -17h327q15 0 22.5 8t7.5 19q0 25 -31 25h-337q-24 0 -24 25v182q0 42 -37 42h-78q-28 0 -28 -18q0 -9 5.5 -13t26.5 -8q28 -8 39 -18t11 -37v-126z" />
<glyph unicode="&#xae37;" horiz-adv-x="850" d="M101 665q-29 0 -29 -26q0 -24 28 -24h283q-31 -98 -129.5 -187t-191.5 -133q-6 -3 -7.5 -11.5t2.5 -15.5q8 -9 26 -3q75 26 154 78.5t144 130t79 153.5q2 14 -7.5 26t-27.5 12h-324zM728 724q0 18 -9.5 29.5t-27.5 11.5h-89q-27 0 -27 -18q0 -13 34 -19q29 -5 43.5 -16.5 t14.5 -39.5v-435h15q46 0 46 89v398zM692 120q9 0 15 7t6 17q0 26 -21 26h-429q-22 0 -22 -16q0 -9 5 -13.5t18 -7.5q23 -4 29.5 -18t6.5 -50v-164q0 -64 65 -64h332q27 0 27 26q0 25 -28 25h-309q-26 0 -26 27v205h331z" />
<glyph unicode="&#xae38;" horiz-adv-x="850" d="M101 675q-29 0 -29 -26q0 -25 28 -25h285q-31 -91 -132 -184t-190 -132q-6 -3 -8 -12t2 -14q6 -9 23 -4q68 21 148.5 73.5t149 131.5t83.5 154q3 14 -6.5 26t-28.5 12h-325zM728 724q0 18 -9.5 29.5t-27.5 11.5h-89q-27 0 -27 -17q0 -7 7 -11t27 -9q29 -5 43.5 -16.5 t14.5 -39.5v-393h15q46 0 46 89v356zM273 55q-21 0 -21 -15t18 -19q21 -6 29.5 -15.5t8.5 -31.5v-70q0 -31 16.5 -49t47.5 -18h345q26 0 26 26q0 10 -7 17.5t-20 7.5h-316q-31 0 -31 29v89h306q35 0 35 43v134q0 37 -33 37h-373q-27 0 -27 -25q0 -10 7 -17.5t21 -7.5h343 v-115h-375z" />
<glyph unicode="&#xae3a;" horiz-adv-x="850" d="M101 675q-29 0 -29 -26q0 -25 28 -25h285q-31 -91 -132 -184t-190 -132q-6 -3 -8 -12t2 -14q6 -9 23 -4q68 21 148.5 73.5t149 131.5t83.5 154q3 14 -6.5 26t-28.5 12h-325zM728 724q0 18 -9.5 29.5t-27.5 11.5h-89q-27 0 -27 -17q0 -7 7 -11t27 -9q29 -5 43.5 -16.5 t14.5 -39.5v-393h15q46 0 46 89v356zM120 53q-21 0 -21 -14t16 -18q18 -7 23.5 -17t5.5 -32v-68q0 -30 17 -48.5t47 -18.5h198q25 0 25 26q0 25 -26 25h-168q-32 0 -32 29v87h158q35 0 35 43v132q0 37 -32 37h-223q-25 0 -25 -25q0 -10 6.5 -18t19.5 -8h194v-112h-218z M671 165v-261h-144q2 11 2 34v227h142zM730 -147q21 0 21 26q0 24 -23 24h-8q12 26 12 72v208q0 33 -32 33h-249q-27 0 -27 -15q0 -12 17 -19q16 -7 21.5 -16t5.5 -34v-305h19q17 0 25 26h218z" />
<glyph unicode="&#xae40;" horiz-adv-x="850" d="M101 665q-29 0 -29 -26q0 -24 28 -24h283q-31 -98 -129.5 -187t-191.5 -133q-6 -3 -7.5 -11.5t2.5 -15.5q8 -9 26 -3q75 26 154 78.5t144 130t79 153.5q2 14 -7.5 26t-27.5 12h-324zM728 724q0 18 -9.5 29.5t-27.5 11.5h-89q-27 0 -27 -18q0 -13 34 -19q29 -5 43.5 -16.5 t14.5 -39.5v-435h15q46 0 46 89v398zM654 117v-222h-295q4 26 4 33v189h291zM713 -157q22 0 22 25t-24 25h-7q11 29 11 76v165q0 34 -31 34h-416q-25 0 -25 -16q0 -15 22 -20q21 -6 29 -16.5t8 -36.5v-263h19q16 0 27 27h365z" />
<glyph unicode="&#xae41;" horiz-adv-x="850" d="M101 675q-29 0 -29 -26q0 -25 28 -25h285q-31 -91 -132 -184t-190 -132q-6 -3 -8 -12t2 -14q6 -9 23 -4q68 21 148.5 73.5t149 131.5t83.5 154q3 14 -6.5 26t-28.5 12h-325zM728 724q0 18 -9.5 29.5t-27.5 11.5h-89q-27 0 -27 -17q0 -7 7 -11t27 -9q29 -5 43.5 -16.5 t14.5 -39.5v-393h15q46 0 46 89v356zM363 23h291v-127h-291v127zM713 -155q22 0 22 24q0 26 -24 26h-8q12 28 12 71v223q0 38 -35 38h-66q-25 0 -25 -16q0 -14 27 -19q15 -4 21 -6.5t11.5 -12t5.5 -26.5v-73h-291v81q0 39 -32 39h-68q-14 0 -19 -3t-5 -12t4 -13t17 -6 q24 -5 33 -14.5t9 -33.5v-293h14q23 0 34 26h363z" />
<glyph unicode="&#xae43;" horiz-adv-x="850" d="M101 665q-29 0 -29 -26q0 -24 28 -24h283q-31 -98 -129.5 -187t-191.5 -133q-6 -3 -7.5 -11.5t2.5 -15.5q8 -9 26 -3q75 26 154 78.5t144 130t79 153.5q2 14 -7.5 26t-27.5 12h-324zM728 724q0 18 -9.5 29.5t-27.5 11.5h-89q-27 0 -27 -18q0 -13 34 -19q29 -6 43.5 -17.5 t14.5 -38.5v-488h15q46 0 46 90v450zM503 68q25 44 31 83q8 57 -41 57h-72q-16 0 -21 -3.5t-5 -12.5q0 -13 21 -18q28 -4 35.5 -10.5t5.5 -19.5q-15 -70 -86 -154t-136 -123q-10 -6 -10.5 -15t7 -12.5t19.5 0.5q52 21 116 73.5t109 113.5l214 -174q14 -11 33 -3q20 8 20 32 q0 18 -20 32z" />
<glyph unicode="&#xae45;" horiz-adv-x="850" d="M101 665q-29 0 -29 -26q0 -24 28 -24h283q-31 -98 -129.5 -187t-191.5 -133q-6 -3 -7.5 -11.5t2.5 -15.5q8 -9 26 -3q75 26 154 78.5t144 130t79 153.5q2 14 -7.5 26t-27.5 12h-324zM728 724q0 18 -9.5 29.5t-27.5 11.5h-89q-27 0 -27 -18q0 -13 34 -19q29 -5 43.5 -16.5 t14.5 -39.5v-435h15q46 0 46 89v398zM310 27q0 -77 60 -133.5t143 -56.5t143 56.5t60 133.5t-60 134t-143 57q-85 0 -144 -56.5t-59 -134.5zM373 27q0 55 41.5 97t98.5 42t98.5 -42t41.5 -97t-41.5 -96.5t-98.5 -41.5q-58 0 -99 41t-41 97z" />
<glyph unicode="&#xae46;" horiz-adv-x="850" d="M101 671q-29 0 -29 -26q0 -25 28 -25h283q-19 -63 -79.5 -133t-125 -117.5t-117.5 -71.5q-6 -3 -7 -12t3 -14q7 -9 27 -2q70 23 148.5 75.5t145.5 131.5t82 156q3 14 -6.5 26t-28.5 12h-324zM728 724q0 18 -9.5 29.5t-27.5 11.5h-89q-27 0 -27 -18q0 -13 34 -19 q29 -5 43.5 -17t14.5 -39v-415h15q46 0 46 90v377zM580 7q75 72 97 140q6 18 -2.5 32.5t-28.5 14.5h-328q-8 0 -14 -7t-6 -17q0 -12 6 -19.5t14 -7.5h280q-36 -75 -132.5 -156.5t-181.5 -114.5q-20 -7 -12 -28q8 -12 27 -6q115 32 236 129l187 -127q12 -8 33 0q20 8 20 32 t-20 35z" />
<glyph unicode="&#xae4a;" horiz-adv-x="850" d="M101 665q-29 0 -29 -26q0 -24 28 -24h283q-31 -98 -129.5 -187t-191.5 -133q-6 -3 -7.5 -11.5t2.5 -15.5q8 -9 26 -3q75 26 154 78.5t144 130t79 153.5q2 14 -7.5 26t-27.5 12h-324zM728 724q0 18 -9.5 29.5t-27.5 11.5h-89q-27 0 -27 -18q0 -13 34 -19q29 -5 43.5 -16.5 t14.5 -39.5v-435h15q46 0 46 89v398zM255 170q-24 0 -24 -26q0 -25 24 -25h81v-231h-82q-11 0 -17 -8t-6 -17q0 -26 22 -26h461q25 0 25 26q0 9 -6.5 17t-19.5 8h-79v231h82q23 0 23 26q0 25 -24 25h-460zM573 119v-231h-177v231h177z" />
<glyph unicode="&#xae4c;" horiz-adv-x="920" d="M485 620h-407q-13 0 -20.5 -7.5t-7.5 -18.5q0 -26 28 -26h160q-15 -83 -71 -180.5t-117 -148.5q-21 -17 -9 -31q8 -12 25 -1q80 51 153 160.5t87 200.5h140q-11 -91 -69 -204t-138 -190q-12 -10 -4 -24q9 -13 26 -1q96 67 172 193.5t88 240.5q2 15 -7 26t-29 11zM722 723 q0 41 -38 41h-88q-28 0 -28 -18q0 -13 34 -19q29 -5 44 -17t15 -39v-770h15q46 0 46 90v396h156q22 0 22 24q0 26 -23 26h-155v286z" />
<glyph unicode="&#xae4d;" horiz-adv-x="920" d="M484 666h-406q-13 0 -20.5 -7.5t-7.5 -18.5q0 -25 28 -25h158q-17 -73 -72.5 -159.5t-113.5 -127.5q-8 -6 -10 -15.5t2 -13.5q7 -10 25 -1q77 42 148 135t91 182h139q-16 -87 -77 -187.5t-131 -156.5q-6 -4 -6.5 -12t2.5 -11q9 -13 27 -2q87 50 163.5 162t95.5 221 q3 14 -6.5 25.5t-28.5 11.5zM722 724q0 41 -38 41h-88q-28 0 -28 -18q0 -13 34 -19q29 -5 44 -16.5t15 -39.5v-435h15q46 0 46 89v142h156q22 0 22 25t-23 25h-155v206zM705 138q0 20 -8.5 29t-28.5 9h-405q-20 0 -20 -26q0 -10 5.5 -17.5t14.5 -7.5h381v-276h16q19 0 32 23 t13 66v200z" />
<glyph unicode="&#xae4e;" horiz-adv-x="920" d="M484 671h-406q-13 0 -20.5 -7.5t-7.5 -18.5q0 -25 28 -25h158q-15 -69 -71 -153.5t-115 -126.5q-8 -6 -10 -15.5t2 -13.5q7 -10 25 -1q78 42 149 132.5t91 177.5h138q-15 -85 -77 -183t-131 -154q-6 -4 -6.5 -12t2.5 -11q9 -13 27 -2q88 51 165 160.5t94 215.5 q3 14 -6.5 25.5t-28.5 11.5zM722 724q0 41 -38 41h-88q-28 0 -28 -18q0 -13 34 -19q29 -5 44 -17t15 -39v-415h15q46 0 46 90v130h155q23 0 23 25t-23 25h-155v197zM716 147q0 20 -8.5 29t-27.5 9h-207q-9 0 -14.5 -7t-5.5 -17q0 -26 20 -26h182v-298h17q19 0 31.5 22.5 t12.5 66.5v221zM424 147q0 38 -35 38h-219q-9 0 -15 -7t-6 -17q0 -26 21 -26h193v-298h16q19 0 32 23t13 66v221z" />
<glyph unicode="&#xae50;" horiz-adv-x="920" d="M485 660h-408q-13 0 -20.5 -7.5t-7.5 -18.5q0 -25 28 -25h160q-13 -72 -70 -156.5t-118 -136.5q-8 -7 -10 -16.5t2 -13.5q8 -12 25 -1q77 47 149 141.5t92 182.5h138q-14 -84 -74 -185t-132 -166q-13 -13 -4 -24q10 -13 27 -2q90 60 163.5 169t94.5 222q3 14 -6.5 25.5 t-28.5 11.5zM722 723q0 42 -38 42h-88q-28 0 -28 -17q0 -14 34 -20q29 -5 44 -16.5t15 -39.5v-569h15q46 0 46 90v243h155q23 0 23 25q0 26 -23 26h-155v236zM284 -77q-1 -47 21 -64t75 -17h337q15 0 22.5 8t7.5 19q0 10 -8 17.5t-22 7.5h-349q-23 0 -23 25v182 q0 19 -10 30.5t-26 11.5h-80q-27 0 -27 -18q0 -9 5.5 -13t25.5 -8q28 -8 39.5 -18.5t11.5 -36.5v-126z" />
<glyph unicode="&#xae54;" horiz-adv-x="920" d="M483 676h-405q-13 0 -20.5 -7.5t-7.5 -18.5q0 -25 28 -25h158q-16 -70 -71 -148t-115 -121q-8 -6 -10 -15.5t2 -13.5q7 -10 25 -1q79 43 149 128t90 171h138q-15 -85 -75 -176.5t-132 -149.5q-6 -4 -6.5 -12t2.5 -11q9 -13 27 -2q89 51 164.5 154.5t93.5 210.5 q3 14 -6.5 25.5t-28.5 11.5zM722 723q0 41 -38 41h-88q-28 0 -28 -17q0 -7 7 -11t27 -9q29 -5 44 -16.5t15 -39.5v-392h15q46 0 46 89v120h156q22 0 22 25t-23 25h-155v185zM268 54q-21 0 -21 -15t17 -19q22 -6 30 -15.5t8 -31.5v-68q0 -31 16.5 -49.5t47.5 -18.5h346 q26 0 26 26q0 25 -27 25h-316q-32 0 -32 29v88h307q35 0 35 43v133q0 37 -33 37h-374q-26 0 -26 -25q0 -26 27 -26h344v-113h-375z" />
<glyph unicode="&#xae56;" horiz-adv-x="920" d="M483 676h-405q-13 0 -20.5 -7.5t-7.5 -18.5q0 -25 28 -25h158q-16 -70 -71 -148t-115 -121q-8 -6 -10 -15.5t2 -13.5q7 -10 25 -1q79 43 149 128t90 171h138q-15 -85 -75 -176.5t-132 -149.5q-6 -4 -6.5 -12t2.5 -11q9 -13 27 -2q89 51 164.5 154.5t93.5 210.5 q3 14 -6.5 25.5t-28.5 11.5zM722 723q0 41 -38 41h-88q-28 0 -28 -17q0 -7 7 -11t27 -9q29 -5 44 -16.5t15 -39.5v-392h15q46 0 46 89v120h156q22 0 22 25t-23 25h-155v185zM109 53q-20 0 -20 -14q0 -13 17 -19t22.5 -16t5.5 -32v-68q0 -30 17 -48.5t47 -18.5h197 q26 0 26 26q0 25 -27 25h-167q-32 0 -32 29v87h158q35 0 35 43v132q0 37 -33 37h-222q-26 0 -26 -25q0 -10 7 -18t20 -8h193v-112h-218zM661 165v-261h-144q2 11 2 34v227h142zM719 -147q22 0 22 26q0 24 -24 24h-8q13 29 13 72v208q0 33 -32 33h-249q-27 0 -27 -15 q0 -12 17 -19q16 -7 21.5 -16t5.5 -34v-305h19q17 0 25 26h217z" />
<glyph unicode="&#xae5c;" horiz-adv-x="920" d="M484 666h-406q-13 0 -20.5 -7.5t-7.5 -18.5q0 -25 28 -25h158q-17 -73 -72.5 -159.5t-113.5 -127.5q-8 -6 -10 -15.5t2 -13.5q7 -10 25 -1q77 42 148 135t91 182h139q-16 -87 -77 -187.5t-131 -156.5q-6 -4 -6.5 -12t2.5 -11q9 -13 27 -2q87 50 163.5 162t95.5 221 q3 14 -6.5 25.5t-28.5 11.5zM722 724q0 41 -38 41h-88q-28 0 -28 -18q0 -13 34 -19q29 -5 44 -16.5t15 -39.5v-435h15q46 0 46 89v142h156q22 0 22 25t-23 25h-155v206zM644 121v-226h-295q4 28 4 34v192h291zM703 -156q21 0 21 25t-23 25h-7q11 29 11 76v168q0 33 -31 33 h-417q-25 0 -25 -16q0 -13 23 -20q21 -6 29 -16t8 -36v-266h19q14 0 27 27h365z" />
<glyph unicode="&#xae5d;" horiz-adv-x="920" d="M483 676h-405q-13 0 -20.5 -7.5t-7.5 -18.5q0 -25 28 -25h158q-16 -70 -71 -148t-115 -121q-8 -6 -10 -15.5t2 -13.5q7 -10 25 -1q79 43 149 128t90 171h138q-15 -85 -75 -176.5t-132 -149.5q-6 -4 -6.5 -12t2.5 -11q9 -13 27 -2q89 51 164.5 154.5t93.5 210.5 q3 14 -6.5 25.5t-28.5 11.5zM722 723q0 41 -38 41h-88q-28 0 -28 -17q0 -7 7 -11t27 -9q29 -5 44 -16.5t15 -39.5v-392h15q46 0 46 89v120h156q22 0 22 25t-23 25h-155v185zM353 22h291v-126h-291v126zM703 -155q21 0 21 24q0 26 -25 26h-6q12 28 12 71v222q0 38 -35 38h-65 q-15 0 -20.5 -3.5t-5.5 -12.5q0 -8 5 -11.5t21 -7.5q15 -4 21.5 -6.5t12 -12t5.5 -26.5v-73h-291v79q0 39 -32 39h-68q-25 0 -25 -15q0 -9 4 -13t18 -6q24 -5 33 -14.5t9 -33.5v-290h14q22 0 34 26h363z" />
<glyph unicode="&#xae5f;" horiz-adv-x="920" d="M484 666h-406q-13 0 -20.5 -7.5t-7.5 -18.5q0 -25 28 -25h158q-17 -73 -72.5 -159.5t-113.5 -127.5q-8 -6 -10 -15.5t2 -13.5q7 -10 25 -1q77 42 148 135t91 182h139q-16 -87 -77 -187.5t-131 -156.5q-6 -4 -6.5 -12t2.5 -11q9 -13 27 -2q87 50 163.5 162t95.5 221 q3 14 -6.5 25.5t-28.5 11.5zM722 724q0 41 -38 41h-88q-28 0 -28 -18q0 -13 34 -19q30 -6 44.5 -17.5t14.5 -38.5v-488h15q46 0 46 90v183h156q22 0 22 25t-23 25h-155v217zM513 68q25 44 31 83q8 57 -41 57h-72q-16 0 -21 -3.5t-5 -12.5q0 -13 21 -18q28 -4 35.5 -10.5 t5.5 -19.5q-15 -70 -86 -154t-136 -123q-10 -6 -10.5 -15t7 -12.5t19.5 0.5q52 21 116 73.5t109 113.5l214 -174q14 -11 33 -3q20 8 20 32q0 18 -20 32z" />
<glyph unicode="&#xae60;" horiz-adv-x="920" d="M484 671h-406q-13 0 -20.5 -7.5t-7.5 -18.5q0 -25 28 -25h158q-15 -69 -71 -153.5t-115 -126.5q-8 -6 -10 -15.5t2 -13.5q7 -10 25 -1q78 42 149 132.5t91 177.5h138q-15 -85 -77 -183t-131 -154q-6 -4 -6.5 -12t2.5 -11q9 -13 27 -2q88 51 165 160.5t94 215.5 q3 14 -6.5 25.5t-28.5 11.5zM722 724q0 41 -38 41h-88q-28 0 -28 -18q0 -13 34 -19q29 -5 44 -17t15 -39v-415h15q46 0 46 90v130h155q23 0 23 25t-23 25h-155v197zM435 -104q-25 -30 -47 -48q-16 -13 -6 -23t28 1q90 55 168 181l164 -152q13 -12 31 -7q23 7 23 32 q0 18 -21 34l-173 136q29 59 33 102q3 26 -5 39t-36 13h-73q-15 0 -20 -3.5t-5 -12.5q0 -4 1 -6.5t3.5 -4t4 -2.5t6.5 -2t7 -2q27 -8 35 -13.5t7 -17.5q-9 -80 -89 -196l-116 95q29 55 33 92q3 25 -5 38t-37 13h-74q-15 0 -20 -3t-5 -11q0 -7 3.5 -10.5t7 -4.5t13.5 -3 q21 -5 31.5 -14t8.5 -20q-7 -51 -58 -132t-102 -118q-17 -13 -10 -24t25 -3q36 17 82 62t83 99z" />
<glyph unicode="&#xae61;" horiz-adv-x="920" d="M484 666h-406q-13 0 -20.5 -7.5t-7.5 -18.5q0 -25 28 -25h158q-17 -73 -72.5 -159.5t-113.5 -127.5q-8 -6 -10 -15.5t2 -13.5q7 -10 25 -1q77 42 148 135t91 182h139q-16 -87 -77 -187.5t-131 -156.5q-6 -4 -6.5 -12t2.5 -11q9 -13 27 -2q87 50 163.5 162t95.5 221 q3 14 -6.5 25.5t-28.5 11.5zM722 724q0 41 -38 41h-88q-28 0 -28 -18q0 -13 34 -19q29 -5 44 -16.5t15 -39.5v-435h15q46 0 46 89v142h156q22 0 22 25t-23 25h-155v206zM301 27q0 -78 57.5 -134t145.5 -56q84 0 142.5 56t58.5 134q0 79 -57.5 135t-143.5 56 q-85 0 -144 -56.5t-59 -134.5zM364 27q0 56 41 97.5t99 41.5q56 0 97.5 -42t41.5 -97t-41 -96.5t-98 -41.5q-58 0 -99 41.5t-41 96.5z" />
<glyph unicode="&#xae65;" horiz-adv-x="920" d="M483 676h-405q-13 0 -20.5 -7.5t-7.5 -18.5q0 -25 28 -25h158q-16 -70 -71 -148t-115 -121q-8 -6 -10 -15.5t2 -13.5q7 -10 25 -1q79 43 149 128t90 171h138q-15 -85 -75 -176.5t-132 -149.5q-6 -4 -6.5 -12t2.5 -11q9 -13 27 -2q89 51 164.5 154.5t93.5 210.5 q3 14 -6.5 25.5t-28.5 11.5zM722 723q0 41 -38 41h-88q-28 0 -28 -17q0 -7 7 -11t27 -9q29 -5 44 -16.5t15 -39.5v-392h15q46 0 46 89v120h156q22 0 22 25t-23 25h-155v185zM693 165q10 0 16 7.5t6 18.5q0 25 -22 25h-413q-23 0 -23 -17q0 -15 22 -19q24 -5 31 -19t7 -50 v-200q0 -64 65 -64h318q26 0 26 25q0 26 -28 26h-295q-25 0 -25 27v85h300q27 0 27 25t-27 25h-300v105h315z" />
<glyph unicode="&#xae68;" d="M413 620h-347q-13 0 -20.5 -7.5t-7.5 -17.5q0 -26 27 -26h128q-11 -76 -57.5 -177t-100.5 -157q-18 -18 -9 -31q11 -13 25 -1q73 58 134 165t75 201h116q-9 -88 -64 -208t-114 -186q-11 -11 -4 -23q12 -14 26 -1q87 73 150.5 195.5t78.5 236.5q2 15 -7.5 26t-28.5 11z M797 724q0 18 -9.5 29.5t-27.5 11.5h-90q-27 0 -27 -18q0 -13 34 -19q29 -5 44 -17t15 -39v-236h-133v245q0 42 -37 42h-89q-27 0 -27 -18q0 -13 34 -20q29 -5 43.5 -16.5t14.5 -38.5v-680h15q46 0 46 90v346h133v-486h15q46 0 46 90v734z" />
<glyph unicode="&#xae69;" d="M414 655h-349q-13 0 -20 -7.5t-7 -17.5q0 -25 27 -25h129q-13 -72 -63 -163.5t-98 -134.5q-19 -15 -9 -31q11 -12 26 -1q67 45 129.5 143.5t81.5 186.5h116q-11 -87 -66.5 -192t-114.5 -164q-13 -13 -4 -24q12 -15 27 -2q79 62 147 173t84 222q2 15 -7.5 26t-28.5 11z M797 724q0 18 -9.5 29.5t-27.5 11.5h-90q-27 0 -27 -18q0 -13 34 -19q29 -5 44 -16.5t15 -39.5v-162h-133v171q0 42 -37 42h-89q-27 0 -27 -18q0 -13 34 -20q30 -5 44 -16t14 -39v-383h15q46 0 46 90v123h133v-223h15q46 0 46 89v398zM779 134q0 20 -8.5 29t-28.5 9h-415 q-20 0 -20 -26q0 -10 5.5 -17.5t14.5 -7.5h391v-284h17q18 0 31 23t13 66v208z" />
<glyph unicode="&#xae6c;" d="M414 647h-349q-27 0 -27 -26q0 -24 27 -24h129q-14 -70 -65 -160.5t-100 -137.5q-19 -18 -9 -30q11 -13 27 0q62 42 129 140.5t85 187.5h116q-11 -86 -67 -189.5t-117 -166.5q-12 -12 -5 -25q5 -5 13 -5.5t14 3.5q82 65 150.5 175t84.5 221q2 15 -7.5 26t-28.5 11z M797 722q0 42 -37 42h-90q-27 0 -27 -17q0 -14 34 -20q29 -5 44 -16.5t15 -39.5v-185h-136v195q0 43 -37 43h-89q-27 0 -27 -17q0 -14 34 -21q30 -5 44 -16t14 -39v-519h15q46 0 46 91v234h136v-346h15q46 0 46 91v540zM335 -77q-1 -47 21 -64t75 -17h337q15 0 22.5 8 t7.5 19q0 25 -30 25h-347q-25 0 -25 25v182q0 42 -37 42h-78q-28 0 -28 -18q0 -9 5.5 -13t26.5 -8q28 -8 39 -18t11 -37v-126z" />
<glyph unicode="&#xae70;" d="M413 659h-347q-13 0 -20.5 -7.5t-7.5 -17.5q0 -25 27 -25h128q-14 -70 -62.5 -152t-101.5 -128q-19 -17 -9 -29q9 -13 26 -1q69 44 130 131.5t83 178.5h117q-11 -83 -67 -181.5t-117 -156.5q-12 -11 -4 -23q11 -14 27 -2q78 57 149 163t85 212q2 16 -7.5 27t-28.5 11z M797 723q0 18 -9.5 29.5t-27.5 11.5h-90q-27 0 -27 -17q0 -7 7 -11t27 -9q29 -5 44 -16.5t15 -39.5v-144h-134v153q0 42 -37 42h-89q-27 0 -27 -17q0 -13 34 -21q30 -5 44 -16t14 -39v-350h15q46 0 46 89v110h134v-199h15q46 0 46 89v355zM330 54q-21 0 -21 -15t18 -19 q21 -6 29.5 -15.5t8.5 -31.5v-69q0 -31 16 -49t47 -18h346q26 0 26 26q0 25 -27 25h-316q-32 0 -32 29v88h307q35 0 35 43v133q0 37 -33 37h-374q-26 0 -26 -25q0 -26 27 -26h344v-113h-375z" />
<glyph unicode="&#xae78;" d="M414 655h-349q-13 0 -20 -7.5t-7 -17.5q0 -25 27 -25h129q-13 -72 -63 -163.5t-98 -134.5q-19 -15 -9 -31q11 -12 26 -1q67 45 129.5 143.5t81.5 186.5h116q-11 -87 -66.5 -192t-114.5 -164q-13 -13 -4 -24q12 -15 27 -2q79 62 147 173t84 222q2 15 -7.5 26t-28.5 11z M797 724q0 18 -9.5 29.5t-27.5 11.5h-90q-27 0 -27 -18q0 -13 34 -19q29 -5 44 -16.5t15 -39.5v-162h-133v171q0 42 -37 42h-89q-27 0 -27 -18q0 -13 34 -20q30 -5 44 -16t14 -39v-383h15q46 0 46 90v123h133v-223h15q46 0 46 89v398zM706 120v-225h-295q4 26 4 33v192h291z M765 -157q22 0 22 25q0 26 -24 26h-8q12 28 12 75v168q0 34 -31 34h-417q-25 0 -25 -16q0 -13 23 -20q21 -6 29 -16.5t8 -36.5v-266h19q16 0 27 27h365z" />
<glyph unicode="&#xae79;" d="M413 659h-347q-13 0 -20.5 -7.5t-7.5 -17.5q0 -25 27 -25h128q-14 -70 -62.5 -152t-101.5 -128q-19 -17 -9 -29q9 -13 26 -1q69 44 130 131.5t83 178.5h117q-11 -83 -67 -181.5t-117 -156.5q-12 -11 -4 -23q11 -14 27 -2q78 57 149 163t85 212q2 16 -7.5 27t-28.5 11z M797 723q0 18 -9.5 29.5t-27.5 11.5h-90q-27 0 -27 -17q0 -7 7 -11t27 -9q29 -5 44 -16.5t15 -39.5v-144h-134v153q0 42 -37 42h-89q-27 0 -27 -17q0 -13 34 -21q30 -5 44 -16t14 -39v-350h15q46 0 46 89v110h134v-199h15q46 0 46 89v355zM425 22h291v-126h-291v126z M775 -155q22 0 22 24q0 26 -26 26h-6q12 28 12 71v222q0 38 -35 38h-65q-15 0 -20.5 -3.5t-5.5 -12.5q0 -8 5 -11.5t21 -7.5q15 -4 21.5 -6.5t12 -12t5.5 -26.5v-73h-291v79q0 39 -32 39h-68q-25 0 -25 -15q0 -9 4 -13t18 -6q24 -5 33 -14.5t9 -33.5v-290h14q23 0 34 26h363 z" />
<glyph unicode="&#xae7b;" d="M414 655h-349q-13 0 -20 -7.5t-7 -17.5q0 -25 27 -25h129q-13 -72 -63 -163.5t-98 -134.5q-19 -15 -9 -31q11 -12 26 -1q67 45 129.5 143.5t81.5 186.5h116q-11 -87 -66.5 -192t-114.5 -164q-13 -13 -4 -24q12 -15 27 -2q79 62 147 173t84 222q2 15 -7.5 26t-28.5 11z M797 724q0 18 -9.5 29.5t-27.5 11.5h-90q-27 0 -27 -17q0 -7 7 -11t27 -9q29 -5 44 -16.5t15 -39.5v-165h-132v174q0 42 -37 42h-89q-27 0 -27 -17q0 -13 34 -21q30 -5 44 -16t14 -39v-382h15q46 0 46 90v119h132v-272h15q46 0 46 90v449zM553 68q25 44 31 83q8 57 -41 57 h-72q-16 0 -21 -3.5t-5 -12.5q0 -13 21 -18q28 -4 35.5 -10.5t5.5 -19.5q-15 -70 -86 -154t-136 -123q-10 -6 -10.5 -15t7 -12.5t19.5 0.5q52 21 116 73.5t109 113.5l214 -174q14 -11 33 -3q20 8 20 32q0 18 -20 32z" />
<glyph unicode="&#xae7c;" d="M414 659h-349q-13 0 -20.5 -8t-7.5 -18q0 -25 28 -25h129q-14 -70 -64.5 -153t-98.5 -123q-21 -15 -10 -30q10 -11 26 -1q67 42 131.5 131t82.5 176h116q-10 -84 -66.5 -179.5t-116.5 -155.5q-12 -12 -5 -24q10 -13 27 -2q78 58 147.5 162t86.5 212q2 15 -7.5 26.5 t-28.5 11.5zM797 724q0 18 -9.5 29.5t-27.5 11.5h-90q-27 0 -27 -18q0 -13 34 -19q29 -5 44 -17t15 -39v-155h-133v164q0 42 -37 42h-89q-27 0 -27 -18q0 -13 34 -20q29 -5 43.5 -16.5t14.5 -38.5v-361h15q46 0 46 88v110h133v-210h15q46 0 46 90v377zM505 -103 q-24 -30 -47 -49q-16 -13 -6 -23t28 1q92 58 168 181l164 -152q13 -12 31 -7q23 7 23 32q0 19 -21 35l-172 137q28 59 32 100q3 26 -5 39t-36 13h-73q-15 0 -20 -3.5t-5 -12.5q0 -4 1 -6.5t3.5 -4t4 -2.5t6.5 -2t7 -2q27 -8 35 -13.5t7 -17.5q-9 -78 -89 -196l-115 97 q28 51 32 90q3 25 -5 38t-37 13h-74q-15 0 -20 -3t-5 -11q0 -7 3.5 -10.5t7 -4.5t13.5 -3q21 -5 31.5 -14t8.5 -20q-7 -51 -58 -132t-102 -118q-17 -13 -10 -24t25 -3q37 18 83.5 63t81.5 99z" />
<glyph unicode="&#xae7d;" d="M414 655h-349q-13 0 -20 -7.5t-7 -17.5q0 -25 27 -25h129q-13 -72 -63 -163.5t-98 -134.5q-19 -15 -9 -31q11 -12 26 -1q67 45 129.5 143.5t81.5 186.5h116q-11 -87 -66.5 -192t-114.5 -164q-13 -13 -4 -24q12 -15 27 -2q79 62 147 173t84 222q2 15 -7.5 26t-28.5 11z M797 724q0 18 -9.5 29.5t-27.5 11.5h-90q-27 0 -27 -18q0 -13 34 -19q29 -5 44 -16.5t15 -39.5v-162h-133v171q0 42 -37 42h-89q-27 0 -27 -18q0 -13 34 -20q30 -5 44 -16t14 -39v-383h15q46 0 46 90v123h133v-223h15q46 0 46 89v398zM370 27q0 -77 60 -133.5t143 -56.5 t143 56.5t60 133.5t-60 134t-143 57q-85 0 -144 -56.5t-59 -134.5zM433 27q0 55 41.5 97t98.5 42t98.5 -42t41.5 -97t-41.5 -96.5t-98.5 -41.5t-98.5 41.5t-41.5 96.5z" />
<glyph unicode="&#xae84;" horiz-adv-x="920" d="M485 620h-407q-13 0 -20.5 -7.5t-7.5 -18.5q0 -26 28 -26h160q-15 -83 -71 -180.5t-117 -148.5q-21 -17 -9 -31q8 -12 25 -1q80 51 153 160.5t87 200.5h140q-11 -91 -69 -204t-138 -190q-12 -10 -4 -24q9 -13 26 -1q96 67 172 193.5t88 240.5q2 15 -7 26t-29 11zM722 724 q0 18 -9.5 29.5t-27.5 11.5h-89q-28 0 -28 -18q0 -13 34 -19q30 -5 44.5 -17t14.5 -39v-772h15q46 0 46 90v244h155q23 0 23 25q0 26 -23 26h-155v193h155q23 0 23 24q0 26 -23 26h-155v196z" />
<glyph unicode="&#xae85;" horiz-adv-x="920" d="M484 666h-406q-13 0 -20.5 -7.5t-7.5 -18.5q0 -25 28 -25h158q-17 -73 -72.5 -159.5t-113.5 -127.5q-8 -6 -10 -15.5t2 -13.5q7 -10 25 -1q77 42 148 135t91 182h139q-16 -87 -77 -187.5t-131 -156.5q-6 -4 -6.5 -12t2.5 -11q9 -13 27 -2q87 50 163.5 162t95.5 221 q3 14 -6.5 25.5t-28.5 11.5zM877 558q23 0 23 25q0 26 -23 26h-155v115q0 18 -9.5 29.5t-27.5 11.5h-89q-28 0 -28 -18q0 -13 34 -19q30 -5 44.5 -16.5t14.5 -39.5v-435h15q46 0 46 89v44h155q23 0 23 24q0 26 -23 26h-155v138h155zM705 138q0 20 -8.5 29t-28.5 9h-405 q-20 0 -20 -26q0 -10 5.5 -17.5t14.5 -7.5h381v-276h16q19 0 32 23t13 66v200z" />
<glyph unicode="&#xae8c;" horiz-adv-x="920" d="M483 676h-405q-13 0 -20.5 -7.5t-7.5 -18.5q0 -25 28 -25h158q-16 -70 -71 -148t-115 -121q-8 -6 -10 -15.5t2 -13.5q7 -10 25 -1q79 43 149 128t90 171h138q-15 -85 -75 -176.5t-132 -149.5q-6 -4 -6.5 -12t2.5 -11q9 -13 27 -2q89 51 164.5 154.5t93.5 210.5 q3 14 -6.5 25.5t-28.5 11.5zM877 567q23 0 23 26t-23 26h-155v105q0 18 -9.5 29.5t-27.5 11.5h-89q-28 0 -28 -17q0 -7 7 -11t27 -9q30 -5 44.5 -16.5t14.5 -39.5v-393h15q46 0 46 89v22h155q23 0 23 25q0 26 -23 26h-155v126h155zM268 54q-21 0 -21 -15t17 -19 q22 -6 30 -15.5t8 -31.5v-68q0 -31 16.5 -49.5t47.5 -18.5h346q26 0 26 26q0 25 -27 25h-316q-32 0 -32 29v88h307q35 0 35 43v133q0 37 -33 37h-374q-26 0 -26 -25q0 -26 27 -26h344v-113h-375z" />
<glyph unicode="&#xaebc;" horiz-adv-x="860" d="M485 620h-407q-13 0 -20.5 -7.5t-7.5 -18.5q0 -26 28 -26h160q-15 -83 -71 -180.5t-117 -148.5q-21 -17 -9 -31q8 -12 25 -1q80 51 153 160.5t87 200.5h140q-11 -91 -69 -204t-138 -190q-12 -10 -4 -24q9 -13 26 -1q96 67 172 193.5t88 240.5q2 15 -7 26t-29 11zM741 724 q0 18 -9.5 29.5t-25.5 11.5h-91q-27 0 -27 -18q0 -13 34 -19q29 -5 43.5 -17t14.5 -39v-231h-179q-20 0 -20 -25q0 -26 19 -26h180v-490h15q46 0 46 90v734z" />
<glyph unicode="&#xaebd;" horiz-adv-x="860" d="M484 666h-406q-13 0 -20.5 -7.5t-7.5 -18.5q0 -25 28 -25h158q-17 -73 -72.5 -159.5t-113.5 -127.5q-8 -6 -10 -15.5t2 -13.5q7 -10 25 -1q77 42 148 135t91 182h139q-16 -87 -77 -187.5t-131 -156.5q-6 -4 -6.5 -12t2.5 -11q9 -13 27 -2q87 50 163.5 162t95.5 221 q3 14 -6.5 25.5t-28.5 11.5zM510 476h170v-239h15q47 0 47 89v398q0 18 -9.5 29.5t-26.5 11.5h-91q-27 0 -27 -18q0 -13 34 -19q30 -5 44 -16.5t14 -39.5v-146h-169q-22 0 -22 -24q0 -12 6 -19t15 -7zM726 139q0 20 -9 29t-29 9h-404q-9 0 -15 -7.5t-6 -18.5q0 -10 6 -17.5 t15 -7.5h381v-289h16q19 0 32 23t13 66v213z" />
<glyph unicode="&#xaebe;" horiz-adv-x="860" d="M484 671h-406q-13 0 -20.5 -7.5t-7.5 -18.5q0 -25 28 -25h158q-15 -69 -71 -153.5t-115 -126.5q-8 -6 -10 -15.5t2 -13.5q7 -10 25 -1q78 42 149 132.5t91 177.5h138q-15 -85 -77 -183t-131 -154q-6 -4 -6.5 -12t2.5 -11q9 -13 27 -2q88 51 165 160.5t94 215.5 q3 14 -6.5 25.5t-28.5 11.5zM510 476h170v-219h15q47 0 47 90v377q0 18 -9.5 29.5t-26.5 11.5h-91q-27 0 -27 -18q0 -13 34 -19q29 -5 43.5 -17t14.5 -39v-146h-169q-22 0 -22 -25q0 -11 6 -18t15 -7zM737 148q0 38 -36 38h-207q-9 0 -15 -7.5t-6 -16.5q0 -11 6 -18.5 t16 -7.5h181v-299h16q19 0 32 23t13 66v222zM444 148q0 38 -35 38h-219q-9 0 -14.5 -7t-5.5 -17q0 -26 20 -26h193v-299h17q19 0 31.5 22.5t12.5 66.5v222z" />
<glyph unicode="&#xaec0;" horiz-adv-x="860" d="M485 660h-408q-13 0 -20.5 -7.5t-7.5 -18.5q0 -25 28 -25h160q-13 -72 -70 -156.5t-118 -136.5q-8 -7 -10 -16.5t2 -13.5q8 -12 25 -1q77 47 149 141.5t92 182.5h138q-14 -84 -74 -185t-132 -166q-13 -13 -4 -24q10 -13 27 -2q90 60 163.5 169t94.5 222q3 14 -6.5 25.5 t-28.5 11.5zM520 448h160v-355h15q47 0 47 90v541q0 19 -9.5 30.5t-26.5 11.5h-91q-27 0 -27 -17q0 -13 34 -20q30 -5 44 -16.5t14 -39.5v-174h-159q-22 0 -22 -26q0 -11 6 -18t15 -7zM304 -77q-1 -47 21 -64t75 -17h328q14 0 21.5 8t7.5 19q0 25 -29 25h-338q-25 0 -25 25 v183q0 42 -37 42h-78q-28 0 -28 -18q0 -9 5.5 -13t26.5 -8q28 -8 39 -18t11 -37v-127z" />
<glyph unicode="&#xaec4;" horiz-adv-x="860" d="M483 676h-405q-13 0 -20.5 -7.5t-7.5 -18.5q0 -25 28 -25h158q-16 -70 -71 -148t-115 -121q-8 -6 -10 -15.5t2 -13.5q7 -10 25 -1q79 43 149 128t90 171h138q-15 -85 -75 -176.5t-132 -149.5q-6 -4 -6.5 -12t2.5 -11q9 -13 27 -2q89 51 164.5 154.5t93.5 210.5 q3 14 -6.5 25.5t-28.5 11.5zM510 476h170v-197h15q47 0 47 89v356q0 18 -9.5 29.5t-26.5 11.5h-91q-27 0 -27 -17q0 -12 34 -20q30 -5 44 -16.5t14 -39.5v-145h-169q-22 0 -22 -25q0 -11 6.5 -18.5t14.5 -7.5zM288 54q-21 0 -21 -15t18 -19q22 -6 30 -15.5t8 -31.5v-68 q0 -31 16.5 -49.5t47.5 -18.5h346q25 0 25 26q0 25 -26 25h-316q-32 0 -32 29v88h306q36 0 36 43v133q0 37 -33 37h-374q-27 0 -27 -25q0 -26 28 -26h344v-113h-376z" />
<glyph unicode="&#xaecc;" horiz-adv-x="860" d="M484 666h-406q-13 0 -20.5 -7.5t-7.5 -18.5q0 -25 28 -25h158q-17 -73 -72.5 -159.5t-113.5 -127.5q-8 -6 -10 -15.5t2 -13.5q7 -10 25 -1q77 42 148 135t91 182h139q-16 -87 -77 -187.5t-131 -156.5q-6 -4 -6.5 -12t2.5 -11q9 -13 27 -2q87 50 163.5 162t95.5 221 q3 14 -6.5 25.5t-28.5 11.5zM510 476h170v-239h15q47 0 47 89v398q0 18 -9.5 29.5t-26.5 11.5h-91q-27 0 -27 -18q0 -13 34 -19q30 -5 44 -16.5t14 -39.5v-146h-169q-22 0 -22 -24q0 -12 6 -19t15 -7zM665 117v-222h-295q4 26 4 33v189h291zM723 -157q22 0 22 25t-25 25h-7 q13 30 13 76v165q0 34 -31 34h-417q-25 0 -25 -16q0 -14 23 -20q21 -6 29 -16.5t8 -36.5v-263h18q16 0 27 27h365z" />
<glyph unicode="&#xaecd;" horiz-adv-x="860" d="M483 676h-405q-13 0 -20.5 -7.5t-7.5 -18.5q0 -25 28 -25h158q-16 -70 -71 -148t-115 -121q-8 -6 -10 -15.5t2 -13.5q7 -10 25 -1q79 43 149 128t90 171h138q-15 -85 -75 -176.5t-132 -149.5q-6 -4 -6.5 -12t2.5 -11q9 -13 27 -2q89 51 164.5 154.5t93.5 210.5 q3 14 -6.5 25.5t-28.5 11.5zM510 476h170v-197h15q47 0 47 89v356q0 18 -9.5 29.5t-26.5 11.5h-91q-27 0 -27 -17q0 -12 34 -20q30 -5 44 -16.5t14 -39.5v-145h-169q-22 0 -22 -25q0 -11 6.5 -18.5t14.5 -7.5zM374 23h291v-127h-291v127zM723 -155q22 0 22 24q0 26 -24 26 h-8q13 29 13 71v222q0 39 -36 39h-64q-15 0 -20.5 -3.5t-5.5 -12.5q0 -8 5.5 -12t21.5 -7q11 -3 16 -5t11 -6.5t8.5 -13t2.5 -21.5v-72h-291v81q0 39 -32 39h-68q-14 0 -19.5 -3t-5.5 -12t4 -13t18 -6q23 -5 32.5 -14.5t9.5 -33.5v-293h13q23 0 34 26h363z" />
<glyph unicode="&#xaecf;" horiz-adv-x="860" d="M484 666h-406q-13 0 -20.5 -7.5t-7.5 -18.5q0 -25 28 -25h158q-17 -73 -72.5 -159.5t-113.5 -127.5q-8 -6 -10 -15.5t2 -13.5q7 -10 25 -1q77 42 148 135t91 182h139q-16 -87 -77 -187.5t-131 -156.5q-6 -4 -6.5 -12t2.5 -11q9 -13 27 -2q87 50 163.5 162t95.5 221 q3 14 -6.5 25.5t-28.5 11.5zM510 474h170v-290h15q47 0 47 90v450q0 18 -9.5 29.5t-26.5 11.5h-91q-27 0 -27 -18q0 -13 34 -19q30 -6 44 -17.5t14 -38.5v-149h-169q-22 0 -22 -24q0 -12 6 -18.5t15 -6.5zM513 68q25 44 31 83q8 57 -41 57h-72q-16 0 -21 -3.5t-5 -12.5 q0 -13 21 -18q28 -4 35.5 -10.5t5.5 -19.5q-15 -70 -86 -154t-136 -123q-10 -6 -10.5 -15t7 -12.5t19.5 0.5q52 21 116 73.5t109 113.5l214 -174q14 -11 33 -3q20 8 20 32q0 18 -20 32z" />
<glyph unicode="&#xaed0;" horiz-adv-x="860" d="M484 671h-406q-13 0 -20.5 -7.5t-7.5 -18.5q0 -25 28 -25h158q-15 -69 -71 -153.5t-115 -126.5q-8 -6 -10 -15.5t2 -13.5q7 -10 25 -1q78 42 149 132.5t91 177.5h138q-15 -85 -77 -183t-131 -154q-6 -4 -6.5 -12t2.5 -11q9 -13 27 -2q88 51 165 160.5t94 215.5 q3 14 -6.5 25.5t-28.5 11.5zM510 476h170v-219h15q47 0 47 90v377q0 18 -9.5 29.5t-26.5 11.5h-91q-27 0 -27 -18q0 -13 34 -19q29 -5 43.5 -17t14.5 -39v-146h-169q-22 0 -22 -25q0 -11 6 -18t15 -7zM460 -104q-25 -30 -47 -48q-16 -13 -6 -23t28 1q90 55 168 181l164 -152 q13 -12 31 -7q23 7 23 32q0 19 -21 35l-172 137q28 59 32 100q3 26 -5 39t-36 13h-73q-15 0 -20 -3.5t-5 -12.5q0 -4 1 -6.5t3.5 -4t4 -2.5t6.5 -2t7 -2q27 -8 35 -13.5t7 -17.5q-9 -80 -89 -196l-116 95q29 55 33 92q3 25 -5 38t-37 13h-74q-15 0 -20 -3t-5 -11 q0 -7 3.5 -10.5t7 -4.5t13.5 -3q21 -5 31.5 -14t8.5 -20q-7 -51 -58 -132t-102 -118q-17 -13 -10 -24t25 -3q36 18 82.5 62.5t81.5 97.5z" />
<glyph unicode="&#xaed1;" horiz-adv-x="860" d="M484 666h-406q-13 0 -20.5 -7.5t-7.5 -18.5q0 -25 28 -25h158q-17 -73 -72.5 -159.5t-113.5 -127.5q-8 -6 -10 -15.5t2 -13.5q7 -10 25 -1q77 42 148 135t91 182h139q-16 -87 -77 -187.5t-131 -156.5q-6 -4 -6.5 -12t2.5 -11q9 -13 27 -2q87 50 163.5 162t95.5 221 q3 14 -6.5 25.5t-28.5 11.5zM510 476h170v-239h15q47 0 47 89v398q0 18 -9.5 29.5t-26.5 11.5h-91q-27 0 -27 -18q0 -13 34 -19q30 -5 44 -16.5t14 -39.5v-146h-169q-22 0 -22 -24q0 -12 6 -19t15 -7zM325 27q0 -77 60 -133.5t143 -56.5t143 56.5t60 133.5t-60 134t-143 57 q-85 0 -144 -56.5t-59 -134.5zM388 27q0 55 41.5 97t98.5 42t98.5 -42t41.5 -97t-41 -96.5t-99 -41.5t-99 41.5t-41 96.5z" />
<glyph unicode="&#xaed8;" d="M413 620h-347q-13 0 -20.5 -7.5t-7.5 -17.5q0 -26 27 -26h128q-11 -76 -57.5 -177t-100.5 -157q-18 -18 -9 -31q11 -13 25 -1q73 58 134 165t75 201h116q-9 -88 -64 -208t-114 -186q-11 -11 -4 -23q12 -14 26 -1q112 94 181 260q3 -17 19 -17h137v-444h16q45 0 45 90v641 q0 19 -9.5 30.5t-25.5 11.5h-91q-25 0 -25 -18q0 -14 33 -20q29 -5 43 -16.5t14 -38.5v-186h-136q-5 0 -8 -1q27 72 36 140q2 15 -7.5 26t-28.5 11zM798 723q0 18 -10 30t-26 12h-91q-28 0 -28 -18q0 -13 34 -19q30 -5 44.5 -17t14.5 -39v-772h15q47 0 47 90v733z" />
<glyph unicode="&#xaed9;" d="M414 655h-349q-13 0 -20 -7.5t-7 -17.5q0 -25 27 -25h129q-13 -72 -63 -163.5t-98 -134.5q-19 -15 -9 -31q11 -12 26 -1q67 45 129.5 143.5t81.5 186.5h116q-11 -87 -66.5 -192t-114.5 -164q-13 -13 -4 -24q12 -15 27 -2q105 81 179 232q4 -4 11 -4h148v-204h16 q45 0 45 90v344q0 19 -9.5 30.5t-25.5 11.5h-91q-25 0 -25 -18q0 -14 33 -20q29 -5 43 -16t14 -39v-129h-139q23 58 32 117q2 15 -7.5 26t-28.5 11zM798 723q0 18 -10 30t-27 12h-90q-28 0 -28 -18q0 -13 34 -19q30 -5 44.5 -16.5t14.5 -39.5v-435h15q47 0 47 89v397z M779 134q0 20 -8.5 29t-28.5 9h-415q-20 0 -20 -26q0 -10 5.5 -17.5t14.5 -7.5h391v-284h17q18 0 31 23t13 66v208z" />
<glyph unicode="&#xaedc;" d="M414 647h-349q-27 0 -27 -26q0 -24 27 -24h129q-14 -70 -65 -160.5t-100 -137.5q-19 -18 -9 -30q11 -13 27 0q62 42 129 140.5t85 187.5h116q-11 -86 -67 -189.5t-117 -166.5q-12 -12 -5 -25q5 -5 13 -5.5t14 3.5q113 89 184 236q4 -4 11 -4h147v-334h16q45 0 45 91v479 q0 42 -35 42h-91q-25 0 -25 -17q0 -15 33 -21q29 -5 43 -16t14 -39v-136h-139q23 58 32 115q2 15 -7.5 26t-28.5 11zM798 723q0 19 -10 30.5t-27 11.5h-90q-28 0 -28 -17q0 -13 34 -20q30 -5 44.5 -16.5t14.5 -39.5v-581h15q47 0 47 91v541zM335 -77q-1 -47 21 -64t75 -17 h337q15 0 22.5 8t7.5 19q0 25 -30 25h-347q-25 0 -25 25v182q0 42 -37 42h-78q-28 0 -28 -18q0 -9 5.5 -13t26.5 -8q28 -8 39 -18t11 -37v-126z" />
<glyph unicode="&#xaee8;" d="M414 655h-349q-13 0 -20 -7.5t-7 -17.5q0 -25 27 -25h129q-13 -72 -63 -163.5t-98 -134.5q-19 -15 -9 -31q11 -12 26 -1q67 45 129.5 143.5t81.5 186.5h116q-11 -87 -66.5 -192t-114.5 -164q-13 -13 -4 -24q12 -15 27 -2q105 81 179 232q4 -4 11 -4h148v-204h16 q45 0 45 90v344q0 19 -9.5 30.5t-25.5 11.5h-91q-25 0 -25 -18q0 -14 33 -20q29 -5 43 -16t14 -39v-129h-139q23 58 32 117q2 15 -7.5 26t-28.5 11zM798 723q0 18 -10 30t-27 12h-90q-28 0 -28 -18q0 -13 34 -19q30 -5 44.5 -16.5t14.5 -39.5v-435h15q47 0 47 89v397z M706 120v-225h-295q4 26 4 33v192h291zM765 -157q22 0 22 25q0 26 -24 26h-8q12 28 12 75v168q0 34 -31 34h-417q-25 0 -25 -16q0 -13 23 -20q21 -6 29 -16.5t8 -36.5v-266h19q16 0 27 27h365z" />
<glyph unicode="&#xaeeb;" d="M414 655h-349q-13 0 -20 -7.5t-7 -17.5q0 -25 27 -25h129q-13 -72 -63 -163.5t-98 -134.5q-19 -15 -9 -31q11 -12 26 -1q67 45 129.5 143.5t81.5 186.5h116q-11 -87 -66.5 -192t-114.5 -164q-13 -13 -4 -24q12 -15 27 -2q50 39 98 101t82 133q4 -4 11 -4h137v-205h16 q45 0 45 90v343q0 42 -35 42h-91q-25 0 -25 -17q0 -13 33 -21q29 -5 43 -16t14 -39v-127h-128q22 61 31 115q2 15 -7.5 26t-28.5 11zM798 724q0 18 -10 29.5t-27 11.5h-90q-28 0 -28 -17q0 -12 34 -20q30 -5 44.5 -16.5t14.5 -39.5v-477h15q47 0 47 90v439zM553 68 q25 44 31 83q8 57 -41 57h-72q-16 0 -21 -3.5t-5 -12.5q0 -13 21 -18q28 -4 35.5 -10.5t5.5 -19.5q-15 -70 -86 -154t-136 -123q-10 -6 -10.5 -15t7 -12.5t19.5 0.5q52 21 116 73.5t109 113.5l214 -174q14 -11 33 -3q20 8 20 32q0 18 -20 32z" />
<glyph unicode="&#xaeed;" d="M414 655h-349q-13 0 -20 -7.5t-7 -17.5q0 -25 27 -25h129q-13 -72 -63 -163.5t-98 -134.5q-19 -15 -9 -31q11 -12 26 -1q67 45 129.5 143.5t81.5 186.5h116q-11 -87 -66.5 -192t-114.5 -164q-13 -13 -4 -24q12 -15 27 -2q105 81 179 232q4 -4 11 -4h148v-204h16 q45 0 45 90v344q0 19 -9.5 30.5t-25.5 11.5h-91q-25 0 -25 -18q0 -14 33 -20q29 -5 43 -16t14 -39v-129h-139q23 58 32 117q2 15 -7.5 26t-28.5 11zM798 723q0 18 -10 30t-27 12h-90q-28 0 -28 -18q0 -13 34 -19q30 -5 44.5 -16.5t14.5 -39.5v-435h15q47 0 47 89v397z M370 27q0 -77 60 -133.5t143 -56.5t143 56.5t60 133.5t-60 134t-143 57q-85 0 -144 -56.5t-59 -134.5zM433 27q0 55 41.5 97t98.5 42t98.5 -42t41.5 -97t-41.5 -96.5t-98.5 -41.5t-98.5 41.5t-41.5 96.5z" />
<glyph unicode="&#xaef4;" horiz-adv-x="860" d="M485 620h-407q-13 0 -20.5 -7.5t-7.5 -18.5q0 -26 28 -26h160q-15 -83 -71 -180.5t-117 -148.5q-21 -17 -9 -31q8 -12 25 -1q80 51 153 160.5t87 200.5h140q-11 -91 -69 -204t-138 -190q-12 -10 -4 -24q9 -13 26 -1q74 52 139.5 144.5t98.5 190.5h181v-175h-180 q-20 0 -20 -24q0 -26 20 -26h180v-359h15q46 0 46 90v734q0 18 -9.5 29.5t-25.5 11.5h-91q-27 0 -27 -18q0 -13 34 -19q29 -5 43.5 -17t14.5 -39v-138h-167q4 17 8 49q2 15 -7 26t-29 11z" />
<glyph unicode="&#xaef8;" horiz-adv-x="860" d="M485 660h-408q-13 0 -20.5 -7.5t-7.5 -18.5q0 -25 28 -25h160q-13 -72 -70 -156.5t-118 -136.5q-8 -7 -10 -16.5t2 -13.5q8 -12 25 -1q77 47 149 141.5t92 182.5h138q-14 -84 -74 -185t-132 -166q-13 -13 -4 -24q10 -13 27 -2q71 48 134 129t99 173q1 -1 5 -1h180v-154 h-184q-20 0 -20 -25q0 -26 19 -26h185v-235h15q46 0 46 90v541q0 41 -35 41h-91q-27 0 -27 -17q0 -13 34 -20q30 -5 44 -16.5t14 -39.5v-89h-169q9 37 9 40q3 14 -6.5 25.5t-28.5 11.5zM304 -77q-1 -47 21 -64t75 -17h328q14 0 21.5 8t7.5 19q0 25 -29 25h-338q-25 0 -25 25 v183q0 42 -37 42h-78q-28 0 -28 -18q0 -9 5.5 -13t26.5 -8q28 -8 39 -18t11 -37v-127z" />
<glyph unicode="&#xaefc;" horiz-adv-x="860" d="M483 676h-405q-13 0 -20.5 -7.5t-7.5 -18.5q0 -25 28 -25h158q-16 -70 -71 -148t-115 -121q-8 -6 -10 -15.5t2 -13.5q7 -10 25 -1q79 43 149 128t90 171h138q-15 -85 -75 -176.5t-132 -149.5q-6 -4 -6.5 -12t2.5 -11q9 -13 27 -2q73 41 138.5 119.5t98.5 167.5h183v-131 h-183q-21 0 -21 -25t20 -25h184v-101h15q46 0 46 89v356q0 41 -35 41h-91q-27 0 -27 -17q0 -12 34 -20q30 -5 44 -16.5t14 -39.5v-61h-168q1 5 3 14.5t3 13.5q3 14 -6.5 25.5t-28.5 11.5zM288 54q-21 0 -21 -15t18 -19q22 -6 30 -15.5t8 -31.5v-68q0 -31 16.5 -49.5 t47.5 -18.5h346q25 0 25 26q0 25 -26 25h-316q-32 0 -32 29v88h306q36 0 36 43v133q0 37 -33 37h-374q-27 0 -27 -25q0 -26 28 -26h344v-113h-376z" />
<glyph unicode="&#xaf07;" horiz-adv-x="860" d="M484 666h-406q-13 0 -20.5 -7.5t-7.5 -18.5q0 -25 28 -25h158q-17 -73 -72.5 -159.5t-113.5 -127.5q-8 -6 -10 -15.5t2 -13.5q7 -10 25 -1q77 42 148 135t91 182h139q-16 -87 -77 -187.5t-131 -156.5q-6 -4 -6.5 -12t2.5 -11q9 -13 27 -2q70 40 135 123t100 175 q2 -1 6 -1h179v-143h-183q-21 0 -21 -25q0 -26 20 -26h184v-165h15q46 0 46 90v450q0 18 -9.5 29.5t-25.5 11.5h-91q-27 0 -27 -18q0 -13 34 -19q30 -6 44 -17.5t14 -38.5v-78h-169q7 26 8 35q3 14 -6.5 25.5t-28.5 11.5zM513 68q25 44 31 83q8 57 -41 57h-72 q-16 0 -21 -3.5t-5 -12.5q0 -13 21 -18q28 -4 35.5 -10.5t5.5 -19.5q-15 -70 -86 -154t-136 -123q-10 -6 -10.5 -15t7 -12.5t19.5 0.5q52 21 116 73.5t109 113.5l214 -174q14 -11 33 -3q20 8 20 32q0 18 -20 32z" />
<glyph unicode="&#xaf08;" horiz-adv-x="860" d="M484 671h-406q-13 0 -20.5 -7.5t-7.5 -18.5q0 -25 28 -25h158q-15 -69 -71 -153.5t-115 -126.5q-8 -6 -10 -15.5t2 -13.5q7 -10 25 -1q78 42 149 132.5t91 177.5h138q-15 -85 -77 -183t-131 -154q-6 -4 -6.5 -12t2.5 -11q9 -13 27 -2q70 41 136.5 123t100.5 171h182v-132 h-182q-21 0 -21 -26q0 -24 20 -24h183v-133h15q46 0 46 90v397q0 18 -9.5 29.5t-25.5 11.5h-91q-27 0 -27 -18q0 -13 34 -19q29 -5 43.5 -17t14.5 -39v-69h-166q1 5 3 15.5t3 15.5q3 14 -6.5 25.5t-28.5 11.5zM460 -104q-25 -30 -47 -48q-16 -13 -6 -23t28 1q90 55 168 181 l164 -152q13 -12 31 -7q23 7 23 32q0 19 -21 35l-172 137q28 59 32 100q3 26 -5 39t-36 13h-73q-15 0 -20 -3.5t-5 -12.5q0 -4 1 -6.5t3.5 -4t4 -2.5t6.5 -2t7 -2q27 -8 35 -13.5t7 -17.5q-9 -80 -89 -196l-116 95q29 55 33 92q3 25 -5 38t-37 13h-74q-15 0 -20 -3t-5 -11 q0 -7 3.5 -10.5t7 -4.5t13.5 -3q21 -5 31.5 -14t8.5 -20q-7 -51 -58 -132t-102 -118q-17 -13 -10 -24t25 -3q36 18 82.5 62.5t81.5 97.5z" />
<glyph unicode="&#xaf0d;" horiz-adv-x="860" d="M483 676h-405q-13 0 -20.5 -7.5t-7.5 -18.5q0 -25 28 -25h158q-16 -70 -71 -148t-115 -121q-8 -6 -10 -15.5t2 -13.5q7 -10 25 -1q79 43 149 128t90 171h138q-15 -85 -75 -176.5t-132 -149.5q-6 -4 -6.5 -12t2.5 -11q9 -13 27 -2q73 41 138.5 119.5t98.5 167.5h183v-131 h-183q-21 0 -21 -25t20 -25h184v-101h15q46 0 46 89v356q0 41 -35 41h-91q-27 0 -27 -17q0 -12 34 -20q30 -5 44 -16.5t14 -39.5v-61h-168q1 5 3 14.5t3 13.5q3 14 -6.5 25.5t-28.5 11.5zM703 165q10 0 16.5 7.5t6.5 18.5q0 10 -6.5 17.5t-17.5 7.5h-412q-23 0 -23 -16 q0 -15 24 -21q23 -4 29.5 -18t6.5 -50v-200q0 -64 65 -64h318q26 0 26 25q0 26 -28 26h-294q-26 0 -26 27v85h300q27 0 27 25t-27 25h-300v105h315z" />
<glyph unicode="&#xaf10;" d="M413 620h-347q-13 0 -20.5 -7.5t-7.5 -17.5q0 -26 27 -26h128q-11 -76 -57.5 -177t-100.5 -157q-18 -18 -9 -31q11 -13 25 -1q73 58 134 165t75 201h116q-9 -88 -64 -208t-114 -186q-11 -11 -4 -23q12 -14 26 -1q68 57 123.5 147.5t84.5 186.5h119v-159h-125 q-22 0 -22 -24q0 -11 6 -18.5t15 -7.5h126v-326h16q45 0 45 90v641q0 19 -9.5 30.5t-25.5 11.5h-91q-25 0 -25 -18q0 -14 33 -20q29 -5 43 -16.5t14 -38.5v-94h-106q6 32 8 47t-7.5 26t-28.5 11zM798 723q0 18 -10 30t-26 12h-91q-28 0 -28 -18q0 -13 34 -19q30 -5 44.5 -17 t14.5 -39v-772h15q47 0 47 90v733z" />
<glyph unicode="&#xaf2c;" d="M418 617q0 44 -41 44h-198q-29 0 -29 -25q0 -26 31 -26h172q0 -254 -29 -380q-6 -25 9 -29q17 -6 26 17q18 44 32 116q30 -6 44 -16.5t14 -36.5v-202h-379q-13 0 -20.5 -7t-7.5 -17q0 -27 28 -27h775q29 0 29 26q0 25 -29 25h-335v251q0 41 -36 41h-77q21 126 21 246z M705 617q0 44 -42 44h-176q-28 0 -28 -25q0 -26 31 -26h148q0 -24 0.5 -82t0 -86.5t-2 -72.5t-6 -77t-11.5 -62q-6 -25 8 -29q17 -6 27 17q51 114 51 399z" />
<glyph unicode="&#xaf2d;" d="M418 673q0 43 -41 43h-198q-29 0 -29 -23q0 -27 30 -27h173q0 -191 -19 -259q-7 -25 8 -29q17 -6 26 17q21 47 34 116q21 -5 31.5 -16t10.5 -34v-117h-374q-13 0 -20.5 -7t-7.5 -17q0 -26 28 -26h775q29 0 29 25t-29 25h-340v167q0 41 -36 41h-61q10 64 10 121zM705 673 q0 43 -42 43h-176q-28 0 -28 -23q0 -27 30 -27h149q0 -14 0.5 -60.5t0 -68.5t-3.5 -60t-9 -71q-5 -25 8 -28q19 -6 27 16q22 56 33 137t11 142zM677 155q0 38 -37 38h-417q-20 0 -20 -26q0 -10 5.5 -17t14.5 -7h393v-292h16q19 0 32 23t13 66v215z" />
<glyph unicode="&#xaf30;" d="M418 653q0 43 -41 43h-198q-29 0 -29 -24q0 -27 31 -27h172q0 -230 -19 -297q-7 -26 8 -30q17 -6 26 17q19 42 32 120q23 -6 34 -16.5t11 -34.5v-117h-375q-13 0 -20.5 -7t-7.5 -16q0 -27 28 -27h775q29 0 29 26q0 24 -29 24h-339v167q0 41 -36 41h-64q12 91 12 158z M705 653q0 43 -42 43h-176q-28 0 -28 -24q0 -27 31 -27h148q0 -14 0.5 -66.5t0.5 -82t-3 -73t-10 -76.5q-5 -26 8 -29q15 -5 27 17q23 48 33.5 146t10.5 172zM253 -72q-1 -47 21 -64t75 -17h338q13 0 21 8t8 19q0 10 -8 17.5t-22 7.5h-349q-23 0 -23 26v175q0 19 -10 30 t-27 11h-80q-27 0 -27 -17q0 -9 5.5 -13t26.5 -8q28 -8 39.5 -18.5t11.5 -36.5v-120z" />
<glyph unicode="&#xaf32;" d="M418 679q0 44 -41 44h-198q-29 0 -29 -24q0 -27 30 -27h173v-34.5v-39t-0.5 -36.5t-1.5 -40.5t-3 -36t-5 -37t-7 -31.5q-8 -26 8 -30q17 -6 26 18q21 46 32 112q22 -7 32 -17.5t10 -33.5v-108h-374q-13 0 -20.5 -7t-7.5 -17q0 -11 7.5 -19t20.5 -8h775q29 0 29 26 q0 25 -29 25h-340v159q0 18 -9.5 29.5t-26.5 11.5h-60q9 67 9 121zM705 679q0 44 -42 44h-176q-28 0 -28 -24q0 -27 30 -27h149q0 -19 1 -60.5t1 -65.5t-3 -60.5t-10 -69.5q-5 -26 8 -29q17 -5 27 18q43 90 43 274zM211 -73q-1 -47 21 -63.5t74 -16.5h141q13 0 20.5 7.5 t7.5 18.5q0 25 -30 25h-151q-22 0 -22 26v231q0 20 -10 31.5t-26 11.5h-80q-28 0 -28 -18q0 -9 5.5 -13.5t25.5 -8.5q28 -6 40 -16.5t12 -37.5v-177zM435 100q-29 0 -29 -26q0 -25 29 -25h68q-42 -34 -42 -87q0 -55 38.5 -90.5t99.5 -35.5t101 35.5t40 91.5q0 50 -44 86h70 q27 0 27 25q0 11 -7 18.5t-20 7.5h-331zM534 165q23 -13 57 -13h80q29 0 29 24q0 27 -32 27q-53 0 -85.5 6.5t-72.5 25.5q-17 6 -28 -7q-5 -8 -3.5 -17t9.5 -14zM518 -34q0 31 22.5 55.5t58.5 24.5t59.5 -24t23.5 -56q0 -33 -25 -58.5t-58 -25.5q-35 0 -58 25.5t-23 58.5z " />
<glyph unicode="&#xaf34;" d="M418 679q0 44 -41 44h-198q-29 0 -29 -24q0 -27 30 -27h173v-34.5v-39t-0.5 -36.5t-1.5 -40.5t-3 -36t-5 -37t-7 -31.5q-8 -26 8 -30q17 -6 26 18q20 43 34 119q40 -11 40 -50v-95h-374q-13 0 -20.5 -7t-7.5 -17q0 -27 28 -27h775q29 0 29 26q0 25 -29 25h-340v146 q0 18 -9.5 29.5t-25.5 11.5h-60q8 56 8 113zM705 679q0 44 -42 44h-176q-28 0 -28 -24q0 -27 30 -27h149q0 -19 1 -60.5t1 -65.5t-3 -60.5t-10 -69.5q-5 -26 8 -29q17 -5 27 18q43 90 43 274zM219 61q-22 0 -22 -16q0 -13 19 -19q21 -6 29.5 -16t8.5 -31v-68q0 -32 16.5 -50 t47.5 -18h376q27 0 27 26q0 10 -7.5 17.5t-20.5 7.5h-348q-30 0 -30 30v87h337q35 0 35 43v133q0 37 -33 37h-404q-27 0 -27 -24q0 -26 28 -26h374v-113h-406z" />
<glyph unicode="&#xaf3c;" d="M418 673q0 43 -41 43h-198q-29 0 -29 -23q0 -27 30 -27h173q0 -191 -19 -259q-7 -25 8 -29q17 -6 26 17q21 47 34 116q21 -5 31.5 -16t10.5 -34v-117h-374q-13 0 -20.5 -7t-7.5 -17q0 -26 28 -26h775q29 0 29 25t-29 25h-340v167q0 41 -36 41h-61q10 64 10 121zM705 673 q0 43 -42 43h-176q-28 0 -28 -23q0 -27 30 -27h149q0 -14 0.5 -60.5t0 -68.5t-3.5 -60t-9 -71q-5 -25 8 -28q19 -6 27 16q22 56 33 137t11 142zM618 129v-224h-312q4 26 4 33v191h308zM677 -147q21 0 21 25q0 26 -23 26h-9q13 27 13 75v166q0 34 -31 34h-434q-25 0 -25 -16 q0 -14 23 -20q21 -6 29 -16t8 -36v-264h18q16 0 27 26h383z" />
<glyph unicode="&#xaf3d;" d="M418 679q0 44 -41 44h-198q-29 0 -29 -24q0 -27 30 -27h173v-34.5v-39t-0.5 -36.5t-1.5 -40.5t-3 -36t-5 -37t-7 -31.5q-8 -26 8 -30q17 -6 26 18q20 43 34 119q40 -11 40 -50v-95h-374q-13 0 -20.5 -7t-7.5 -17q0 -27 28 -27h775q29 0 29 26q0 25 -29 25h-340v146 q0 18 -9.5 29.5t-25.5 11.5h-60q8 56 8 113zM705 679q0 44 -42 44h-176q-28 0 -28 -24q0 -27 30 -27h149q0 -19 1 -60.5t1 -65.5t-3 -60.5t-10 -69.5q-5 -26 8 -29q17 -5 27 18q43 90 43 274zM305 23h311v-118h-311v118zM675 -145q22 0 22 25q0 24 -26 24h-7q13 26 13 71 v206q0 39 -35 39h-65q-26 0 -26 -16q0 -14 26 -19q23 -5 31 -12.5t8 -32.5v-67h-311v89q0 39 -33 39h-67q-15 0 -20.5 -3t-5.5 -13q0 -8 4.5 -12t18.5 -6q23 -5 32.5 -15.5t9.5 -34.5v-289h13q24 0 33 27h385z" />
<glyph unicode="&#xaf3f;" d="M418 673q0 43 -41 43h-198q-29 0 -29 -23q0 -27 30 -27h173q0 -191 -19 -259q-7 -25 8 -29q17 -6 26 17q21 47 34 116q21 -5 31.5 -16t10.5 -34v-117h-374q-13 0 -20.5 -7t-7.5 -17q0 -26 28 -26h775q29 0 29 25t-29 25h-340v167q0 41 -36 41h-61q10 64 10 121zM705 673 q0 43 -42 43h-176q-28 0 -28 -23q0 -27 30 -27h149q0 -14 0.5 -60.5t0 -68.5t-3.5 -60t-9 -71q-5 -25 8 -28q19 -6 27 16q22 56 33 137t11 142zM474 79q20 35 27 67q5 24 -4 41t-37 17h-72q-16 0 -21 -3.5t-5 -13.5q0 -15 21 -18q28 -4 35.5 -10t5.5 -19q-12 -61 -89 -143.5 t-139 -110.5q-19 -8 -12 -21q7 -12 27 -6q54 17 122 68t114 112l231 -165q17 -11 32 -4q9 3 15.5 12t5.5 19q-2 19 -19 29z" />
<glyph unicode="&#xaf41;" d="M418 673q0 43 -41 43h-198q-29 0 -29 -23q0 -27 30 -27h173q0 -191 -19 -259q-7 -25 8 -29q17 -6 26 17q21 47 34 116q21 -5 31.5 -16t10.5 -34v-117h-374q-13 0 -20.5 -7t-7.5 -17q0 -26 28 -26h775q29 0 29 25t-29 25h-340v167q0 41 -36 41h-61q10 64 10 121zM705 673 q0 43 -42 43h-176q-28 0 -28 -23q0 -27 30 -27h149q0 -14 0.5 -60.5t0 -68.5t-3.5 -60t-9 -71q-5 -25 8 -28q19 -6 27 16q22 56 33 137t11 142zM254 31q0 -79 60 -132.5t144 -53.5q83 0 143.5 53.5t60.5 132.5q0 81 -60.5 133.5t-143.5 52.5q-84 0 -144 -53.5t-60 -132.5z M317 31q0 56 42.5 95.5t98.5 39.5q55 0 98 -40t43 -95t-43 -94.5t-98 -39.5q-57 0 -99 39t-42 95z" />
<glyph unicode="&#xaf42;" d="M418 679q0 44 -41 44h-198q-29 0 -29 -24q0 -27 30 -27h173v-34.5v-39t-0.5 -36.5t-1.5 -40.5t-3 -36t-5 -37t-7 -31.5q-8 -26 8 -30q17 -6 26 18q20 46 31 106q22 -7 33 -18t11 -34v-102h-375q-13 0 -20.5 -7t-7.5 -17q0 -27 28 -27h775q29 0 29 26q0 25 -29 25h-339 v153q0 18 -9.5 29.5t-25.5 11.5h-63q10 67 10 128zM705 679q0 44 -42 44h-176q-28 0 -28 -24q0 -27 30 -27h149q0 -19 1 -60.5t1 -65.5t-3 -60.5t-10 -69.5q-5 -26 8 -29q17 -5 27 18q43 90 43 274zM530 7q76 73 99 147q6 18 -2.5 32.5t-28.5 14.5h-324q-8 0 -14 -7t-6 -17 q0 -12 6 -19.5t14 -7.5h276q-36 -79 -131 -158.5t-184 -115.5q-20 -7 -12 -28q8 -12 27 -6q122 34 234 125l199 -120q13 -7 32 0q21 8 21 32t-18 34z" />
<glyph unicode="&#xaf43;" d="M418 679q0 44 -41 44h-198q-29 0 -29 -24q0 -27 30 -27h173v-34.5v-39t-0.5 -36.5t-1.5 -40.5t-3 -36t-5 -37t-7 -31.5q-8 -26 8 -30q17 -6 26 18q21 46 32 112q22 -7 32 -17.5t10 -33.5v-108h-374q-13 0 -20.5 -7t-7.5 -17q0 -11 7.5 -19t20.5 -8h775q29 0 29 26 q0 25 -29 25h-340v159q0 18 -9.5 29.5t-26.5 11.5h-60q9 67 9 121zM705 679q0 44 -42 44h-176q-28 0 -28 -24q0 -27 30 -27h149q0 -19 1 -60.5t1 -65.5t-3 -60.5t-10 -69.5q-5 -26 8 -29q17 -5 27 18q43 90 43 274zM400 204q22 -14 62 -14h81q29 0 29 24q0 26 -32 26 q-52 0 -84 6.5t-73 24.5q-18 7 -29 -6q-7 -8 -6 -18t9 -15zM553 -31q85 60 105 112q6 18 -3 34t-30 16h-338q-8 0 -14 -7t-6 -17q0 -12 6 -19.5t14 -7.5h291q-43 -58 -139 -119t-191 -92q-6 -2 -10 -9.5t0 -17.5q4 -6 25 -3q110 21 234 93l199 -87q22 -7 35 -2q19 7 20 31 q2 25 -25 34z" />
<glyph unicode="&#xaf48;" horiz-adv-x="920" d="M265 612q0 43 -41 43h-153q-29 0 -29 -24q0 -27 31 -27h126q0 -98 -1 -145t-6 -106.5t-16 -103.5q-9 -28 9 -32q16 -6 25 19q21 46 34 125q25 -6 37 -16.5t12 -34.5v-176h-242q-14 0 -22 -7.5t-8 -17.5q0 -26 29 -26h312q70 0 143.5 11t109.5 30q12 6 16 14t-1.5 13 t-19.5 2q-80 -19 -250 -19h-6v225q0 19 -9.5 30.5t-26.5 11.5h-68q13 94 15 211zM517 611q0 44 -40 44h-147q-29 0 -29 -24q0 -27 31 -27h121q0 -12 0.5 -64t0 -81t-1.5 -74t-3.5 -79.5t-7.5 -59.5q-5 -26 10 -29q16 -6 25 18q20 54 30.5 166t10.5 210zM722 723q0 41 -38 41 h-88q-28 0 -28 -18q0 -13 34 -19q29 -5 44 -17t15 -39v-770h15q46 0 46 90v385h156q22 0 22 24q0 26 -23 26h-155v297z" />
<glyph unicode="&#xaf49;" horiz-adv-x="920" d="M263 657q0 43 -41 43h-151q-29 0 -29 -24q0 -27 31 -27h124q0 -16 0.5 -54.5t0 -55.5t-1.5 -46t-4.5 -52.5t-9.5 -47.5t9 -28q15 -5 27 18q18 37 30 103q23 -5 34.5 -16t11.5 -35v-112h-243q-14 0 -22 -7.5t-8 -17.5q0 -25 29 -25h306q70 0 144.5 11t110.5 29 q21 11 17 23q-3 8 -21 4q-81 -17 -252 -17v162q0 18 -9.5 29.5t-26.5 11.5h-65q9 71 9 131zM515 657q0 43 -40 43h-145q-29 0 -29 -24q0 -27 31 -27h119q0 -21 1 -63.5t1 -67.5t-2.5 -60.5t-7.5 -64.5q-8 -24 9 -28q16 -6 26 18q37 85 37 274zM723 723q0 18 -10 30t-27 12 h-90q-27 0 -27 -18q0 -13 33 -19q30 -5 44.5 -16.5t14.5 -39.5v-446h15q47 0 47 90v141h156q22 0 22 25t-22 25h-156v216zM705 117q0 20 -8.5 29t-28.5 9h-405q-9 0 -14.5 -7.5t-5.5 -17.5q0 -25 20 -25h381v-268h16q19 0 32 23t13 66v191z" />
<glyph unicode="&#xaf50;" horiz-adv-x="920" d="M264 660q0 43 -41 43h-151q-29 0 -29 -24q0 -27 31 -27h124q0 -16 0.5 -53.5t0 -53.5t-1.5 -43.5t-4.5 -50.5t-9.5 -47t9 -28q14 -5 27 18q16 32 30 99q23 -7 33.5 -17.5t10.5 -33.5v-92h-242q-14 0 -22 -7.5t-8 -18.5q0 -24 29 -24h306q71 0 145 10.5t110 28.5 q12 6 16 14t-1.5 12.5t-19.5 1.5q-80 -17 -252 -17v143q0 18 -9.5 29t-26.5 11h-63q9 67 9 127zM515 660q0 43 -40 43h-144q-29 0 -29 -24q0 -27 31 -27h118q0 -21 1 -62t1 -65.5t-2.5 -58.5t-7.5 -63q-8 -24 9 -28q16 -6 26 18q37 85 37 267zM723 724q0 18 -10 29.5 t-27 11.5h-90q-27 0 -27 -17q0 -13 33 -19q30 -6 44.5 -17.5t14.5 -39.5v-403h15q47 0 47 88v121h156q22 0 22 24q0 25 -22 25h-156v197zM257 45q-20 0 -20 -15t17 -19q21 -6 29.5 -16t8.5 -31v-59q0 -31 16.5 -49.5t47.5 -18.5h356q26 0 26 26q0 25 -27 25h-326 q-32 0 -32 31v76h317q35 0 35 44v122q0 38 -34 38h-383q-27 0 -27 -24q0 -26 27 -26h355v-104h-386z" />
<glyph unicode="&#xaf5c;" horiz-adv-x="920" d="M263 658q0 43 -41 43h-151q-29 0 -29 -24q0 -27 31 -27h124q0 -16 0.5 -53t0 -53t-1.5 -43t-4.5 -49.5t-9.5 -46.5t9 -28q15 -5 27 18q18 38 29 94q24 -6 35.5 -16.5t11.5 -34.5v-111h-243q-14 0 -22 -7.5t-8 -17.5q0 -24 29 -24h306q71 0 145 10.5t110 28.5q12 6 16 14 t-1.5 12.5t-19.5 1.5q-80 -18 -251 -18v161q0 18 -9.5 29.5t-26.5 11.5h-66q10 66 10 129zM515 658q0 43 -40 43h-145q-29 0 -29 -24q0 -27 31 -27h119q0 -21 1 -61.5t1 -64t-2.5 -57t-7.5 -62.5q-8 -24 9 -28q16 -6 26 18q37 85 37 263zM723 723q0 18 -10 30t-27 12h-90 q-27 0 -27 -18q0 -13 33 -19q30 -5 44.5 -17t14.5 -39v-425h15q47 0 47 90v130h156q22 0 22 25t-22 25h-156v206zM442 -100q-21 -26 -50 -49q-10 -8 -9.5 -16.5t9 -10.5t21.5 4q93 55 170 173l162 -144q13 -12 31 -7q23 7 23 32q0 20 -21 35l-170 127q27 51 30 92 q3 26 -5 39t-36 13h-73q-15 0 -20 -3.5t-5 -13.5q0 -3 1 -5.5t3.5 -4t4 -2.5t6.5 -2t7 -2q27 -8 35 -13.5t7 -17.5q-9 -74 -83 -177l-116 97q23 44 27 78q3 24 -5 37t-37 13h-74q-15 0 -20 -3t-5 -11q0 -7 3.5 -10.5t7 -4.5t13.5 -3q42 -10 40 -33q-3 -43 -54 -123.5 t-103 -115.5q-18 -12 -12 -23t24 -3q37 14 86 59.5t85 101.5z" />
<glyph unicode="&#xaf5d;" horiz-adv-x="920" d="M263 657q0 43 -41 43h-151q-29 0 -29 -24q0 -27 31 -27h124q0 -16 0.5 -54.5t0 -55.5t-1.5 -46t-4.5 -52.5t-9.5 -47.5t9 -28q15 -5 27 18q18 37 30 103q23 -5 34.5 -16t11.5 -35v-112h-243q-14 0 -22 -7.5t-8 -17.5q0 -25 29 -25h306q70 0 144.5 11t110.5 29 q21 11 17 23q-3 8 -21 4q-81 -17 -252 -17v162q0 18 -9.5 29.5t-26.5 11.5h-65q9 71 9 131zM515 657q0 43 -40 43h-145q-29 0 -29 -24q0 -27 31 -27h119q0 -21 1 -63.5t1 -67.5t-2.5 -60.5t-7.5 -64.5q-8 -24 9 -28q16 -6 26 18q37 85 37 274zM723 723q0 18 -10 30t-27 12 h-90q-27 0 -27 -18q0 -13 33 -19q30 -5 44.5 -16.5t14.5 -39.5v-446h15q47 0 47 90v141h156q22 0 22 25t-22 25h-156v216zM302 19q0 -77 56.5 -129.5t143.5 -52.5q84 0 142.5 53t58.5 129q0 77 -58 128.5t-143 51.5q-87 0 -143.5 -52.5t-56.5 -127.5zM364 19q0 53 40 90.5 t98 38.5q57 -1 98 -39t41 -90q0 -51 -40.5 -91t-98.5 -39q-60 -1 -99 38.5t-39 91.5z" />
<glyph unicode="&#xaf64;" d="M226 602q0 42 -41 42h-130q-29 0 -29 -25q0 -26 31 -26h103q0 -261 -24 -341q-8 -27 7 -31q17 -6 27 18q23 54 35 132q24 -6 35.5 -16.5t11.5 -34.5v-176h-201q-29 0 -29 -25q0 -26 28 -26h191q70 0 146.5 11t112.5 29q12 6 16 14t-1.5 13t-19.5 2q-71 -16 -181 -18v225 q0 19 -9.5 30.5t-26.5 11.5h-67q12 94 15 191zM453 602q1 17 -8.5 29.5t-31.5 12.5h-131q-29 0 -29 -25q0 -26 31 -26h105q0 -12 0.5 -68t0 -79.5t-1.5 -66t-4.5 -73t-8.5 -56.5q-6 -26 9 -29q7 -2 14.5 2.5t11.5 15.5q36 90 43 363zM797 724q0 18 -9.5 29.5t-27.5 11.5h-90 q-27 0 -27 -18q0 -13 34 -19q29 -5 44 -17t15 -39v-277h-129v286q0 42 -37 42h-89q-27 0 -27 -18q0 -13 34 -20q29 -5 43.5 -16.5t14.5 -38.5v-680h15q46 0 46 90v305h129v-445h15q46 0 46 90v734z" />
<glyph unicode="&#xaf65;" d="M232 632q0 43 -41 43h-130q-13 0 -21 -7.5t-8 -17.5q0 -11 8 -19t23 -8h104q0 -171 -22 -238q-9 -28 9 -33q13 -3 25 19q19 37 31 84q20 -5 28 -15.5t8 -35.5v-92h-187q-29 0 -29 -25t28 -25h184q69 0 139 10.5t106 28.5q11 6 15 14t-1.5 12.5t-18.5 1.5 q-75 -15 -175 -17v142q0 42 -35 42h-53q13 66 13 136zM458 632q0 43 -41 43h-131q-28 0 -28 -25q0 -27 30 -27h104q0 -14 0.5 -50.5t0 -51t-1.5 -42t-4 -50.5t-8 -49q-5 -25 8 -28q6 -2 14.5 3t12.5 16q19 41 31.5 116t12.5 145zM797 724q0 18 -9.5 29.5t-26.5 11.5h-90 q-28 0 -28 -18q0 -13 34 -19q30 -5 44.5 -16.5t14.5 -39.5v-179h-129v188q0 19 -9.5 30.5t-26.5 11.5h-90q-27 0 -27 -18q0 -13 34 -20q30 -5 44 -16t14 -39v-404h15q46 0 46 90v127h129v-217h15q46 0 46 90v408zM773 120q0 20 -8.5 29t-28.5 9h-405q-9 0 -14.5 -7.5 t-5.5 -17.5q0 -25 20 -25h381v-271h17q18 0 31 23t13 66v194z" />
<glyph unicode="&#xaf79;" d="M232 632q0 43 -41 43h-130q-13 0 -21 -7.5t-8 -17.5q0 -11 8 -19t23 -8h104q0 -171 -22 -238q-9 -28 9 -33q13 -3 25 19q19 37 31 84q20 -5 28 -15.5t8 -35.5v-92h-187q-29 0 -29 -25t28 -25h184q69 0 139 10.5t106 28.5q11 6 15 14t-1.5 12.5t-18.5 1.5 q-75 -15 -175 -17v142q0 42 -35 42h-53q13 66 13 136zM458 632q0 43 -41 43h-131q-28 0 -28 -25q0 -27 30 -27h104q0 -14 0.5 -50.5t0 -51t-1.5 -42t-4 -50.5t-8 -49q-5 -25 8 -28q6 -2 14.5 3t12.5 16q19 41 31.5 116t12.5 145zM797 724q0 18 -9.5 29.5t-26.5 11.5h-90 q-28 0 -28 -18q0 -13 34 -19q30 -5 44.5 -16.5t14.5 -39.5v-179h-129v188q0 19 -9.5 30.5t-26.5 11.5h-90q-27 0 -27 -18q0 -13 34 -20q30 -5 44 -16t14 -39v-404h15q46 0 46 90v127h129v-217h15q46 0 46 90v408zM363 19q0 -77 56 -129.5t143 -52.5q84 0 142 53t58 129 q0 77 -57.5 128.5t-142.5 51.5q-87 0 -143 -52.5t-56 -127.5zM425 19q0 53 39.5 90.5t97.5 38.5q57 -1 97.5 -39t40.5 -90q0 -51 -40 -91t-98 -39q-60 -1 -98.5 38.5t-38.5 91.5z" />
<glyph unicode="&#xaf80;" horiz-adv-x="860" d="M265 612q0 43 -41 43h-153q-29 0 -29 -24q0 -27 31 -27h126q0 -98 -1 -145t-6 -106.5t-16 -103.5q-9 -28 9 -32q16 -6 25 19q21 46 34 125q25 -6 37 -16.5t12 -34.5v-176h-242q-14 0 -22 -7.5t-8 -17.5q0 -26 29 -26h312q70 0 143.5 11t109.5 30q12 6 16 14t-1.5 13 t-19.5 2q-80 -19 -250 -19h-6v225q0 19 -9.5 30.5t-26.5 11.5h-68q13 94 15 211zM517 611q0 44 -40 44h-147q-29 0 -29 -24q0 -27 31 -27h121q0 -12 0.5 -64t0 -81t-1.5 -74t-3.5 -79.5t-7.5 -59.5q-5 -26 10 -29q16 -6 25 18q20 54 30.5 166t10.5 210zM739 724 q0 18 -9.5 29.5t-27.5 11.5h-90q-27 0 -27 -18q0 -13 33 -19q30 -5 44.5 -17t14.5 -39v-772h15q47 0 47 90v734z" />
<glyph unicode="&#xaf84;" horiz-adv-x="860" d="M263 649q0 43 -41 43h-151q-29 0 -29 -24q0 -27 31 -27h124q0 -15 0.5 -56.5t0 -61.5t-1.5 -52.5t-4.5 -58.5t-9.5 -50t9 -28q15 -5 27 18q16 34 28 103q25 -6 37 -16.5t12 -35.5v-110h-242q-30 0 -30 -26t29 -26h317q68 0 145 11.5t113 29.5q12 6 16 14t-1.5 12.5 t-19.5 1.5q-81 -17 -255 -17h-11v160q0 18 -9.5 29.5t-27.5 11.5h-67q11 78 11 155zM515 649q0 43 -40 43h-145q-29 0 -29 -24q0 -27 31 -27h119q0 -20 1 -67t1 -76t-2.5 -68t-7.5 -68q-8 -24 9 -28q16 -6 26 18q37 85 37 297zM739 724q0 41 -36 41h-91q-27 0 -27 -17 q0 -13 34 -20q30 -5 44 -16.5t14 -39.5v-579h16q46 0 46 90v541zM296 -72q-1 -47 21 -63.5t75 -16.5h328q14 0 21.5 7.5t7.5 18.5q0 25 -30 25h-338q-24 0 -24 26v147q0 42 -36 42h-80q-27 0 -27 -16q0 -10 5.5 -14.5t24.5 -8.5q29 -6 40.5 -16.5t11.5 -38.5v-92z" />
<glyph unicode="&#xaf88;" horiz-adv-x="860" d="M264 660q0 43 -41 43h-151q-29 0 -29 -24q0 -27 31 -27h124q0 -16 0.5 -53.5t0 -53.5t-1.5 -43.5t-4.5 -50.5t-9.5 -47t9 -28q14 -5 27 18q15 31 30 100q23 -7 34.5 -18t11.5 -34v-95h-242q-30 0 -30 -25t29 -25h317q70 0 146.5 10.5t111.5 28.5q12 6 16 14t-1.5 12.5 t-19.5 1.5q-81 -17 -255 -17h-11v146q0 18 -9.5 29t-27.5 11h-64q9 67 9 127zM515 660q0 43 -40 43h-144q-29 0 -29 -24q0 -27 31 -27h118q0 -21 1 -62t1 -65.5t-2.5 -58.5t-7.5 -63q-8 -24 9 -28q16 -6 26 18q37 85 37 267zM739 724q0 18 -9.5 29.5t-26.5 11.5h-91 q-27 0 -27 -18q0 -13 34 -19q29 -5 43.5 -17t14.5 -39v-401h16q46 0 46 90v363zM268 45q-21 0 -21 -15t18 -19q21 -6 29.5 -16t8.5 -31v-60q0 -31 16.5 -49t47.5 -18h356q25 0 25 26q0 25 -26 25h-327q-31 0 -31 31v76h316q36 0 36 44v122q0 38 -33 38h-384q-27 0 -27 -24 q0 -26 28 -26h354v-104h-386z" />
<glyph unicode="&#xaf90;" horiz-adv-x="860" d="M263 657q0 43 -41 43h-151q-29 0 -29 -24q0 -27 31 -27h124q0 -16 0.5 -54.5t0 -55.5t-1.5 -46t-4.5 -52.5t-9.5 -47.5t9 -28q15 -5 27 18q18 38 30 105q24 -5 35.5 -16t11.5 -35v-114h-242q-30 0 -30 -25t29 -25h317q69 0 145.5 11t112.5 29q12 6 16 14t-3 12t-23 1 q-76 -17 -250 -17h-11v164q0 18 -9.5 29.5t-27.5 11.5h-65q9 71 9 129zM515 657q0 43 -40 43h-145q-29 0 -29 -24q0 -27 31 -27h119q0 -21 1 -63.5t1 -67.5t-2.5 -60.5t-7.5 -64.5q-8 -24 9 -28q16 -6 26 18q37 85 37 274zM739 724q0 18 -9.5 29.5t-26.5 11.5h-91 q-27 0 -27 -18q0 -13 34 -19q30 -5 44 -16.5t14 -39.5v-446h16q46 0 46 90v408zM665 102v-207h-295q4 26 4 33v174h291zM723 -156q22 0 22 25t-25 25h-7q13 29 13 75v150q0 34 -31 34h-416q-26 0 -26 -16q0 -15 23 -21q21 -6 29 -16t8 -35v-248h18q16 0 27 27h365z" />
<glyph unicode="&#xaf91;" horiz-adv-x="860" d="M264 660q0 43 -41 43h-151q-29 0 -29 -24q0 -27 31 -27h124q0 -16 0.5 -53.5t0 -53.5t-1.5 -43.5t-4.5 -50.5t-9.5 -47t9 -28q14 -5 27 18q15 31 30 100q23 -7 34.5 -18t11.5 -34v-95h-242q-30 0 -30 -25t29 -25h317q70 0 146.5 10.5t111.5 28.5q12 6 16 14t-1.5 12.5 t-19.5 1.5q-81 -17 -255 -17h-11v146q0 18 -9.5 29t-27.5 11h-64q9 67 9 127zM515 660q0 43 -40 43h-144q-29 0 -29 -24q0 -27 31 -27h118q0 -21 1 -62t1 -65.5t-2.5 -58.5t-7.5 -63q-8 -24 9 -28q16 -6 26 18q37 85 37 267zM739 724q0 18 -9.5 29.5t-26.5 11.5h-91 q-27 0 -27 -18q0 -13 34 -19q29 -5 43.5 -17t14.5 -39v-401h16q46 0 46 90v363zM374 13h291v-116h-291v116zM723 -154q22 0 22 25t-24 25h-8q13 29 13 71v210q0 39 -36 39h-64q-26 0 -26 -16q0 -8 5 -11.5t22 -7.5q20 -5 29 -14t9 -32v-72h-291v92q0 39 -32 39h-68 q-14 0 -19.5 -3t-5.5 -12t4 -13t18 -6q23 -5 32.5 -14.5t9.5 -33.5v-292h13q23 0 34 26h363z" />
<glyph unicode="&#xaf95;" horiz-adv-x="860" d="M263 657q0 43 -41 43h-151q-29 0 -29 -24q0 -27 31 -27h124q0 -16 0.5 -54.5t0 -55.5t-1.5 -46t-4.5 -52.5t-9.5 -47.5t9 -28q15 -5 27 18q18 38 30 105q24 -5 35.5 -16t11.5 -35v-114h-242q-30 0 -30 -25t29 -25h317q69 0 145.5 11t112.5 29q12 6 16 14t-3 12t-23 1 q-76 -17 -250 -17h-11v164q0 18 -9.5 29.5t-27.5 11.5h-65q9 71 9 129zM515 657q0 43 -40 43h-145q-29 0 -29 -24q0 -27 31 -27h119q0 -21 1 -63.5t1 -67.5t-2.5 -60.5t-7.5 -64.5q-8 -24 9 -28q16 -6 26 18q37 85 37 274zM739 724q0 18 -9.5 29.5t-26.5 11.5h-91 q-27 0 -27 -18q0 -13 34 -19q30 -5 44 -16.5t14 -39.5v-446h16q46 0 46 90v408zM317 19q0 -77 56 -129.5t143 -52.5q84 0 142 53t58 129q0 77 -57.5 128.5t-142.5 51.5q-87 0 -143 -52.5t-56 -127.5zM379 19q0 53 39.5 90.5t97.5 38.5q57 -1 97.5 -39t40.5 -90 q0 -51 -40 -91t-98 -39q-60 -1 -98.5 38.5t-38.5 91.5z" />
<glyph unicode="&#xaf9c;" d="M418 617q0 44 -41 44h-198q-29 0 -29 -25q0 -26 31 -26h172q0 -254 -29 -380q-6 -25 9 -29q17 -6 26 17q12 30 23 74v-213h-312q-13 0 -20.5 -7t-7.5 -17q0 -27 28 -27h775q29 0 29 26q0 25 -29 25h-235v281q0 41 -36 41h-69q-27 0 -27 -17q0 -9 4.5 -13.5t18.5 -6.5 q27 -5 37 -15.5t10 -38.5v-231h-105v251q0 39 -35 39h-11q21 127 21 248zM705 617q0 44 -42 44h-176q-28 0 -28 -25q0 -26 31 -26h148q0 -24 0.5 -82t0 -86.5t-2 -72.5t-6 -77t-11.5 -62q-6 -25 8 -29q17 -6 27 17q51 114 51 399z" />
<glyph unicode="&#xafb8;" d="M418 653q0 43 -41 43h-198q-29 0 -29 -24q0 -27 31 -27h172q0 -230 -19 -297q-6 -23 3 -28h-267q-13 0 -20.5 -7t-7.5 -16q0 -26 28 -26h359v-381h16q19 0 31.5 22.5t12.5 67.5v291h356q29 0 29 25q0 24 -29 24h-196q6 4 12 15q23 48 33.5 146t10.5 172q0 43 -42 43h-176 q-28 0 -28 -24q0 -27 31 -27h148q0 -14 0.5 -66.5t0.5 -82t-3 -73t-10 -76.5q-5 -22 3 -27h-272q7 5 11 15q23 50 36.5 150t13.5 168z" />
<glyph unicode="&#xafb9;" d="M418 673q0 43 -41 43h-198q-29 0 -29 -23q0 -27 30 -27h173q0 -191 -19 -259q-1 -5 -3 -13h-261q-28 0 -28 -25t28 -25h359v-151h-206q-20 0 -20 -26q0 -10 5.5 -17t14.5 -7h393v-292h16q19 0 32 23t13 66v215q0 38 -37 38h-162q11 24 11 64v87h356q29 0 29 24 q0 26 -29 26h-184q22 56 33 137t11 142q0 43 -42 43h-176q-28 0 -28 -23q0 -27 30 -27h149q0 -14 0.5 -60.5t0 -68.5t-3.5 -60t-9 -71q0 -2 -0.5 -6t-1.5 -6h-256v1q23 51 36.5 133.5t13.5 144.5z" />
<glyph unicode="&#xafbc;" d="M418 653q0 43 -41 43h-198q-29 0 -29 -24q0 -27 31 -27h172q0 -230 -19 -297q-5 -15 -2 -22h-262q-13 0 -20.5 -7.5t-7.5 -17.5q0 -26 28 -26h389v-255h17q19 0 31.5 23t12.5 69v163h325q29 0 29 25q0 10 -7 18t-22 8h-190q3 3 6 9q23 48 33.5 146t10.5 172q0 43 -42 43 h-176q-28 0 -28 -24q0 -27 31 -27h148q0 -14 0.5 -66.5t0.5 -82t-3 -73t-10 -76.5q-3 -12 -1 -21h-262q4 4 5 9q23 50 36.5 150t13.5 168zM253 -72q-1 -47 21 -64t75 -17h338q13 0 21 8t8 19q0 10 -8 17.5t-22 7.5h-349q-23 0 -23 26v175q0 19 -10 30t-27 11h-80 q-27 0 -27 -17q0 -9 5.5 -13t26.5 -8q28 -8 39.5 -18.5t11.5 -36.5v-120z" />
<glyph unicode="&#xafc0;" d="M418 679q0 44 -41 44h-198q-29 0 -29 -24q0 -27 30 -27h173v-34.5v-39t-0.5 -36.5t-1.5 -40.5t-3 -36t-5 -37t-7 -31.5q-2 -8 -2 -10h-264q-13 0 -20.5 -7.5t-7.5 -17.5q0 -26 28 -26h359v-132h-179q-27 0 -27 -24q0 -26 28 -26h374v-113h-406q-22 0 -22 -16 q0 -13 19 -19q21 -6 29.5 -16t8.5 -31v-68q0 -32 16.5 -50t47.5 -18h376q27 0 27 26q0 10 -7.5 17.5t-20.5 7.5h-348q-30 0 -30 30v87h337q35 0 35 43v133q0 37 -33 37h-170q5 22 5 49v83h356q29 0 29 25q0 10 -7 18t-22 8h-182q42 90 42 272q0 44 -42 44h-176 q-28 0 -28 -24q0 -27 30 -27h149q0 -19 1 -60.5t1 -65.5t-3 -60.5t-10 -69.5q-1 -3 -1 -9h-255q23 51 35 130.5t12 141.5z" />
<glyph unicode="&#xafc7;" d="M418 679q0 44 -41 44h-198q-29 0 -29 -24q0 -27 30 -27h173v-34.5v-39t-0.5 -36.5t-1.5 -40.5t-3 -36t-5 -37t-7 -31.5q-3 -11 -3 -17h-263q-13 0 -20.5 -7.5t-7.5 -17.5q0 -11 7.5 -19t20.5 -8h359v-155h16q19 0 31.5 22.5t12.5 67.5v65h356q29 0 29 26q0 10 -7 18 t-22 8h-185q0 1 2 5q43 90 43 274q0 44 -42 44h-176q-28 0 -28 -24q0 -27 30 -27h149q0 -19 1 -60.5t1 -65.5t-3 -60.5t-10 -69.5q-2 -12 -2 -16h-257q0 1 1 2.5t1 2.5q23 51 35.5 131t12.5 143zM140 62q-20 0 -20 -15q0 -13 15 -17q18 -7 24 -17.5t6 -32.5v-66 q0 -31 16.5 -49.5t47.5 -18.5h198q12 0 19 8t7 19q0 10 -7 17.5t-19 7.5h-169q-32 0 -32 30v84h148q35 0 35 43v129q0 38 -33 38h-211q-27 0 -27 -24q0 -26 28 -26h181v-110h-207zM538 165q20 -12 53 -12h75q29 0 29 23q0 27 -32 27q-52 0 -79.5 6t-68.5 26q-18 6 -29 -7 q-5 -8 -3.5 -17t9.5 -14zM445 104q-13 0 -20.5 -7.5t-7.5 -18.5q0 -25 28 -25h57q-41 -36 -41 -88q0 -55 39 -92t99 -37t100.5 37t40.5 93q0 50 -42 87h57q28 0 28 25q0 11 -7.5 18.5t-20.5 7.5h-310zM518 -31q0 34 22.5 58t58.5 24q35 0 59 -24t24 -58q0 -35 -24 -61 t-59 -26q-36 0 -58.5 26t-22.5 61z" />
<glyph unicode="&#xafc8;" d="M418 673q0 43 -41 43h-198q-29 0 -29 -23q0 -27 30 -27h173q0 -191 -19 -259q-1 -5 -3 -13h-261q-28 0 -28 -25t28 -25h359v-165h-215q-25 0 -25 -16q0 -14 23 -20q21 -6 29 -16t8 -36v-264h18q16 0 27 26h383q21 0 21 25q0 26 -23 26h-9q13 27 13 75v166q0 34 -31 34 h-178q19 24 19 78v87h356q29 0 29 24q0 26 -29 26h-184q22 56 33 137t11 142q0 43 -42 43h-176q-28 0 -28 -23q0 -27 30 -27h149q0 -14 0.5 -60.5t0 -68.5t-3.5 -60t-9 -71q0 -2 -0.5 -6t-1.5 -6h-256v1q23 51 36.5 133.5t13.5 144.5zM618 129v-224h-312q4 26 4 33v191h308z " />
<glyph unicode="&#xafc9;" d="M418 679q0 44 -41 44h-198q-29 0 -29 -24q0 -27 30 -27h173v-34.5v-39t-0.5 -36.5t-1.5 -40.5t-3 -36t-5 -37t-7 -31.5q-2 -8 -2 -10h-264q-13 0 -20.5 -7.5t-7.5 -17.5q0 -26 28 -26h359v-174h16q19 0 31.5 23t12.5 68v83h356q29 0 29 25q0 10 -7 18t-22 8h-182 q42 90 42 272q0 44 -42 44h-176q-28 0 -28 -24q0 -27 30 -27h149q0 -19 1 -60.5t1 -65.5t-3 -60.5t-10 -69.5q-1 -3 -1 -9h-255q23 51 35 130.5t12 141.5zM305 23h311v-118h-311v118zM675 -145q22 0 22 25q0 24 -26 24h-7q13 26 13 71v206q0 39 -35 39h-65q-26 0 -26 -16 q0 -14 26 -19q23 -5 31 -12.5t8 -32.5v-67h-311v89q0 39 -33 39h-67q-15 0 -20.5 -3t-5.5 -13q0 -8 4.5 -12t18.5 -6q23 -5 32.5 -15.5t9.5 -34.5v-289h13q24 0 33 27h385z" />
<glyph unicode="&#xafcb;" d="M418 673q0 43 -41 43h-198q-29 0 -29 -23q0 -27 30 -27h173q0 -191 -19 -259q-1 -5 -3 -13h-261q-28 0 -28 -25t28 -25h359v-140h-41q-16 0 -21 -3.5t-5 -13.5q0 -15 21 -18q28 -4 35.5 -10t5.5 -19q-12 -61 -89 -143.5t-139 -110.5q-19 -8 -12 -21q7 -12 27 -6 q54 17 122 68t114 112l231 -165q17 -11 32 -4q9 3 15.5 12t5.5 19q-2 19 -19 29l-238 149q20 35 27 67q10 42 -20 54q8 22 8 57v87h356q29 0 29 24q0 26 -29 26h-184q22 56 33 137t11 142q0 43 -42 43h-176q-28 0 -28 -23q0 -27 30 -27h149q0 -14 0.5 -60.5t0 -68.5 t-3.5 -60t-9 -71q0 -2 -0.5 -6t-1.5 -6h-256v1q23 51 36.5 133.5t13.5 144.5z" />
<glyph unicode="&#xafcd;" d="M418 673q0 43 -41 43h-198q-29 0 -29 -23q0 -27 30 -27h173q0 -191 -19 -259q-1 -5 -3 -13h-261q-28 0 -28 -25t28 -25h359v-129q-74 -9 -124.5 -60.5t-50.5 -123.5q0 -79 60 -132.5t144 -53.5q83 0 143.5 53.5t60.5 132.5q0 74 -51 124.5t-126 59.5q4 16 4 42v87h356 q29 0 29 24q0 26 -29 26h-184q22 56 33 137t11 142q0 43 -42 43h-176q-28 0 -28 -23q0 -27 30 -27h149q0 -14 0.5 -60.5t0 -68.5t-3.5 -60t-9 -71q0 -2 -0.5 -6t-1.5 -6h-256v1q23 51 36.5 133.5t13.5 144.5zM317 31q0 56 42.5 95.5t98.5 39.5q55 0 98 -40t43 -95t-43 -94.5 t-98 -39.5q-57 0 -99 39t-42 95z" />
<glyph unicode="&#xafce;" d="M418 679q0 44 -41 44h-198q-29 0 -29 -24q0 -27 30 -27h173v-34.5v-39t-0.5 -36.5t-1.5 -40.5t-3 -36t-5 -37t-7 -31.5q-5 -19 0 -25h-266q-13 0 -20.5 -7t-7.5 -17q0 -26 28 -26h359v-141h-155q-8 0 -14 -7t-6 -17q0 -12 6 -19.5t14 -7.5h276q-36 -79 -131 -158.5 t-184 -115.5q-20 -7 -12 -28q8 -12 27 -6q122 34 234 125l199 -120q13 -7 32 0q21 8 21 32t-18 34l-188 94q76 73 99 147q6 18 -2.5 32.5t-28.5 14.5h-120q11 24 11 64v77h356q29 0 29 24q0 26 -29 26h-191q6 5 8 13q43 90 43 274q0 44 -42 44h-176q-28 0 -28 -24 q0 -27 30 -27h149q0 -19 1 -60.5t1 -65.5t-3 -60.5t-10 -69.5q-3 -19 1 -24h-266q6 5 8 13q23 51 35.5 131t12.5 143z" />
<glyph unicode="&#xafd4;" horiz-adv-x="860" d="M263 649q0 43 -41 43h-151q-29 0 -29 -24q0 -27 31 -27h124q0 -15 0.5 -56.5t0 -61.5t-1.5 -52.5t-4.5 -58.5t-9.5 -50q-5 -16 1 -23h-130q-30 0 -30 -25q0 -24 29 -24h231v-369h17q19 0 31.5 23t12.5 68v278h14q70 0 146.5 10.5t112.5 27.5q21 11 17 24q-4 9 -21 5 q-56 -12 -142 -16q4 4 7 11q37 85 37 297q0 43 -40 43h-145q-29 0 -29 -24q0 -27 31 -27h119q0 -20 1 -67t1 -76t-2.5 -68t-7.5 -68q-5 -16 -1 -22q-29 -1 -86 -1h-148q6 4 10 13q22 45 33.5 135.5t11.5 161.5zM483 146h197v-246h15q47 0 47 90v734q0 18 -9.5 29.5 t-27.5 11.5h-90q-27 0 -27 -18q0 -13 33 -19q30 -5 44.5 -17t14.5 -39v-476h-195q-21 0 -21 -24q0 -26 19 -26z" />
<glyph unicode="&#xafdc;" horiz-adv-x="860" d="M265 670q0 44 -41 44h-145q-29 0 -29 -25q0 -27 31 -27h119q0 -151 -12 -217q0 -1 -0.5 -2t-0.5 -2h-134q-30 0 -30 -26q0 -24 29 -24h221v-163h17q19 0 31.5 22.5t12.5 67.5v73h24q71 0 147.5 10.5t111.5 28.5q12 6 16 14.5t-1.5 13t-19.5 1.5q-65 -14 -142 -16 q38 77 38 227q0 44 -41 44h-143q-28 0 -28 -25q0 -27 30 -27h117q0 -163 -12 -217q0 -2 -1 -4h-205q40 94 40 229zM743 724q0 18 -9.5 29.5t-26.5 11.5h-91q-27 0 -27 -18q0 -13 34 -19q30 -5 44 -16.5t14 -39.5v-321h-196q-21 0 -21 -26q0 -24 19 -24h198v-73h16 q46 0 46 90v406zM278 39q-21 0 -21 -16q0 -14 18 -18q21 -6 29.5 -16t8.5 -31v-54q0 -30 16.5 -48.5t47.5 -18.5h356q25 0 25 27q0 24 -26 24h-327q-31 0 -31 31v70h316q36 0 36 44v116q0 38 -33 38h-384q-27 0 -27 -26q0 -24 28 -24h354v-98h-386z" />
<glyph unicode="&#xafe8;" horiz-adv-x="860" d="M265 662q0 44 -41 44h-145q-29 0 -29 -25q0 -27 31 -27h119q0 -2 0.5 -44.5t0 -61.5t-3 -54t-7.5 -61q-1 -3 -1 -9h-136q-15 0 -22.5 -7.5t-7.5 -18.5q0 -25 29 -25h231v-170h17q19 0 31.5 22.5t12.5 67.5v80h25q69 0 141 10.5t108 28.5q11 7 15 15t-1.5 12.5t-19.5 1.5 q-60 -13 -143 -16q39 87 39 237q0 44 -41 44h-143q-28 0 -28 -25q0 -27 30 -27h117v-47.5v-48.5t-1 -38t-3.5 -45.5t-6.5 -41.5q-1 -3 -1 -9h-205q39 92 39 238zM744 724q0 41 -36 41h-91q-27 0 -27 -17q0 -13 34 -20q30 -5 44 -16.5t14 -39.5v-341h-197q-21 0 -21 -26 q0 -25 19 -25h199v-87h16q46 0 46 91v440zM454 -105q-27 -29 -50 -45q-11 -8 -11 -16t8 -10t21 3q43 21 90 64t83 94l160 -129q13 -12 31 -7q23 7 23 32q0 20 -21 35l-168 112q25 47 28 88q2 26 -5.5 39t-35.5 13h-73q-15 0 -20 -3.5t-5 -13.5q0 -3 1 -5.5t3.5 -4t4 -2.5 t6.5 -2t7 -2q27 -8 35 -13.5t7 -17.5q-9 -72 -79 -164l-121 84q22 42 28 78q9 50 -42 50h-74q-15 0 -20 -3t-5 -11q0 -7 3.5 -10.5t7 -4.5t13.5 -3q42 -10 40 -33q-3 -42 -56.5 -116.5t-100.5 -101.5q-18 -10 -12 -21.5t25 -5.5q34 10 82.5 50.5t85.5 91.5z" />
<glyph unicode="&#xafe9;" horiz-adv-x="860" d="M264 657q0 44 -41 44h-145q-29 0 -29 -25q0 -27 31 -27h119q0 -6 0.5 -45t0 -61t-3 -57.5t-7.5 -64.5q0 -1 -0.5 -2.5t-0.5 -2.5h-135q-30 0 -30 -26q0 -25 29 -25h231v-175h17q19 0 31.5 23t12.5 68v84h14q70 0 146.5 11t112.5 29q12 6 16 14t-1.5 13t-19.5 2 q-65 -14 -143 -16q38 80 38 239q0 44 -41 44h-143q-28 0 -28 -25q0 -27 30 -27h117q0 -14 0.5 -48.5t0 -49.5t-1.5 -40.5t-3.5 -46.5t-7.5 -43q0 -1 -0.5 -2.5t-0.5 -2.5h-203q18 46 28 116.5t10 124.5zM744 724q0 41 -36 41h-91q-27 0 -27 -17q0 -13 34 -20q30 -5 44 -16.5 t14 -39.5v-353h-197q-21 0 -21 -25t19 -25h199v-84h16q46 0 46 91v448zM317 19q0 -77 56.5 -129.5t143.5 -52.5q84 0 142.5 53t58.5 129q0 77 -58 128.5t-143 51.5q-87 0 -143.5 -52.5t-56.5 -127.5zM379 19q0 53 40 90.5t98 38.5q57 -1 98 -39t41 -90q0 -51 -40.5 -91 t-98.5 -39q-60 -1 -99 38.5t-39 91.5z" />
<glyph unicode="&#xaff0;" d="M231 625q0 44 -40 44h-131q-13 0 -21 -7.5t-8 -17.5q0 -26 31 -26h104q0 -207 -12 -264q-2 -12 -2 -15h-100q-29 0 -29 -25q0 -24 28 -24h179v-339h17q19 0 31.5 23t12.5 68v250q150 8 210 36q12 6 16 14t-1.5 12.5t-19.5 1.5q-27 -6 -83 -12q19 45 29.5 127t10.5 154 q0 44 -42 44h-122q-27 0 -27 -25q0 -26 29 -26h96q0 -15 0.5 -66t0 -71t-2.5 -57t-7 -70q-1 -5 -1 -12q-50 -3 -146 -3h-44q1 1 2 2.5t1 2.5q16 40 28.5 126.5t12.5 154.5zM394 157h163v-207h16q45 0 45 90v641q0 19 -9.5 30.5t-25.5 11.5h-91q-25 0 -25 -18q0 -14 33 -20 q29 -5 43 -16.5t14 -38.5v-422h-163q-21 0 -21 -25q0 -26 21 -26zM798 723q0 18 -10 30t-26 12h-91q-28 0 -28 -18q0 -13 34 -19q30 -5 44.5 -17t14.5 -39v-772h15q47 0 47 90v733z" />
<glyph unicode="&#xaff1;" d="M232 642q0 43 -41 43h-130q-14 0 -21.5 -6.5t-7.5 -16.5q0 -27 31 -27h104q0 -13 0.5 -49t0.5 -59.5t-1.5 -53.5t-4.5 -50h-110q-29 0 -29 -25q0 -26 28 -26h189v-187h18q19 0 31.5 22.5t12.5 67.5v99q150 9 210 38q20 11 16 24q-4 9 -21 5q-37 -9 -79 -12 q13 32 21.5 97.5t8.5 115.5q0 43 -41 43h-127q-27 0 -27 -23q0 -27 30 -27h99q0 -15 0.5 -49.5t0.5 -57t-1.5 -50.5t-4.5 -47q0 -1 -1 -3v-2q-49 -3 -145 -3h-39q13 37 21.5 103t8.5 116zM798 724q0 18 -9.5 29.5t-26.5 11.5h-90q-28 0 -28 -17q0 -7 7 -11t27 -9 q30 -5 44.5 -16.5t14.5 -39.5v-497h15q46 0 46 90v459zM619 680q0 43 -36 43h-91q-26 0 -26 -17q0 -13 34 -21q29 -5 43 -16t14 -39v-307h-153q-21 0 -21 -25t20 -25h154v-84h16q46 0 46 91v400zM777 94q0 37 -37 37h-405q-9 0 -14.5 -7.5t-5.5 -17.5q0 -11 5.5 -18.5 t14.5 -7.5h381v-243h17q18 0 31 23t13 66v168z" />
<glyph unicode="&#xaff4;" d="M232 635q0 43 -41 43h-130q-14 0 -21.5 -7.5t-7.5 -17.5q0 -11 8 -19t23 -8h104v-39v-43t-0.5 -38.5t-2 -41t-4 -35t-6.5 -35.5q-1 -2 -1 -5h-101q-29 0 -29 -25t28 -25h199v-200h18q19 0 31.5 23t12.5 68v111q139 9 195 37q22 11 18 24q-3 9 -22 5q-39 -9 -79 -12 q35 97 35 240q0 43 -41 43h-132q-28 0 -28 -25q0 -27 30 -27h105q0 -18 0.5 -62t0 -62t-3 -49t-7.5 -59v-3q-44 -2 -132 -2h-58q17 43 28 115t11 131zM798 726q0 18 -9.5 29.5t-26.5 11.5h-90q-28 0 -28 -18q0 -13 34 -19q30 -5 44.5 -16.5t14.5 -39.5v-645h15q46 0 46 90 v607zM619 683q0 19 -9.5 30.5t-26.5 11.5h-91q-26 0 -26 -18q0 -13 34 -20q29 -5 43 -16t14 -39v-359h-153q-21 0 -21 -25q0 -26 20 -26h154v-131h16q46 0 46 91v501zM335 -71q-1 -48 21 -64.5t75 -16.5h338q29 0 29 27q0 24 -30 24h-347q-25 0 -25 27v131q0 42 -36 42h-79 q-28 0 -28 -16q0 -10 5.5 -14.5t24.5 -8.5q29 -6 40.5 -16.5t11.5 -37.5v-77z" />
<glyph unicode="&#xaff8;" d="M233 653q0 43 -41 43h-130q-14 0 -21.5 -7t-7.5 -17q0 -27 31 -27h104q0 -17 0.5 -56.5t0 -54.5t-2.5 -39.5t-6 -43.5q-2 -6 -2 -9h-106q-14 0 -21.5 -7.5t-7.5 -18.5q0 -25 28 -25h179v-161h18q19 0 31.5 22.5t12.5 67.5v72q158 10 217 38q20 12 16 24q-4 9 -21 5 q-38 -7 -82 -12q15 33 25.5 94.5t11.5 111.5q0 43 -41 43h-126q-28 0 -28 -24q0 -27 30 -27h99q0 -143 -10 -195q0 -1 -1 -3v-2q-48 -3 -141 -3h-45q33 73 37 211zM798 723q0 19 -9.5 30.5t-26.5 11.5h-90q-28 0 -28 -17q0 -8 7 -12t27 -8q30 -5 44.5 -16.5t14.5 -39.5v-447 h15q46 0 46 90v408zM619 681q0 19 -9.5 30.5t-26.5 11.5h-91q-26 0 -26 -17q0 -14 34 -21q29 -5 43 -16t14 -39v-272h-153q-21 0 -21 -26q0 -24 20 -24h154v-78h16q46 0 46 90v361zM319 34q-20 0 -20 -16q0 -13 18 -19q21 -6 29 -15.5t8 -31.5v-47q0 -31 16.5 -49.5 t47.5 -18.5h356q26 0 26 27q0 24 -27 24h-326q-32 0 -32 31v65h317q35 0 35 43v112q0 38 -34 38h-383q-27 0 -27 -26q0 -10 7 -17.5t20 -7.5h355v-92h-386z" />
<glyph unicode="&#xb000;" d="M232 642q0 43 -41 43h-130q-14 0 -21.5 -6.5t-7.5 -16.5q0 -27 31 -27h104q0 -13 0.5 -49t0.5 -59.5t-1.5 -53.5t-4.5 -50h-110q-29 0 -29 -25q0 -26 28 -26h189v-187h18q19 0 31.5 22.5t12.5 67.5v99q150 9 210 38q20 11 16 24q-4 9 -21 5q-37 -9 -79 -12 q13 32 21.5 97.5t8.5 115.5q0 43 -41 43h-127q-27 0 -27 -23q0 -27 30 -27h99q0 -15 0.5 -49.5t0.5 -57t-1.5 -50.5t-4.5 -47q0 -1 -1 -3v-2q-49 -3 -145 -3h-39q13 37 21.5 103t8.5 116zM798 724q0 18 -9.5 29.5t-26.5 11.5h-90q-28 0 -28 -17q0 -7 7 -11t27 -9 q30 -5 44.5 -16.5t14.5 -39.5v-497h15q46 0 46 90v459zM619 680q0 43 -36 43h-91q-26 0 -26 -17q0 -13 34 -21q29 -5 43 -16t14 -39v-307h-153q-21 0 -21 -25t20 -25h154v-84h16q46 0 46 91v400zM710 80v-185h-295q4 26 4 33v152h291zM769 -156q22 0 22 24q0 26 -24 26h-8 q12 28 12 75v128q0 34 -31 34h-417q-25 0 -25 -17q0 -13 23 -19q22 -7 29.5 -17t7.5 -36v-226h19q7 0 15 8t12 20h365z" />
<glyph unicode="&#xb001;" d="M233 653q0 43 -41 43h-130q-14 0 -21.5 -7t-7.5 -17q0 -27 31 -27h104q0 -17 0.5 -56.5t0 -54.5t-2.5 -39.5t-6 -43.5q-2 -6 -2 -9h-106q-14 0 -21.5 -7.5t-7.5 -18.5q0 -25 28 -25h179v-161h18q19 0 31.5 22.5t12.5 67.5v72q158 10 217 38q20 12 16 24q-4 9 -21 5 q-38 -7 -82 -12q15 33 25.5 94.5t11.5 111.5q0 43 -41 43h-126q-28 0 -28 -24q0 -27 30 -27h99q0 -143 -10 -195q0 -1 -1 -3v-2q-48 -3 -141 -3h-45q33 73 37 211zM798 723q0 19 -9.5 30.5t-26.5 11.5h-90q-28 0 -28 -17q0 -8 7 -12t27 -8q30 -5 44.5 -16.5t14.5 -39.5v-447 h15q46 0 46 90v408zM619 681q0 19 -9.5 30.5t-26.5 11.5h-91q-26 0 -26 -17q0 -14 34 -21q29 -5 43 -16t14 -39v-272h-153q-21 0 -21 -26q0 -24 20 -24h154v-78h16q46 0 46 90v361zM425 -2h291v-102h-291v102zM775 -155q22 0 22 25t-25 25h-6q11 29 11 72v183q0 21 -8 30 t-27 9h-65q-15 0 -20.5 -3.5t-5.5 -12.5q0 -8 5 -12t21 -7q15 -4 21.5 -6.5t12 -11.5t5.5 -26v-63h-291v82q0 39 -32 39h-68q-14 0 -19.5 -3t-5.5 -14q0 -8 4 -11.5t18 -6.5q24 -5 33 -14.5t9 -33.5v-265h14q24 0 34 25h363z" />
<glyph unicode="&#xb004;" d="M232 648q0 42 -41 42h-130q-14 0 -21.5 -6.5t-7.5 -16.5q0 -27 31 -27h106q0 -153 -7 -206q0 -2 -0.5 -5.5t-0.5 -4.5h-109q-29 0 -29 -25q0 -26 28 -26h199v-170h18q19 0 31.5 22.5t12.5 67.5v82q139 9 197 38q11 6 15 14.5t-1.5 13t-19.5 1.5q-37 -9 -78 -12 q15 32 24 99t9 118q0 43 -41 43h-127q-27 0 -27 -23q0 -27 30 -27h99q0 -14 0.5 -46t1 -52t-1.5 -50.5t-7 -57.5q0 -2 -0.5 -4t-0.5 -3q-44 -3 -133 -3h-55q29 72 36 224zM798 723q0 19 -9.5 30.5t-26.5 11.5h-90q-28 0 -28 -17q0 -14 34 -20q30 -5 44.5 -16.5t14.5 -39.5 v-480h15q46 0 46 91v440zM619 680q0 43 -36 43h-91q-26 0 -26 -17q0 -14 34 -21q29 -5 43 -16t14 -39v-293h-153q-21 0 -21 -26q0 -24 20 -24h154v-84h16q46 0 46 90v387zM474 -106q-27 -29 -50 -45q-11 -8 -11 -16t8 -10t21 3q44 21 91.5 65t81.5 96l160 -134q12 -11 31 -5 q23 7 23 32q0 18 -21 33l-168 117q25 47 28 88q2 26 -5.5 39t-35.5 13h-73q-15 0 -20 -3.5t-5 -13.5q0 -3 1 -5.5t3.5 -4t4 -2.5t6.5 -2t7 -2q27 -8 35 -13.5t7 -17.5q-9 -73 -80 -166l-119 88q21 41 27 76q9 50 -42 50h-74q-15 0 -20 -3t-5 -11q0 -7 3.5 -10.5t7 -4.5 t13.5 -3q42 -10 40 -33q-3 -42 -56.5 -118t-100.5 -103q-18 -10 -12 -21.5t25 -5.5q34 10 83.5 52t86.5 95z" />
<glyph unicode="&#xb00c;" horiz-adv-x="860" d="M263 649q0 43 -41 43h-151q-29 0 -29 -24q0 -27 31 -27h124q0 -15 0.5 -56.5t0 -61.5t-1.5 -52.5t-4.5 -58.5t-9.5 -50q-5 -16 1 -23h-130q-30 0 -30 -25q0 -24 29 -24h231v-369h17q19 0 31.5 23t12.5 68v278h14q71 0 147.5 10.5t111.5 28.5q12 6 16 14t-1.5 13t-19.5 2 q-55 -13 -141 -17q4 4 7 11q37 85 37 297q0 43 -40 43h-145q-29 0 -29 -24q0 -27 31 -27h119q0 -20 1 -67t1 -76t-2.5 -68t-7.5 -68q-5 -16 -1 -22q-28 -1 -85 -1h-149q6 4 10 13q22 45 33.5 135.5t11.5 161.5zM739 724q0 18 -9.5 29.5t-27.5 11.5h-90q-27 0 -27 -18 q0 -13 33 -19q30 -5 44.5 -17t14.5 -39v-772h15q47 0 47 90v734z" />
<glyph unicode="&#xb010;" horiz-adv-x="860" d="M263 658q0 43 -41 43h-151q-29 0 -29 -24q0 -27 31 -27h124q0 -16 0.5 -53t0 -53t-1.5 -43t-4.5 -49.5t-9.5 -46.5q-2 -8 -2 -12h-127q-30 0 -30 -26q0 -24 29 -24h226v-181h16q19 0 32 23.5t13 67.5v90h19q71 0 147.5 10.5t111.5 28.5q12 6 16 14.5t-1.5 13t-19.5 1.5 q-54 -13 -134 -16q37 85 37 263q0 43 -40 43h-145q-29 0 -29 -24q0 -27 31 -27h119q0 -21 1 -61.5t1 -64t-2.5 -57t-7.5 -62.5q-2 -8 -3 -11q-28 -1 -84 -1h-139q0 1 0.5 1t0.5 1q22 46 33.5 121.5t11.5 141.5zM739 724q0 41 -36 41h-91q-27 0 -27 -17q0 -12 34 -20 q30 -5 44 -16.5t14 -39.5v-583h16q46 0 46 91v544zM297 -71q-1 -48 21 -64.5t75 -16.5h328q14 0 21.5 7.5t7.5 18.5q0 25 -30 25h-338q-24 0 -24 27v136q0 42 -36 42h-79q-28 0 -28 -17q0 -10 5.5 -14t25.5 -8q28 -7 39.5 -17.5t11.5 -37.5v-81z" />
<glyph unicode="&#xb014;" horiz-adv-x="860" d="M265 670q0 44 -41 44h-145q-29 0 -29 -25q0 -27 31 -27h119q0 -151 -12 -217q0 -1 -0.5 -3.5t-1.5 -3.5h-133q-15 0 -22.5 -7.5t-7.5 -18.5q0 -26 29 -26h223v-153h18q19 0 31.5 22.5t12.5 67.5v63h21q69 0 146 11.5t113 28.5q21 11 17 24q-3 10 -22 5q-58 -13 -143 -16 q39 79 39 231q0 44 -41 44h-143q-28 0 -28 -25q0 -27 30 -27h117q0 -163 -12 -217q0 -1 -0.5 -3.5t-0.5 -3.5h-207q20 46 31 112.5t11 119.5zM739 724q0 18 -9.5 29.5t-26.5 11.5h-91q-27 0 -27 -18q0 -13 34 -19q30 -5 44 -16.5t14 -39.5v-439h16q46 0 46 90v401zM278 39 q-21 0 -21 -16q0 -14 18 -18q21 -6 29.5 -16t8.5 -31v-54q0 -30 16.5 -48.5t47.5 -18.5h356q25 0 25 27q0 24 -26 24h-327q-31 0 -31 31v70h316q36 0 36 44v116q0 38 -33 38h-384q-27 0 -27 -26q0 -24 28 -24h354v-98h-386z" />
<glyph unicode="&#xb01c;" horiz-adv-x="860" d="M264 657q0 44 -41 44h-145q-29 0 -29 -25q0 -27 31 -27h119q0 -6 0.5 -45t0 -61t-3 -57.5t-7.5 -64.5q0 -1 -0.5 -3.5t-0.5 -3.5h-135q-30 0 -30 -26q0 -25 29 -25h226v-173h18q19 0 31.5 23t12.5 68v82h18q70 0 146.5 11t112.5 29q12 6 16 14t-1.5 13t-19.5 2 q-63 -14 -144 -17q39 83 39 242q0 44 -41 44h-143q-28 0 -28 -25q0 -27 30 -27h117q0 -14 0.5 -48.5t0 -49.5t-1.5 -40.5t-3.5 -46.5t-7.5 -43q0 -1 -0.5 -3.5t-0.5 -3.5h-204q18 46 28.5 117.5t10.5 125.5zM739 724q0 41 -36 41h-91q-27 0 -27 -17q0 -13 34 -20 q30 -5 44 -16.5t14 -39.5v-487h16q46 0 46 91v448zM665 91v-196h-295q4 26 4 33v163h291zM723 -156q22 0 22 24q0 26 -25 26h-7q13 29 13 75v139q0 34 -31 34h-417q-25 0 -25 -16q0 -14 23 -20q21 -6 29 -16.5t8 -36.5v-237h18q15 0 27 28h365z" />
<glyph unicode="&#xb01d;" horiz-adv-x="860" d="M265 670q0 44 -41 44h-145q-29 0 -29 -25q0 -27 31 -27h119q0 -151 -12 -217q0 -1 -0.5 -3.5t-1.5 -3.5h-133q-15 0 -22.5 -7.5t-7.5 -18.5q0 -26 29 -26h223v-153h18q19 0 31.5 22.5t12.5 67.5v63h21q69 0 146 11.5t113 28.5q21 11 17 24q-3 10 -22 5q-58 -13 -143 -16 q39 79 39 231q0 44 -41 44h-143q-28 0 -28 -25q0 -27 30 -27h117q0 -163 -12 -217q0 -1 -0.5 -3.5t-0.5 -3.5h-207q20 46 31 112.5t11 119.5zM739 724q0 18 -9.5 29.5t-26.5 11.5h-91q-27 0 -27 -18q0 -13 34 -19q30 -5 44 -16.5t14 -39.5v-439h16q46 0 46 90v401zM374 7 h291v-111h-291v111zM723 -155q22 0 22 25t-24 25h-8q13 30 13 72v194q0 39 -36 39h-65q-25 0 -25 -16q0 -8 5 -12t21 -8q22 -5 30.5 -13t8.5 -33v-60h-291v82q0 39 -32 39h-68q-14 0 -19.5 -3t-5.5 -13q0 -9 4 -12.5t18 -5.5q23 -5 32.5 -15.5t9.5 -34.5v-275h13q24 0 34 25 h363z" />
<glyph unicode="&#xb028;" d="M418 653q0 43 -41 43h-198q-29 0 -29 -24q0 -27 31 -27h172q0 -230 -19 -297q-7 -26 8 -30q17 -6 26 17q23 50 36.5 150t13.5 168zM705 653q0 43 -42 43h-176q-28 0 -28 -24q0 -27 31 -27h148q0 -14 0.5 -66.5t0.5 -82t-3 -73t-10 -76.5q-5 -26 8 -29q15 -5 27 17 q23 48 33.5 146t10.5 172zM70 311q-13 0 -20.5 -7t-7.5 -16q0 -26 28 -26h212v-382h16q44 0 44 90v292h232v-382h16q20 0 32.5 22.5t12.5 67.5v292h210q29 0 29 25q0 24 -29 24h-775z" />
<glyph unicode="&#xb044;" d="M418 617q0 44 -41 44h-198q-29 0 -29 -25q0 -26 31 -26h172q0 -254 -29 -380q-6 -25 9 -29q17 -6 26 17q27 64 43 183.5t16 215.5zM705 617q0 44 -42 44h-176q-28 0 -28 -25q0 -26 31 -26h148q0 -24 0.5 -82t0 -86.5t-2 -72.5t-6 -77t-11.5 -62q-6 -25 8 -29q17 -6 27 17 q51 114 51 399zM70 79q-13 0 -20.5 -7t-7.5 -17q0 -26 28 -26h775q29 0 29 25t-29 25h-775z" />
</font>
</defs>
</svg>
